Kana-Bold.sfdir
StartChar: uF0147
Encoding: 983367 983367 0
Width: 500
VWidth: 0
Flags: MW
LayerCount: 2
Back
Fore
SplineSet
93 -21 m 0
 93 -3 93 0 95 12 c 0
 101 43 114 68 131 87 c 0
 147 106 174 121 195 125 c 0
 225 130 262 120 285 98 c 0
 302 80 314 57 321 26 c 0
 323 14 323 11 323 -6 c 0
 323 -23 323 -27 321 -39 c 0
 310 -92 279 -131 238 -148 c 0
 221 -155 198 -157 180 -153 c 0
 138 -142 106 -104 95 -53 c 0
 93 -42 93 -39 93 -21 c 0
171 -18 m 0
 171 -41 177 -54 191 -61 c 0
 202 -68 211 -67 223 -58 c 0
 243 -44 253 -15 240 14 c 0
 236 28 228 32 217 35 c 0
 210 36 205 38 202 35 c 0
 182 27 170 9 171 -18 c 0
EndSplineSet
Comment: "Kage: aj1-00327+AAoA-Alias: uf0147"
EndChar
StartChar: uF0148
Encoding: 983368 983368 1
Width: 500
VWidth: 0
Flags: MW
LayerCount: 2
Back
Fore
SplineSet
191 96 m 1
 186 301 186 494 190 698 c 1
 216 704 233 705 260 702 c 1
 265 689 265 688 260 698 c 2
 259 703 l 1
 266 703 300 705 339 708 c 2
 420 708 l 1
 425 677 425 657 421 627 c 1
 357 618 305 615 261 616 c 1
 265 454 265 282 261 100 c 1
 235 94 218 93 191 96 c 1
EndSplineSet
Comment: "Kage: aj1-00328+AAoA-Alias: uf0148"
EndChar
StartChar: uF0149
Encoding: 983369 983369 2
Width: 500
VWidth: 0
Flags: MW
LayerCount: 2
Back
Fore
SplineSet
119 -52 m 1
 187 -43 l 2
 219 -41 255 -38 267 -37 c 2
 279 -40 l 1
 275 111 275 274 279 445 c 1
 305 451 321 452 348 449 c 1
 353 256 353 74 349 -118 c 1
 269 -128 201 -132 120 -133 c 1
 115 -102 115 -82 119 -52 c 1
EndSplineSet
Comment: "Kage: aj1-00329+AAoA-Alias: uf0149"
EndChar
StartChar: uF014A
Encoding: 983370 983370 3
Width: 500
VWidth: 0
Flags: MW
LayerCount: 2
Back
Fore
SplineSet
110 101 m 1
 106 94 116 111 125 113 c 0
 126 113 137 112 144 108 c 0
 212 83 277 26 322 -50 c 2
 330 -65 l 2
 331 -75 334 -82 335 -96 c 1
 330 -107 324 -116 316 -126 c 1
 305 -129 298 -130 285 -131 c 1
 272 -122 l 1
 261 -99 262 -97 255 -99 c 1
 249 -86 242 -69 233 -56 c 0
 210 -16 174 26 122 70 c 0
 117 75 106 94 110 101 c 1
EndSplineSet
Comment: "Kage: aj1-00330+AAoA-Alias: uf014a"
EndChar
StartChar: uF014B
Encoding: 983371 983371 4
Width: 500
VWidth: 0
Flags: MW
LayerCount: 2
Back
Fore
SplineSet
185 293 m 0
 189 324 209 355 236 363 c 0
 248 366 251 367 262 366 c 0
 269 365 275 364 285 357 c 0
 293 352 296 346 300 340 c 0
 319 312 319 267 300 238 c 0
 297 233 293 226 285 220 c 0
 275 213 270 212 265 210 c 2
 252 205 l 1
 238 207 l 2
 231 208 225 209 215 216 c 0
 208 220 205 224 200 231 c 0
 189 246 183 272 185 293 c 0
EndSplineSet
Comment: "Kage: aj1-00331+AAoA-Alias: uf014b"
EndChar
StartChar: uF014C
Encoding: 983372 983372 5
Width: 500
VWidth: 0
Flags: MW
LayerCount: 2
Back
Fore
SplineSet
101 571 m 0
 103 571 110 568 115 565 c 2
 117 563 l 1
 143 564 175 564 204 564 c 0
 255 568 306 570 351 573 c 1
 358 582 l 2
 365 590 377 599 382 600 c 0
 390 598 403 583 415 569 c 2
 442 531 l 1
 426 515 418 512 416 512 c 2
 413 481 l 2
 406 427 393 360 380 307 c 0
 359 218 334 147 304 81 c 0
 291 54 286 45 272 20 c 0
 257 -6 251 -15 236 -36 c 0
 219 -59 214 -64 196 -83 c 0
 175 -105 172 -107 155 -120 c 0
 145 -128 135 -137 131 -139 c 2
 117 -141 l 1
 107 -130 l 2
 106 -128 105 -111 118 -104 c 1
 112 -105 115 -100 125 -89 c 0
 202 -6 252 99 292 250 c 0
 300 282 307 308 311 321 c 1
 307 310 303 295 281 293 c 0
 244 290 237 288 187 282 c 2
 139 277 l 1
 137 273 l 2
 131 269 135 284 106 288 c 1
 106 276 96 351 108 356 c 1
 108 356 116 355 123 351 c 2
 126 349 l 1
 167 349 l 2
 213 349 213 349 270 353 c 2
 318 354 l 1
 317 360 l 1
 324 399 335 483 341 529 c 1
 344 519 l 1
 295 508 l 1
 235 504 233 504 182 497 c 2
 132 490 l 1
 127 487 l 2
 123 485 127 501 99 502 c 1
 99 490 89 566 101 571 c 0
EndSplineSet
Comment: "Kage: aj1-00332+AAoA-Alias: uf014c"
EndChar
StartChar: uF014D
Encoding: 983373 983373 6
Width: 500
VWidth: 0
Flags: MW
LayerCount: 2
Back
Fore
SplineSet
105 437 m 0
 107 437 115 435 120 432 c 2
 121 430 l 1
 147 431 181 430 210 430 c 0
 255 433 302 437 342 438 c 1
 349 448 l 2
 355 455 366 465 372 466 c 0
 378 465 395 448 407 434 c 0
 423 413 432 403 423 385 c 1
 416 380 402 371 399 370 c 1
 400 371 401 372 400 367 c 0
 378 306 341 239 302 191 c 0
 295 184 287 174 264 184 c 1
 260 195 l 1
 268 216 l 2
 287 261 308 317 317 346 c 0
 321 358 326 378 328 387 c 1
 333 384 l 1
 291 375 l 1
 237 371 236 371 185 363 c 2
 136 358 l 1
 134 354 l 2
 128 350 132 365 103 369 c 1
 103 357 93 432 105 437 c 0
113 -117 m 1
 107 -118 107 -116 114 -107 c 0
 165 -49 195 21 208 113 c 0
 213 146 214 174 213 212 c 0
 213 229 213 248 212 255 c 2
 211 267 l 1
 205 285 l 2
 201 296 198 305 197 307 c 0
 197 308 195 323 210 332 c 0
 213 332 227 329 244 326 c 0
 260 322 278 319 282 318 c 0
 284 317 296 311 299 301 c 0
 299 299 292 259 290 248 c 0
 289 246 290 234 289 214 c 0
 288 185 286 175 284 154 c 0
 275 77 257 13 227 -41 c 0
 203 -84 176 -116 142 -140 c 0
 132 -147 131 -135 103 -133 c 1
 104 -147 100 -124 113 -117 c 1
EndSplineSet
Comment: "Kage: aj1-00333+AAoA-Alias: uf014d"
EndChar
StartChar: uF014E
Encoding: 983374 983374 7
Width: 500
VWidth: 0
Flags: MW
LayerCount: 2
Back
Fore
SplineSet
81 48 m 1
 96 73 l 1
 122 107 153 152 175 189 c 0
 186 208 208 246 213 257 c 1
 214 257 l 1
 212 264 l 2
 210 273 209 282 209 285 c 2
 219 304 l 1
 241 293 244 289 235 289 c 2
 228 291 l 1
 251 341 273 401 286 448 c 2
 289 460 l 1
 289 478 l 2
 289 490 290 501 290 504 c 0
 290 510 297 523 306 526 c 0
 310 525 351 499 371 484 c 1
 384 469 l 1
 370 433 l 2
 363 418 354 403 352 401 c 1
 353 403 350 394 345 382 c 0
 330 343 303 287 285 252 c 0
 281 244 278 242 279 245 c 0
 278 250 278 253 283 248 c 0
 290 243 298 233 302 228 c 2
 311 210 l 1
 303 197 299 192 298 192 c 1
 299 86 299 -25 298 -143 c 1
 287 -154 l 2
 284 -157 280 -161 271 -165 c 2
 257 -168 l 1
 242 -158 l 1
 233 -146 232 -142 227 -131 c 2
 221 -113 l 2
 217 -92 213 -73 209 -49 c 1
 214 -35 218 -23 221 -15 c 0
 221 53 220 124 230 181 c 1
 241 179 l 1
 218 142 189 102 162 75 c 0
 149 62 124 39 106 26 c 1
 85 40 87 47 85 35 c 1
 81 48 l 1
EndSplineSet
Comment: "Kage: aj1-00334+AAoA-Alias: uf014e"
EndChar
StartChar: uF014F
Encoding: 983375 983375 8
Width: 500
VWidth: 0
Flags: MW
LayerCount: 2
Back
Fore
SplineSet
89 187 m 1
 94 201 98 213 101 221 c 0
 101 245 101 272 101 297 c 1
 95 322 l 2
 92 337 89 352 89 356 c 0
 89 358 93 371 104 375 c 0
 110 374 124 360 134 349 c 2
 147 331 l 1
 190 332 l 2
 237 331 240 331 283 334 c 2
 322 336 l 1
 326 342 334 351 353 365 c 1
 387 334 l 2
 399 320 405 310 398 312 c 1
 413 300 398 281 393 278 c 2
 388 276 l 1
 387 259 l 2
 383 225 374 180 365 143 c 0
 340 40 301 -36 250 -93 c 0
 236 -108 231 -113 216 -125 c 0
 201 -137 194 -140 180 -148 c 2
 149 -160 l 1
 140 -147 l 2
 140 -147 137 -141 137 -137 c 0
 139 -129 150 -119 158 -111 c 0
 236 -42 283 63 305 217 c 0
 308 241 313 283 313 290 c 1
 317 281 325 277 297 275 c 0
 271 273 258 273 220 267 c 2
 177 261 l 2
 179 262 178 260 179 263 c 1
 180 213 180 156 179 94 c 1
 171 84 l 2
 165 78 160 74 152 71 c 2
 137 67 l 1
 122 81 l 2
 114 92 113 95 108 106 c 1
 119 112 117 111 95 153 c 1
 89 187 l 1
191 514 m 1
 188 510 201 523 208 524 c 0
 214 523 241 492 245 487 c 0
 252 478 268 453 272 443 c 0
 282 421 290 400 295 380 c 2
 297 367 l 1
 295 356 294 350 290 337 c 1
 278 326 l 2
 274 323 266 318 260 317 c 0
 257 317 251 319 246 320 c 2
 233 326 l 1
 228 336 224 341 219 352 c 2
 218 369 l 2
 217 390 215 409 209 431 c 0
 203 454 196 477 192 487 c 0
 190 492 189 512 191 514 c 1
EndSplineSet
Comment: "Kage: aj1-00335+AAoA-Alias: uf014f"
EndChar
StartChar: uF0150
Encoding: 983376 983376 9
Width: 500
VWidth: 0
Flags: MW
LayerCount: 2
Back
Fore
SplineSet
96 38 m 0
 102 51 121 52 125 49 c 2
 128 46 l 1
 162 47 l 2
 200 47 203 47 216 50 c 1
 215 46 l 1
 211 160 l 1
 226 309 237 282 222 278 c 1
 222 278 210 276 196 274 c 2
 173 271 l 1
 170 268 l 2
 166 266 149 263 140 275 c 0
 139 277 133 347 144 352 c 0
 146 352 153 349 158 346 c 2
 160 344 l 1
 182 345 l 2
 210 345 203 339 200 328 c 1
 198 333 202 356 214 360 c 0
 217 360 227 354 232 348 c 1
 229 348 l 1
 242 354 l 1
 259 358 260 358 278 365 c 0
 288 370 301 375 304 375 c 0
 309 374 320 366 328 360 c 2
 345 345 l 1
 350 334 l 2
 353 328 353 321 354 319 c 2
 357 299 l 1
 313 288 l 1
 279 286 268 289 268 309 c 0
 264 312 271 305 273 303 c 0
 278 299 286 291 290 286 c 2
 302 267 l 1
 294 253 289 247 288 248 c 1
 289 185 289 117 285 59 c 1
 276 63 l 2
 276 63 280 64 284 64 c 1
 283 64 295 70 310 75 c 2
 342 85 l 1
 362 73 373 65 390 52 c 1
 395 39 l 2
 396 35 397 30 398 27 c 0
 400 22 397 25 388 28 c 1
 403 13 357 -4 318 -7 c 2
 249 -12 l 2
 211 -18 174 -22 141 -27 c 0
 140 -28 136 -31 118 -36 c 1
 102 5 l 2
 99 21 96 35 96 38 c 0
EndSplineSet
Comment: "Kage: aj1-00336+AAoA-Alias: uf0150"
EndChar
StartChar: uF0151
Encoding: 983377 983377 10
Width: 500
VWidth: 0
Flags: MW
LayerCount: 2
Back
Fore
SplineSet
71 -86 m 0
 71 -84 78 -72 84 -62 c 0
 131 18 157 71 189 147 c 0
 204 182 229 252 229 254 c 1
 234 244 237 239 179 231 c 2
 128 224 l 2
 127 222 121 220 104 215 c 1
 93 230 l 1
 90 246 85 300 97 305 c 0
 99 305 107 302 112 299 c 2
 114 297 l 1
 160 298 l 2
 188 298 214 298 218 298 c 0
 221 298 229 299 236 301 c 0
 244 303 254 305 256 305 c 1
 245 301 241 329 241 376 c 2
 241 460 l 1
 235 486 l 2
 232 501 229 516 229 520 c 0
 229 522 233 534 244 538 c 0
 250 537 264 523 274 512 c 0
 289 494 293 488 302 481 c 0
 314 470 330 454 331 446 c 0
 331 442 326 432 321 427 c 2
 318 426 l 1
 319 367 l 2
 319 311 315 313 306 317 c 0
 304 317 344 334 347 334 c 0
 353 333 364 325 372 319 c 2
 391 303 l 1
 395 291 l 2
 396 287 397 282 398 279 c 0
 400 274 397 277 388 280 c 1
 403 265 371 249 348 247 c 2
 315 249 l 1
 319 132 319 5 319 -125 c 1
 314 -138 l 2
 309 -147 305 -153 297 -160 c 0
 294 -163 287 -168 280 -169 c 0
 275 -168 248 -151 220 -133 c 2
 163 -94 l 1
 161 -83 161 -79 167 -63 c 1
 181 -61 l 2
 182 -61 202 -64 222 -68 c 2
 246 -78 l 1
 241 -28 l 2
 241 6 241 61 241 95 c 1
 253 142 l 1
 266 142 l 1
 253 113 229 71 211 40 c 0
 193 7 161 -39 141 -63 c 0
 127 -80 99 -110 91 -111 c 0
 83 -110 70 -93 71 -86 c 0
EndSplineSet
Comment: "Kage: aj1-00337+AAoA-Alias: uf0151"
EndChar
StartChar: uF0152
Encoding: 983378 983378 11
Width: 500
VWidth: 0
Flags: MW
LayerCount: 2
Back
Fore
SplineSet
87 218 m 0
 87 219 92 231 109 234 c 1
 112 234 l 1
 152 253 l 2
 193 271 189 267 186 260 c 1
 186 261 167 468 166 474 c 1
 167 471 166 483 181 492 c 0
 182 492 193 492 207 491 c 2
 236 488 l 1
 247 479 l 2
 250 476 248 476 244 477 c 1
 257 469 252 448 248 444 c 1
 247 449 247 455 248 447 c 0
 250 434 262 290 255 297 c 1
 245 298 265 309 294 324 c 2
 341 346 l 2
 339 341 339 345 340 353 c 1
 355 372 l 2
 361 379 372 389 379 390 c 0
 387 389 438 323 428 309 c 0
 426 309 423 307 416 302 c 2
 407 297 l 1
 406 292 l 2
 402 280 387 244 380 227 c 0
 361 184 340 143 318 107 c 0
 314 101 310 110 282 102 c 1
 290 88 277 101 276 108 c 0
 276 111 283 136 289 155 c 0
 313 233 334 294 342 286 c 1
 348 286 262 239 266 256 c 1
 262 261 274 172 284 76 c 0
 298 -66 300 -107 291 -117 c 0
 290 -117 285 -122 273 -133 c 0
 255 -148 241 -156 226 -146 c 1
 225 -139 190 222 194 234 c 1
 219 227 198 201 180 190 c 2
 150 171 l 1
 147 167 l 2
 144 162 123 155 115 164 c 1
 115 163 87 213 87 218 c 0
EndSplineSet
Comment: "Kage: aj1-00338+AAoA-Alias: uf0152"
EndChar
StartChar: uF0153
Encoding: 983379 983379 12
Width: 500
VWidth: 0
Flags: MW
LayerCount: 2
Back
Fore
SplineSet
97 53 m 0
 99 53 107 51 112 48 c 2
 115 45 l 1
 142 46 174 46 204 46 c 1
 221 49 l 2
 230 52 242 55 238 54 c 0
 231 48 274 304 273 315 c 1
 302 310 263 291 232 287 c 2
 180 280 l 1
 177 277 l 2
 172 274 177 288 147 286 c 1
 152 274 133 348 143 359 c 1
 151 360 159 358 163 355 c 2
 166 354 l 1
 208 353 l 2
 237 353 259 354 271 355 c 2
 285 355 l 1
 292 364 l 2
 299 372 311 381 316 382 c 0
 324 381 375 315 365 301 c 0
 363 301 338 284 336 284 c 1
 343 289 312 64 310 49 c 1
 304 61 290 64 319 75 c 2
 352 86 l 1
 377 69 l 2
 386 63 392 58 388 59 c 1
 399 55 403 43 404 41 c 0
 406 35 407 29 408 28 c 0
 412 21 409 24 398 28 c 1
 413 13 363 -4 317 -7 c 2
 235 -13 l 2
 198 -19 161 -23 128 -28 c 0
 126 -30 121 -32 104 -37 c 1
 93 -22 l 1
 90 -7 85 48 97 53 c 0
EndSplineSet
Comment: "Kage: aj1-00339+AAoA-Alias: uf0153"
EndChar
StartChar: uF0154
Encoding: 983380 983380 13
Width: 500
VWidth: 0
Flags: MW
LayerCount: 2
Back
Fore
SplineSet
275 -13 m 2
 275 -7 285 153 285 159 c 2
 290 150 l 1
 285 145 l 1
 277 144 248 142 221 138 c 2
 173 131 l 1
 169 128 l 2
 165 125 147 125 140 136 c 0
 138 141 131 207 144 212 c 0
 148 211 156 208 158 206 c 2
 159 205 l 1
 204 205 l 2
 243 205 257 205 276 206 c 1
 290 203 l 1
 286 196 l 2
 286 199 295 352 296 359 c 1
 301 351 l 1
 292 346 l 1
 280 345 256 342 222 338 c 2
 173 331 l 1
 169 328 l 2
 166 326 168 341 140 343 c 1
 140 331 129 405 142 411 c 1
 142 411 149 410 156 406 c 2
 158 404 l 1
 201 405 l 2
 243 405 251 405 279 407 c 2
 305 407 l 1
 308 412 317 422 336 436 c 1
 370 405 l 2
 383 390 387 381 380 383 c 1
 394 373 383 351 375 347 c 0
 370 344 370 346 371 349 c 1
 370 347 345 -111 339 -114 c 1
 340 -114 299 -125 274 -118 c 1
 273 -48 l 1
 278 -57 256 -63 203 -71 c 2
 155 -78 l 1
 153 -80 l 2
 148 -84 130 -84 123 -73 c 0
 121 -68 114 -3 127 2 c 0
 129 2 137 0 141 -3 c 2
 142 -4 l 1
 187 -4 l 2
 229 -4 241 -5 262 -3 c 1
 279 -6 l 1
 275 -13 l 2
EndSplineSet
Comment: "Kage: aj1-00340+AAoA-Alias: uf0154"
EndChar
StartChar: uF0155
Encoding: 983381 983381 14
Width: 500
VWidth: 0
Flags: MW
LayerCount: 2
Back
Fore
SplineSet
97 377 m 1
 104 390 l 1
 112 396 117 397 118 397 c 0
 124 396 143 380 150 370 c 0
 170 346 187 306 198 263 c 2
 204 243 l 1
 203 231 l 2
 202 225 200 219 200 220 c 1
 199 213 192 205 189 202 c 0
 175 191 167 190 164 191 c 0
 163 191 156 193 153 194 c 2
 143 197 l 1
 137 207 132 213 127 223 c 1
 125 241 l 2
 123 260 122 272 119 292 c 0
 114 319 107 353 102 364 c 2
 97 377 l 1
130 -121 m 1
 149 -94 l 1
 195 -42 235 30 266 116 c 0
 292 188 317 283 332 371 c 2
 337 398 l 1
 335 422 l 2
 334 437 337 459 349 464 c 0
 354 464 424 425 422 426 c 1
 429 421 409 357 406 350 c 1
 406 350 406 347 404 340 c 0
 399 316 383 255 372 218 c 0
 352 149 326 82 301 32 c 0
 263 -41 223 -94 176 -129 c 1
 138 -141 136 -127 135 -131 c 2
 130 -121 l 1
187 438 m 1
 194 449 l 2
 201 454 208 455 213 454 c 0
 221 449 245 424 251 415 c 0
 268 390 281 355 290 319 c 2
 294 306 l 1
 293 294 l 1
 275 266 270 268 278 263 c 1
 273 259 265 254 259 253 c 0
 256 253 250 254 247 255 c 2
 233 259 l 1
 225 270 222 277 218 286 c 2
 215 304 l 2
 214 314 214 324 213 328 c 0
 208 365 198 409 191 422 c 2
 187 438 l 1
EndSplineSet
Comment: "Kage: aj1-00341+AAoA-Alias: uf0155"
EndChar
StartChar: uF0156
Encoding: 983382 983382 15
Width: 500
VWidth: 0
Flags: MW
LayerCount: 2
Back
Fore
SplineSet
58 318 m 0
 61 318 69 314 71 313 c 2
 74 312 l 1
 119 311 l 2
 162 311 169 311 205 314 c 2
 245 317 l 1
 277 324 308 331 340 338 c 1
 362 346 l 2
 373 351 386 357 389 357 c 0
 394 356 434 328 437 325 c 0
 440 322 443 317 444 311 c 0
 445 308 446 303 448 299 c 0
 451 292 448 295 437 299 c 1
 452 285 383 264 313 259 c 2
 186 250 l 2
 153 246 118 240 87 237 c 1
 84 235 l 2
 81 233 63 230 55 241 c 0
 54 242 45 312 58 318 c 0
EndSplineSet
Comment: "Kage: aj1-00342+AAoA-Alias: uf0156"
EndChar
StartChar: uF0157
Encoding: 983383 983383 16
Width: 500
VWidth: 0
Flags: MW
LayerCount: 2
Back
Fore
SplineSet
57 571 m 1
 61 584 77 589 86 584 c 2
 89 581 l 1
 118 581 151 582 185 581 c 0
 249 586 313 590 372 593 c 1
 376 600 385 609 404 623 c 1
 437 590 l 2
 449 576 454 569 448 570 c 1
 463 558 448 539 442 534 c 2
 432 530 l 1
 430 521 l 1
 417 480 390 420 366 377 c 0
 352 352 328 315 309 291 c 1
 291 276 l 1
 278 280 l 2
 275 282 269 289 268 296 c 0
 268 300 271 308 273 313 c 0
 275 318 284 338 293 359 c 0
 311 402 319 420 327 442 c 0
 335 465 346 500 351 515 c 0
 354 528 360 551 364 560 c 1
 390 550 339 532 293 529 c 2
 212 523 l 2
 174 517 136 513 102 508 c 1
 100 506 l 2
 96 503 78 499 69 512 c 1
 57 571 l 1
74 -97 m 1
 74 -97 76 -93 86 -82 c 0
 109 -57 125 -33 142 -5 c 0
 182 65 206 152 212 251 c 0
 214 293 214 339 212 374 c 2
 210 397 l 1
 203 418 l 2
 199 431 196 455 198 457 c 0
 198 458 214 462 233 458 c 0
 244 456 259 451 268 450 c 0
 279 448 286 446 290 445 c 0
 300 435 292 386 290 378 c 0
 290 378 290 371 290 364 c 0
 290 356 290 334 289 316 c 0
 288 288 287 276 284 248 c 0
 281 220 281 213 275 182 c 0
 269 154 267 145 260 119 c 0
 253 91 250 85 240 60 c 0
 230 35 226 29 215 8 c 0
 204 -14 199 -21 185 -40 c 0
 171 -61 169 -65 151 -83 c 0
 136 -97 134 -101 113 -117 c 0
 103 -125 89 -133 84 -134 c 0
 75 -132 64 -110 74 -97 c 1
EndSplineSet
Comment: "Kage: aj1-00343+AAoA-Alias: uf0157"
EndChar
StartChar: uF0158
Encoding: 983384 983384 17
Width: 500
VWidth: 0
Flags: MW
LayerCount: 2
Back
Fore
SplineSet
47 123 m 0
 51 126 53 131 63 143 c 0
 94 181 135 240 164 288 c 0
 178 312 206 362 213 377 c 1
 215 379 l 1
 213 383 l 2
 211 392 212 413 226 419 c 0
 228 419 238 415 244 408 c 1
 235 407 l 1
 230 414 l 1
 256 470 292 565 306 619 c 2
 311 636 l 1
 311 658 l 2
 311 672 317 694 327 698 c 0
 331 697 342 692 351 686 c 0
 361 681 374 669 382 663 c 0
 392 656 395 653 390 654 c 1
 403 647 378 579 374 575 c 1
 375 577 375 575 373 571 c 0
 367 553 348 503 337 477 c 0
 323 445 299 398 285 371 c 0
 280 364 279 361 275 373 c 1
 269 376 281 368 287 362 c 0
 293 356 301 347 304 343 c 2
 314 326 l 1
 306 312 302 307 301 308 c 1
 302 171 302 27 301 -122 c 1
 290 -134 l 2
 286 -137 282 -142 273 -146 c 2
 258 -148 l 1
 245 -137 l 2
 236 -125 235 -120 230 -110 c 0
 225 -81 226 -79 217 -63 c 1
 210 -30 l 1
 215 -16 219 -4 222 3 c 0
 222 105 222 210 233 301 c 1
 241 293 l 1
 227 271 196 226 174 198 c 0
 148 164 121 135 94 111 c 0
 83 101 69 90 63 89 c 0
 54 91 43 108 47 123 c 0
EndSplineSet
Comment: "Kage: aj1-00344+AAoA-Alias: uf0158"
EndChar
StartChar: uF0159
Encoding: 983385 983385 18
Width: 500
VWidth: 0
Flags: MW
LayerCount: 2
Back
Fore
SplineSet
61 483 m 0
 61 488 69 500 77 502 c 0
 83 501 97 486 107 475 c 2
 120 459 l 1
 147 459 179 459 212 458 c 0
 258 461 307 465 348 466 c 1
 351 472 l 2
 356 477 361 482 364 485 c 2
 380 496 l 1
 413 465 l 2
 425 451 431 441 424 443 c 1
 438 432 426 411 419 408 c 0
 409 403 412 406 415 413 c 1
 415 411 413 395 411 379 c 0
 409 359 406 337 401 310 c 0
 391 255 379 210 364 163 c 0
 355 135 352 125 341 98 c 0
 330 72 325 62 313 39 c 0
 300 15 293 7 280 -12 c 0
 264 -36 262 -39 244 -58 c 0
 228 -75 224 -81 204 -97 c 0
 187 -111 183 -115 161 -127 c 0
 149 -134 147 -123 117 -126 c 1
 123 -139 112 -115 122 -103 c 0
 123 -103 129 -99 138 -90 c 0
 188 -47 226 5 258 74 c 0
 290 142 313 226 327 324 c 0
 332 355 338 413 338 421 c 1
 342 412 352 408 296 404 c 0
 238 400 236 400 192 394 c 2
 150 389 l 2
 152 390 150 387 151 390 c 1
 152 323 152 251 151 173 c 1
 143 161 l 2
 138 157 134 153 127 150 c 2
 110 145 l 1
 95 159 l 2
 87 170 86 173 81 183 c 0
 76 211 77 213 68 230 c 1
 61 265 l 1
 66 280 71 291 74 298 c 2
 74 360 l 1
 74 424 l 1
 68 449 l 2
 65 464 61 479 61 483 c 0
182 697 m 1
 180 695 189 705 199 704 c 0
 204 703 234 669 240 659 c 0
 254 636 266 616 276 591 c 0
 286 566 294 541 298 518 c 2
 299 506 l 2
 297 497 297 490 292 475 c 1
 282 468 l 2
 280 466 276 463 274 461 c 0
 267 458 260 457 251 460 c 2
 236 466 l 1
 230 476 226 482 221 492 c 1
 221 504 l 2
 219 529 213 569 206 594 c 0
 199 618 186 652 180 667 c 0
 177 674 174 686 182 697 c 1
EndSplineSet
Comment: "Kage: aj1-00345+AAoA-Alias: uf0159"
EndChar
StartChar: uF015A
Encoding: 983386 983386 19
Width: 500
VWidth: 0
Flags: MW
LayerCount: 2
Back
Fore
SplineSet
73 108 m 0
 79 109 87 108 94 104 c 2
 96 102 l 1
 140 102 l 2
 171 102 191 103 205 104 c 1
 215 100 l 1
 211 251 l 1
 211 411 211 411 209 417 c 1
 214 415 l 1
 217 411 l 2
 215 411 198 407 179 405 c 2
 151 402 l 1
 148 399 l 2
 139 394 121 398 117 406 c 0
 116 406 104 470 114 481 c 1
 122 482 131 480 135 477 c 2
 136 476 l 1
 163 476 l 2
 189 476 191 476 199 478 c 0
 206 479 211 479 212 479 c 1
 202 475 198 466 198 469 c 0
 198 474 206 486 214 488 c 1
 214 488 220 487 228 481 c 1
 225 481 l 1
 242 488 l 2
 267 494 271 494 289 501 c 0
 302 506 315 511 319 511 c 0
 326 510 337 502 348 494 c 2
 369 478 l 1
 374 467 l 2
 377 462 377 456 378 454 c 0
 381 448 377 451 368 454 c 1
 383 440 343 422 311 420 c 1
 266 426 l 1
 274 430 l 1
 280 425 291 416 294 411 c 2
 302 397 l 1
 294 383 289 377 288 377 c 2
 289 242 l 2
 289 139 285 111 275 115 c 0
 274 115 284 118 298 121 c 0
 323 127 324 127 343 135 c 0
 356 140 370 145 374 145 c 0
 380 144 393 135 403 128 c 2
 424 111 l 1
 429 101 l 2
 432 95 432 89 433 87 c 2
 437 65 l 1
 317 50 l 1
 209 42 l 2
 176 38 140 32 110 29 c 1
 107 26 l 2
 102 23 107 37 77 35 c 1
 82 23 63 97 73 108 c 0
EndSplineSet
Comment: "Kage: aj1-00346+AAoA-Alias: uf015a"
EndChar
StartChar: uF015B
Encoding: 983387 983387 20
Width: 500
VWidth: 0
Flags: MW
LayerCount: 2
Back
Fore
SplineSet
36 -48 m 1
 47 -27 l 2
 85 37 116 90 140 141 c 0
 177 217 204 283 231 363 c 1
 240 366 l 1
 227 359 l 1
 205 357 195 356 146 350 c 2
 93 343 l 1
 88 339 l 2
 84 337 68 335 59 347 c 0
 58 349 50 419 62 424 c 0
 66 423 73 419 75 418 c 2
 78 417 l 1
 125 416 l 2
 167 416 180 416 201 418 c 0
 223 420 227 421 241 424 c 0
 250 426 259 428 262 428 c 2
 253 424 l 1
 249 488 249 562 249 635 c 1
 243 660 l 2
 240 675 237 688 237 692 c 0
 237 694 241 707 252 711 c 0
 259 709 270 697 280 686 c 0
 294 670 300 663 310 655 c 0
 317 649 327 640 332 634 c 2
 340 616 l 1
 332 603 327 598 326 599 c 1
 327 545 327 483 321 435 c 1
 316 440 l 2
 318 440 330 445 344 450 c 2
 377 461 l 1
 398 449 408 439 423 428 c 1
 429 417 l 2
 430 412 433 406 434 402 c 2
 437 381 l 1
 388 370 350 368 323 370 c 1
 327 220 327 59 327 -104 c 1
 322 -116 l 2
 317 -126 313 -130 306 -137 c 2
 288 -147 l 1
 244 -122 211 -101 171 -72 c 1
 169 -59 l 2
 173 -65 168 -54 185 -39 c 0
 188 -39 264 -51 264 -51 c 0
 253 -55 249 12 249 106 c 1
 261 262 l 1
 267 248 l 1
 226 159 187 89 138 18 c 0
 120 -8 97 -37 76 -60 c 0
 68 -70 65 -61 51 -52 c 1
 39 -58 35 -65 35 -59 c 2
 36 -48 l 1
EndSplineSet
Comment: "Kage: aj1-00347+AAoA-Alias: uf015b"
EndChar
StartChar: uF015C
Encoding: 983388 983388 21
Width: 500
VWidth: 0
Flags: MW
LayerCount: 2
Back
Fore
SplineSet
203 8 m 0
 206 8 296 -3 295 -3 c 0
 287 -6 283 -8 285 -2 c 0
 307 60 330 191 342 318 c 0
 344 342 349 390 349 393 c 1
 354 383 345 377 310 375 c 2
 265 375 l 1
 269 380 l 2
 269 378 265 355 260 331 c 0
 248 268 236 219 218 163 c 0
 207 126 204 119 190 86 c 0
 176 54 173 47 158 17 c 0
 143 -11 143 -14 123 -44 c 1
 94 -77 92 -77 83 -94 c 1
 72 -106 64 -101 50 -92 c 1
 39 -96 35 -104 35 -100 c 2
 36 -89 l 1
 52 -63 l 2
 65 -45 68 -40 82 -15 c 0
 96 10 98 17 110 45 c 0
 148 132 174 227 192 343 c 0
 195 365 202 392 212 396 c 1
 227 382 193 364 167 360 c 2
 124 355 l 1
 121 352 l 2
 112 347 95 351 91 359 c 0
 90 359 78 423 88 434 c 0
 94 435 101 435 108 431 c 2
 111 428 l 1
 153 428 l 2
 179 428 203 429 207 429 c 2
 206 426 l 1
 205 444 l 1
 210 485 213 558 214 603 c 2
 215 637 l 1
 209 658 l 2
 206 671 204 684 204 686 c 0
 208 698 219 702 219 702 c 2
 222 702 287 680 293 678 c 0
 298 675 297 675 291 676 c 1
 303 670 302 644 298 629 c 2
 291 606 l 1
 291 587 l 2
 289 557 282 473 278 443 c 0
 276 429 275 419 275 419 c 1
 271 429 276 433 311 436 c 2
 358 438 l 1
 363 445 l 2
 368 450 373 456 375 458 c 2
 389 467 l 1
 423 435 l 2
 435 421 440 412 433 414 c 1
 447 404 436 383 429 379 c 0
 398 376 418 401 425 365 c 1
 423 340 418 281 415 251 c 0
 402 147 386 64 368 -1 c 0
 362 -23 353 -49 348 -58 c 2
 347 -60 l 1
 347 -71 l 2
 347 -79 343 -73 316 -83 c 1
 330 -98 323 -97 316 -93 c 1
 318 -92 l 2
 324 -91 319 -95 309 -100 c 1
 296 -97 290 -95 279 -90 c 1
 272 -78 269 -71 269 -68 c 0
 247 -58 219 -43 187 -25 c 1
 185 -12 l 1
 189 4 201 8 203 8 c 0
EndSplineSet
Comment: "Kage: aj1-00348+AAoA-Alias: uf015c"
EndChar
StartChar: uF015D
Encoding: 983389 983389 22
Width: 500
VWidth: 0
Flags: MW
LayerCount: 2
Back
Fore
SplineSet
77 154 m 0
 83 155 90 155 95 153 c 2
 96 152 l 1
 139 168 l 2
 185 183 214 192 220 197 c 0
 227 201 221 198 217 188 c 1
 216 192 203 381 202 394 c 1
 231 391 206 367 186 358 c 0
 100 333 133 353 126 327 c 0
 123 324 123 338 94 332 c 1
 100 319 72 393 85 400 c 1
 85 400 90 400 95 399 c 2
 98 398 l 1
 122 406 150 415 175 422 c 1
 190 430 l 2
 200 433 198 427 198 429 c 0
 198 430 181 649 181 651 c 0
 181 652 186 664 224 665 c 1
 253 660 l 1
 264 649 l 2
 265 647 262 649 259 649 c 1
 272 641 267 619 263 616 c 1
 262 617 l 1
 263 620 l 1
 265 607 274 462 272 465 c 0
 264 468 262 471 279 484 c 0
 289 492 299 500 301 501 c 2
 310 505 l 1
 331 499 346 494 365 486 c 1
 371 477 l 2
 372 475 377 468 380 463 c 0
 383 458 383 441 373 434 c 0
 368 431 274 397 279 414 c 1
 275 419 293 221 286 228 c 1
 277 229 280 231 290 237 c 0
 303 245 312 251 329 263 c 2
 358 283 l 1
 376 277 l 2
 381 275 390 273 397 271 c 2
 411 266 l 1
 420 255 l 2
 422 251 425 247 427 243 c 0
 430 238 427 241 432 235 c 1
 425 216 292 161 293 161 c 0
 297 167 319 -92 319 -96 c 0
 318 -103 258 -152 247 -147 c 0
 243 -142 223 136 221 147 c 1
 228 141 l 1
 233 137 l 2
 229 136 203 123 175 109 c 2
 126 87 l 1
 124 84 l 2
 122 80 122 94 93 88 c 1
 99 75 67 142 77 154 c 0
EndSplineSet
Comment: "Kage: aj1-00349+AAoA-Alias: uf015d"
EndChar
StartChar: uF015F
Encoding: 983391 983391 24
Width: 500
VWidth: 0
Flags: MW
LayerCount: 2
Back
Fore
SplineSet
51 152 m 0
 53 154 51 156 56 167 c 0
 90 251 116 340 137 437 c 0
 147 482 158 549 164 595 c 2
 166 613 l 1
 164 637 l 2
 162 651 161 665 162 672 c 1
 171 681 l 1
 181 682 195 674 208 667 c 0
 222 660 238 652 243 649 c 0
 248 646 247 646 244 646 c 1
 256 640 254 613 248 599 c 2
 238 574 l 1
 231 539 l 2
 223 497 213 452 204 420 c 1
 194 413 l 1
 185 418 l 2
 190 418 201 417 212 417 c 2
 233 417 l 1
 258 423 286 429 312 435 c 0
 328 441 346 448 370 455 c 1
 390 443 401 434 417 422 c 1
 422 408 l 2
 424 403 426 396 427 393 c 1
 427 393 422 397 416 398 c 1
 431 384 393 366 363 364 c 1
 323 372 l 1
 326 383 l 1
 335 380 338 378 344 374 c 1
 348 360 335 317 333 310 c 0
 331 306 331 302 330 295 c 0
 329 290 327 270 324 252 c 0
 314 182 298 121 277 64 c 0
 256 6 230 -41 199 -80 c 0
 184 -98 180 -102 166 -115 c 0
 150 -129 145 -132 128 -141 c 0
 118 -147 108 -152 103 -153 c 0
 94 -151 84 -128 94 -116 c 2
 94 -116 97 -112 105 -104 c 0
 162 -52 203 28 229 143 c 0
 241 195 251 262 255 318 c 2
 257 341 l 2
 255 349 254 357 257 358 c 2
 264 355 l 2
 263 355 244 353 220 349 c 1
 152 353 182 367 181 340 c 1
 164 286 138 226 115 183 c 0
 105 166 77 122 68 120 c 0
 61 121 48 135 51 152 c 0
EndSplineSet
Comment: "Kage: aj1-00351+AAoA-Alias: uf015f"
EndChar
StartChar: uF0160
Encoding: 983392 983392 25
Width: 500
VWidth: 0
Flags: MW
LayerCount: 2
Back
Fore
SplineSet
91 74 m 1
 95 87 111 90 119 86 c 2
 122 85 l 1
 168 84 l 2
 224 83 224 82 268 87 c 1
 309 86 l 1
 305 81 l 2
 306 88 338 454 338 455 c 1
 341 446 347 442 297 438 c 0
 241 434 239 434 190 428 c 2
 142 421 l 1
 140 419 l 2
 134 415 115 415 109 426 c 0
 107 431 100 496 113 501 c 0
 115 501 123 499 128 496 c 2
 129 494 l 1
 158 494 190 495 222 494 c 0
 265 497 310 500 348 501 c 1
 356 512 l 2
 362 519 374 530 380 531 c 0
 387 530 430 477 424 478 c 1
 438 467 426 446 419 442 c 0
 409 436 411 440 413 445 c 1
 412 437 379 16 378 27 c 1
 379 25 361 1 346 -6 c 0
 326 -16 305 -19 298 -5 c 0
 298 -3 300 11 301 23 c 1
 307 35 l 1
 281 28 l 1
 246 26 239 26 189 18 c 2
 136 11 l 1
 133 8 l 2
 127 4 109 4 102 16 c 1
 91 74 l 1
EndSplineSet
Comment: "Kage: aj1-00352+AAoA-Alias: uf0160"
EndChar
StartChar: uF0161
Encoding: 983393 983393 26
Width: 500
VWidth: 0
Flags: MW
LayerCount: 2
Back
Fore
SplineSet
57 401 m 0
 65 419 83 415 86 413 c 2
 88 411 l 1
 116 413 l 2
 134 413 151 412 154 412 c 2
 147 408 l 1
 141 460 141 524 141 586 c 1
 135 612 l 2
 129 637 130 658 144 664 c 0
 150 663 163 650 173 639 c 0
 187 622 192 616 201 609 c 0
 214 598 230 579 231 572 c 0
 231 568 226 558 221 553 c 2
 218 552 l 1
 219 505 219 451 214 409 c 1
 250 416 l 1
 286 415 l 1
 282 507 l 1
 283 606 l 1
 277 631 l 2
 273 649 271 659 271 665 c 2
 281 684 l 1
 317 657 l 1
 330 641 338 633 346 626 c 0
 352 620 360 612 363 608 c 2
 374 591 l 1
 366 576 361 571 360 572 c 1
 361 524 361 468 356 425 c 1
 351 430 l 2
 352 430 360 434 369 438 c 2
 393 446 l 1
 411 433 l 2
 417 428 426 420 426 418 c 1
 425 420 428 415 429 411 c 0
 430 408 432 402 434 398 c 2
 437 375 l 1
 399 366 373 365 357 368 c 1
 361 311 l 1
 361 230 361 211 355 170 c 0
 352 145 350 137 344 115 c 0
 332 62 313 18 287 -20 c 0
 261 -59 233 -88 197 -108 c 0
 182 -116 176 -119 162 -124 c 0
 152 -128 155 -114 126 -110 c 1
 126 -122 123 -110 123 -108 c 0
 125 -100 135 -91 143 -85 c 0
 170 -66 198 -38 217 -12 c 0
 230 7 241 29 251 52 c 0
 266 87 275 130 280 177 c 2
 282 201 l 1
 282 287 l 1
 288 363 l 1
 268 357 236 355 215 358 c 1
 219 290 219 211 218 128 c 1
 210 116 l 2
 202 109 198 107 192 104 c 2
 176 102 l 1
 163 113 l 2
 154 125 153 128 148 138 c 0
 143 166 144 167 135 185 c 1
 129 220 l 1
 134 234 138 245 141 252 c 2
 141 305 l 2
 141 350 146 350 156 345 c 0
 156 345 143 343 127 341 c 2
 101 338 l 1
 98 336 l 2
 95 334 98 349 70 350 c 1
 70 338 58 398 57 401 c 0
EndSplineSet
Comment: "Kage: aj1-00353+AAoA-Alias: uf0161"
EndChar
StartChar: uF0162
Encoding: 983394 983394 27
Width: 500
VWidth: 0
Flags: MW
LayerCount: 2
Back
Fore
SplineSet
79 -34 m 1
 77 -34 83 -33 92 -28 c 2
 110 -19 l 1
 122 -9 l 2
 155 19 196 66 228 110 c 0
 283 185 327 267 374 383 c 0
 384 409 404 463 410 483 c 0
 413 488 420 494 427 495 c 0
 430 495 440 492 439 492 c 1
 445 488 445 457 440 437 c 0
 395 250 312 81 206 -39 c 0
 195 -52 183 -65 181 -67 c 0
 180 -68 177 -70 175 -73 c 0
 173 -76 167 -86 161 -96 c 0
 151 -112 140 -121 125 -115 c 0
 121 -110 90 -81 79 -71 c 0
 73 -64 65 -43 79 -34 c 1
90 412 m 1
 81 409 77 406 78 408 c 1
 78 408 82 417 96 421 c 0
 102 419 126 407 133 403 c 0
 148 393 170 370 183 353 c 0
 197 333 200 325 210 307 c 2
 218 293 l 1
 218 281 218 274 217 261 c 1
 210 251 206 245 195 234 c 1
 184 233 180 232 167 233 c 1
 153 244 l 1
 157 247 152 247 140 268 c 1
 132 297 119 327 106 350 c 0
 98 362 89 375 83 381 c 0
 81 384 76 403 90 412 c 1
133 617 m 1
 129 611 140 627 149 629 c 0
 155 629 182 614 189 608 c 0
 216 588 244 552 265 511 c 2
 273 497 l 1
 273 485 273 478 272 466 c 1
 266 456 263 449 254 439 c 1
 238 436 l 2
 235 436 231 435 228 435 c 0
 223 436 214 441 209 447 c 2
 200 456 l 1
 196 471 l 2
 189 495 177 526 164 548 c 0
 155 564 142 585 136 592 c 0
 134 595 130 612 133 617 c 1
EndSplineSet
Comment: "Kage: aj1-00354+AAoA-Alias: uf0162"
EndChar
StartChar: uF0163
Encoding: 983395 983395 28
Width: 500
VWidth: 0
Flags: MW
LayerCount: 2
Back
Fore
SplineSet
40 -99 m 1
 63 -63 l 2
 89 -28 106 -4 124 25 c 0
 185 128 237 256 277 407 c 0
 285 439 301 504 305 516 c 1
 301 505 307 490 293 489 c 0
 276 488 257 485 215 479 c 2
 163 473 l 1
 160 470 l 2
 156 467 159 481 144 493 c 1
 132 487 117 536 121 549 c 1
 134 553 142 551 146 548 c 2
 148 547 l 1
 195 546 l 2
 242 545 248 545 283 548 c 2
 314 549 l 1
 322 560 l 2
 328 567 340 578 346 579 c 0
 353 578 405 505 375 511 c 1
 404 516 391 494 384 490 c 0
 379 487 375 484 375 484 c 0
 377 487 375 475 370 457 c 0
 353 391 322 297 302 245 c 0
 297 235 292 238 280 244 c 1
 286 243 294 237 299 233 c 0
 322 213 351 179 372 146 c 0
 398 105 424 53 442 2 c 2
 448 -18 l 2
 448 -28 448 -36 447 -49 c 1
 440 -59 437 -63 427 -74 c 1
 411 -77 l 1
 394 -74 l 1
 383 -63 l 1
 388 -61 385 -61 371 -40 c 1
 357 5 348 30 334 65 c 0
 314 114 304 136 271 193 c 1
 276 202 l 1
 286 204 l 1
 278 183 251 128 236 100 c 0
 189 14 142 -51 91 -99 c 0
 81 -109 66 -120 60 -121 c 0
 48 -117 45 -110 45 -112 c 2
 40 -99 l 1
EndSplineSet
Comment: "Kage: aj1-00355+AAoA-Alias: uf0163"
EndChar
StartChar: uF0164
Encoding: 983396 983396 29
Width: 500
VWidth: 0
Flags: MW
LayerCount: 2
Back
Fore
SplineSet
68 288 m 1
 66 288 73 289 80 287 c 1
 81 286 l 1
 106 296 135 308 158 314 c 1
 155 404 155 502 155 599 c 1
 149 623 l 2
 145 641 144 651 144 656 c 2
 154 675 l 1
 190 648 l 1
 204 632 210 624 218 617 c 0
 224 611 233 603 236 599 c 2
 247 582 l 1
 239 567 235 563 234 564 c 2
 235 449 l 2
 235 338 225 341 214 342 c 1
 217 343 251 360 294 380 c 2
 366 410 l 2
 364 405 364 407 365 415 c 1
 376 430 385 438 404 453 c 1
 437 420 l 2
 449 406 454 399 448 400 c 1
 462 389 449 368 441 363 c 2
 430 358 l 1
 427 348 l 2
 409 306 392 271 367 227 c 0
 344 186 325 157 303 126 c 1
 285 110 l 1
 272 115 269 117 262 128 c 1
 268 147 l 2
 270 153 277 169 282 180 c 0
 307 239 331 302 340 327 c 0
 346 343 359 375 368 378 c 1
 383 366 340 334 299 315 c 2
 233 287 l 1
 235 168 l 1
 235 42 l 1
 237 36 l 2
 240 23 246 13 250 11 c 0
 262 4 277 2 306 4 c 0
 328 6 341 6 363 13 c 2
 381 18 l 1
 389 16 395 15 408 10 c 1
 414 0 418 -6 423 -17 c 1
 422 -31 l 2
 421 -37 419 -39 419 -41 c 0
 417 -46 414 -54 405 -62 c 2
 395 -69 l 1
 380 -74 l 2
 353 -81 335 -85 308 -87 c 0
 288 -88 281 -89 268 -88 c 0
 244 -86 224 -77 210 -68 c 0
 201 -63 188 -53 186 -50 c 0
 183 -45 183 -42 184 -44 c 1
 169 -19 163 -3 158 21 c 2
 156 31 l 1
 155 151 l 1
 162 256 l 1
 155 244 133 232 115 223 c 1
 113 219 l 2
 109 214 108 226 79 221 c 1
 84 209 78 221 75 226 c 0
 72 232 66 243 62 251 c 0
 58 259 55 281 68 288 c 1
EndSplineSet
Comment: "Kage: aj1-00356+AAoA-Alias: uf0164"
EndChar
StartChar: uF0165
Encoding: 983397 983397 30
Width: 500
VWidth: 0
Flags: MW
LayerCount: 2
Back
Fore
SplineSet
93 568 m 1
 90 564 103 577 110 578 c 0
 117 577 140 554 146 544 c 0
 152 536 157 525 166 510 c 0
 188 471 207 421 219 370 c 2
 222 355 l 2
 221 345 220 336 216 324 c 1
 206 314 l 2
 203 312 196 305 188 303 c 1
 189 303 185 302 176 303 c 2
 160 308 l 1
 151 321 l 2
 145 332 144 337 143 343 c 0
 140 369 132 404 126 432 c 0
 120 460 112 486 97 530 c 0
 93 542 92 566 93 568 c 1
94 -83 m 1
 95 -82 103 -75 113 -65 c 0
 127 -51 135 -44 148 -28 c 0
 161 -11 167 -3 181 17 c 0
 195 37 198 44 211 68 c 0
 251 145 284 238 309 348 c 0
 321 401 333 467 341 524 c 2
 346 562 l 1
 344 585 l 2
 342 599 341 610 341 612 c 0
 345 624 356 628 356 628 c 2
 359 628 372 622 384 616 c 0
 395 610 410 603 417 600 c 0
 426 596 429 592 424 593 c 1
 436 587 434 559 428 545 c 2
 419 521 l 1
 415 496 l 2
 413 482 406 446 400 421 c 0
 386 357 372 303 354 244 c 0
 342 206 340 197 326 162 c 0
 313 129 307 120 293 93 c 0
 279 68 276 56 261 32 c 0
 246 8 243 3 224 -21 c 0
 204 -45 200 -48 182 -65 c 1
 137 -89 140 -84 133 -104 c 1
 103 -118 l 1
 91 -105 l 1
 90 -87 98 -81 94 -83 c 1
EndSplineSet
Comment: "Kage: aj1-00357+AAoA-Alias: uf0165"
EndChar
StartChar: uF0166
Encoding: 983398 983398 31
Width: 500
VWidth: 0
Flags: MW
LayerCount: 2
Back
Fore
SplineSet
74 -139 m 0
 75 -121 81 -116 82 -115 c 0
 84 -115 89 -110 100 -100 c 0
 119 -85 120 -83 139 -61 c 0
 156 -42 159 -38 175 -14 c 0
 190 8 193 14 207 40 c 0
 220 63 223 73 234 101 c 0
 244 124 251 141 256 156 c 1
 266 165 l 1
 273 159 l 1
 259 159 l 1
 247 169 244 173 238 180 c 2
 234 194 l 2
 228 216 220 233 210 256 c 0
 201 275 191 296 184 304 c 2
 175 319 l 1
 178 327 178 330 191 343 c 1
 215 333 l 2
 238 320 251 310 269 288 c 0
 279 274 290 257 301 239 c 0
 303 235 300 236 293 238 c 0
 284 235 283 240 287 255 c 0
 303 314 320 396 329 460 c 1
 337 476 l 1
 341 471 l 2
 337 471 312 468 284 464 c 2
 241 461 l 1
 238 445 l 1
 206 347 164 261 120 206 c 1
 97 187 l 1
 82 195 81 197 76 205 c 1
 85 231 l 1
 107 277 128 329 147 384 c 0
 167 441 189 535 203 611 c 2
 206 624 l 1
 205 644 l 2
 204 656 204 669 204 672 c 0
 204 678 212 690 220 692 c 0
 225 691 298 646 300 638 c 0
 300 634 277 583 274 577 c 1
 274 577 273 570 271 560 c 0
 269 550 264 534 262 527 c 0
 260 521 257 527 251 531 c 1
 252 530 314 532 332 533 c 2
 344 532 l 1
 351 542 l 2
 358 550 370 559 375 560 c 0
 383 559 434 493 424 479 c 0
 423 479 420 476 413 472 c 2
 407 470 l 1
 405 447 l 2
 398 405 385 345 373 299 c 0
 351 211 324 140 291 72 c 0
 277 42 273 35 257 7 c 0
 240 -21 237 -26 217 -51 c 2
 195 -79 l 2
 180 -94 164 -107 149 -122 c 1
 124 -137 l 2
 110 -145 95 -153 90 -154 c 0
 78 -150 74 -139 74 -139 c 0
EndSplineSet
Comment: "Kage: aj1-00358+AAoA-Alias: uf0166"
EndChar
StartChar: uF0167
Encoding: 983399 983399 32
Width: 500
VWidth: 0
Flags: MW
LayerCount: 2
Back
Fore
SplineSet
70 323 m 1
 70 323 77 323 84 319 c 2
 87 316 l 1
 129 317 l 2
 184 317 220 318 237 322 c 1
 240 319 l 1
 237 333 l 2
 237 346 237 378 236 403 c 2
 235 446 l 1
 232 458 l 2
 230 465 230 484 242 490 c 1
 257 477 245 461 244 460 c 0
 202 439 147 424 104 421 c 1
 81 423 l 1
 73 434 l 2
 72 442 75 454 88 461 c 0
 132 480 151 487 177 502 c 0
 215 523 262 556 297 590 c 1
 338 609 317 585 327 628 c 0
 334 641 346 656 353 658 c 0
 361 656 403 585 409 578 c 1
 403 559 346 523 340 521 c 1
 340 521 337 518 334 516 c 0
 324 508 301 491 287 483 c 0
 281 479 282 492 273 502 c 1
 276 500 317 488 316 488 c 1
 322 483 322 459 319 445 c 2
 314 420 l 1
 313 393 l 2
 313 377 313 354 313 342 c 0
 313 329 308 330 297 335 c 0
 296 335 301 336 308 338 c 0
 318 341 328 343 346 350 c 2
 377 361 l 1
 398 349 409 337 424 326 c 1
 428 317 l 2
 429 315 432 310 434 304 c 0
 436 299 432 300 424 303 c 1
 439 289 396 270 361 268 c 2
 307 268 l 1
 311 274 l 2
 311 271 309 252 307 231 c 0
 305 200 303 182 299 153 c 0
 294 119 293 113 287 84 c 0
 280 52 278 48 269 21 c 0
 260 -6 258 -10 248 -31 c 0
 237 -54 232 -58 220 -76 c 0
 207 -95 205 -99 189 -116 c 0
 175 -131 170 -136 153 -149 c 0
 143 -157 138 -147 124 -137 c 1
 111 -144 110 -157 109 -156 c 0
 106 -150 106 -138 110 -132 c 0
 111 -131 117 -125 125 -115 c 0
 135 -102 145 -92 153 -80 c 0
 179 -41 196 -5 210 45 c 0
 216 66 216 74 221 100 c 0
 228 146 233 183 235 233 c 0
 236 254 237 272 237 273 c 0
 241 286 267 276 227 258 c 1
 207 257 188 256 150 250 c 2
 101 243 l 1
 96 240 l 2
 92 238 96 254 68 255 c 1
 68 243 58 318 70 323 c 1
EndSplineSet
Comment: "Kage: aj1-00359+AAoA-Alias: uf0167"
EndChar
StartChar: uF0168
Encoding: 983400 983400 33
Width: 500
VWidth: 0
Flags: MW
LayerCount: 2
Back
Fore
SplineSet
62 529 m 1
 69 540 l 2
 73 544 81 547 84 547 c 0
 92 545 102 534 110 526 c 0
 130 502 147 473 162 430 c 0
 168 412 183 359 183 350 c 0
 183 348 182 341 181 335 c 2
 177 320 l 1
 170 313 164 308 153 300 c 1
 138 300 l 2
 132 302 130 303 132 303 c 1
 125 304 114 314 111 321 c 2
 105 332 l 1
 105 346 l 2
 104 359 99 389 96 406 c 0
 90 442 77 491 67 511 c 2
 62 529 l 1
115 -84 m 2
 115 -84 118 -80 128 -69 c 0
 161 -33 193 16 223 72 c 0
 251 124 280 193 302 265 c 0
 325 339 347 435 362 519 c 2
 369 556 l 1
 368 579 l 2
 367 593 366 604 366 606 c 0
 370 618 382 622 382 622 c 2
 386 622 456 583 454 584 c 1
 461 579 445 522 442 514 c 0
 441 512 438 503 435 489 c 0
 428 451 407 375 393 325 c 0
 368 240 339 166 306 99 c 0
 292 71 288 62 272 35 c 0
 256 9 250 1 234 -21 c 0
 218 -42 211 -50 195 -66 c 0
 178 -83 173 -88 154 -102 c 0
 143 -111 138 -102 109 -107 c 1
 114 -119 105 -96 115 -84 c 2
175 602 m 1
 181 612 184 614 195 620 c 1
 209 614 l 1
 216 606 232 590 236 584 c 0
 261 549 282 500 294 444 c 1
 296 428 l 2
 294 419 294 413 290 399 c 1
 280 388 l 2
 276 385 268 378 261 377 c 0
 258 377 253 378 249 379 c 2
 235 384 l 1
 225 397 l 2
 221 404 218 413 218 417 c 0
 218 420 215 442 213 455 c 0
 211 473 205 501 201 516 c 0
 195 539 186 571 180 584 c 2
 175 602 l 1
EndSplineSet
Comment: "Kage: aj1-00360+AAoA-Alias: uf0168"
EndChar
StartChar: uF0169
Encoding: 983401 983401 34
Width: 500
VWidth: 0
Flags: MW
LayerCount: 2
Back
Fore
SplineSet
70 398 m 1
 70 398 78 397 84 394 c 2
 87 392 l 1
 130 392 l 2
 170 392 180 392 207 394 c 2
 238 396 l 1
 270 403 300 410 332 417 c 1
 352 426 l 2
 365 431 378 435 381 435 c 0
 388 434 398 427 410 419 c 2
 432 401 l 1
 436 390 l 2
 438 387 439 381 441 378 c 0
 443 373 440 376 431 379 c 1
 446 365 380 344 316 340 c 2
 200 331 l 2
 166 327 131 321 99 318 c 1
 96 316 l 2
 93 314 96 329 68 330 c 1
 68 318 58 393 70 398 c 1
92 -129 m 1
 92 -129 99 -117 106 -105 c 0
 152 -36 184 41 203 115 c 0
 211 148 217 180 221 210 c 0
 224 239 229 281 229 295 c 2
 229 303 l 1
 224 318 l 2
 221 329 218 339 218 342 c 0
 218 343 225 357 244 355 c 1
 234 352 l 1
 229 342 229 343 233 356 c 1
 267 360 l 2
 281 361 292 361 292 361 c 1
 303 356 305 325 304 327 c 1
 307 320 308 299 305 291 c 1
 305 292 306 290 305 285 c 0
 303 261 297 220 293 197 c 0
 284 145 266 87 248 42 c 0
 219 -27 182 -85 139 -132 c 0
 130 -142 119 -155 111 -157 c 0
 102 -155 90 -134 92 -129 c 1
128 617 m 1
 128 617 135 616 142 612 c 2
 144 610 l 1
 158 611 176 611 192 611 c 0
 216 617 243 622 268 628 c 2
 289 636 l 2
 301 641 314 647 317 647 c 0
 322 646 363 617 365 615 c 0
 368 611 370 605 371 602 c 0
 372 599 374 594 376 589 c 0
 378 585 374 587 366 589 c 1
 381 575 341 556 311 554 c 0
 253 550 251 551 204 543 c 2
 156 537 l 1
 153 535 l 2
 151 534 154 549 126 549 c 1
 126 537 116 612 128 617 c 1
EndSplineSet
Comment: "Kage: aj1-00361+AAoA-Alias: uf0169"
EndChar
StartChar: uF016A
Encoding: 983402 983402 35
Width: 500
VWidth: 0
Flags: MW
LayerCount: 2
Back
Fore
SplineSet
155 -19 m 1
 160 -5 164 6 167 13 c 0
 167 224 167 438 167 650 c 1
 161 675 l 2
 158 690 155 702 155 707 c 2
 165 725 l 1
 200 700 l 1
 214 683 221 676 230 669 c 0
 245 656 259 632 253 620 c 0
 252 619 249 617 247 615 c 2
 246 615 l 1
 247 483 l 1
 246 352 l 1
 240 358 l 1
 287 349 337 310 380 244 c 2
 389 229 l 1
 391 217 391 209 392 198 c 1
 388 188 384 180 376 169 c 1
 365 166 358 162 344 161 c 1
 331 170 l 2
 320 180 318 185 314 193 c 0
 296 231 278 261 256 284 c 0
 248 292 228 313 217 327 c 1
 243 338 247 230 247 111 c 2
 246 -111 l 1
 237 -122 l 2
 231 -128 226 -132 217 -135 c 2
 203 -138 l 1
 189 -125 l 2
 180 -113 179 -110 174 -99 c 1
 185 -93 183 -94 161 -52 c 1
 155 -19 l 1
EndSplineSet
Comment: "Kage: aj1-00362+AAoA-Alias: uf016a"
EndChar
StartChar: uF016B
Encoding: 983403 983403 36
Width: 500
VWidth: 0
Flags: MW
LayerCount: 2
Back
Fore
SplineSet
236 697 m 0
 240 697 307 674 307 674 c 1
 308 674 319 670 323 658 c 0
 323 655 320 643 317 630 c 2
 311 608 l 1
 310 552 l 2
 310 520 309 473 308 448 c 0
 307 423 303 415 292 419 c 1
 292 419 300 419 309 422 c 0
 326 426 331 427 353 436 c 2
 384 446 l 1
 409 429 l 2
 418 422 428 417 430 415 c 0
 433 411 435 403 436 401 c 0
 437 398 439 393 441 388 c 0
 442 384 438 387 431 389 c 1
 446 375 399 356 361 353 c 0
 304 349 302 353 306 362 c 1
 306 361 305 340 303 315 c 0
 301 282 299 257 296 223 c 0
 292 181 292 174 286 136 c 0
 280 97 278 93 270 61 c 2
 261 28 l 2
 253 7 246 -10 237 -31 c 2
 222 -56 l 1
 208 -65 209 -66 188 -102 c 1
 173 -119 172 -122 149 -141 c 0
 137 -152 131 -143 102 -147 c 1
 108 -160 98 -144 102 -129 c 0
 106 -126 109 -120 119 -108 c 0
 133 -91 139 -85 151 -68 c 0
 164 -49 166 -44 176 -25 c 0
 192 4 192 4 195 23 c 0
 203 49 203 51 209 79 c 0
 215 106 216 114 220 148 c 0
 224 181 226 193 228 231 c 0
 230 256 230 289 231 307 c 0
 231 325 233 345 233 350 c 1
 238 349 l 1
 223 343 l 1
 204 342 184 341 146 335 c 2
 97 328 l 1
 94 325 l 2
 90 323 93 338 66 342 c 1
 64 331 55 403 68 408 c 1
 68 408 74 408 81 404 c 2
 84 401 l 1
 128 401 l 2
 169 399 172 401 210 404 c 0
 228 405 245 408 244 408 c 0
 237 402 234 396 233 512 c 2
 233 629 l 1
 226 651 l 2
 223 665 223 691 235 697 c 1
 235 697 235 697 236 697 c 0
EndSplineSet
Comment: "Kage: aj1-00363+AAoA-Alias: uf016b"
EndChar
StartChar: uF016C
Encoding: 983404 983404 37
Width: 500
VWidth: 0
Flags: MW
LayerCount: 2
Back
Fore
SplineSet
72 124 m 0
 74 124 82 122 88 118 c 2
 89 116 l 1
 133 117 l 2
 176 117 186 116 209 118 c 2
 237 120 l 1
 269 127 302 135 334 142 c 1
 354 151 l 2
 368 156 382 160 384 160 c 0
 387 160 402 153 413 145 c 2
 435 127 l 1
 438 116 l 2
 440 113 441 107 443 104 c 0
 446 98 442 101 433 104 c 1
 448 90 382 70 317 65 c 2
 199 56 l 2
 166 52 132 46 101 43 c 1
 98 41 l 2
 95 39 98 54 70 55 c 1
 70 43 60 119 72 124 c 0
119 476 m 0
 125 477 133 476 140 472 c 2
 142 470 l 1
 156 471 174 471 190 471 c 2
 225 480 l 1
 276 486 275 486 283 496 c 1
 297 501 311 505 314 505 c 0
 319 505 332 498 343 490 c 2
 364 473 l 1
 369 460 l 2
 371 454 371 449 372 449 c 0
 374 445 372 447 364 449 c 1
 379 435 341 417 312 415 c 0
 258 411 256 412 206 404 c 2
 155 397 l 1
 153 395 l 2
 147 391 128 391 122 401 c 0
 121 401 109 465 119 476 c 0
EndSplineSet
Comment: "Kage: aj1-00364+AAoA-Alias: uf016c"
EndChar
StartChar: uF016D
Encoding: 983405 983405 38
Width: 500
VWidth: 0
Flags: MW
LayerCount: 2
Back
Fore
SplineSet
59 -110 m 1
 81 -81 l 1
 142 -10 193 81 232 189 c 0
 238 207 245 225 245 224 c 2
 245 220 l 1
 238 232 l 2
 215 268 199 289 167 327 c 2
 141 361 l 1
 144 369 144 373 157 386 c 1
 183 375 l 1
 202 363 220 349 238 332 c 0
 251 320 275 294 283 284 c 0
 283 283 278 285 268 284 c 0
 264 281 287 367 298 418 c 0
 305 452 319 523 323 537 c 1
 349 527 316 510 294 508 c 0
 255 505 248 505 202 499 c 2
 154 492 l 1
 151 490 l 2
 147 488 128 486 121 496 c 0
 120 497 112 567 125 572 c 0
 127 572 135 570 139 567 c 2
 142 566 l 1
 186 566 l 2
 232 566 234 566 285 570 c 2
 332 571 l 1
 339 581 l 2
 345 588 356 598 363 599 c 0
 371 598 423 532 418 521 c 0
 416 519 392 505 396 510 c 0
 397 513 393 497 389 479 c 0
 373 401 347 305 327 249 c 0
 322 237 319 228 319 230 c 1
 319 229 314 239 308 243 c 1
 317 238 344 193 353 178 c 0
 368 151 386 116 396 92 c 2
 407 66 l 1
 407 51 l 1
 406 35 l 1
 400 25 396 19 387 8 c 1
 375 6 367 5 354 6 c 1
 343 15 341 19 335 26 c 2
 326 45 l 2
 316 70 303 107 295 124 c 0
 286 143 278 166 270 179 c 1
 298 187 294 162 288 149 c 0
 263 89 226 26 192 -22 c 0
 177 -43 172 -51 153 -71 c 0
 134 -92 127 -97 110 -112 c 0
 99 -122 94 -114 80 -105 c 1
 66 -114 68 -129 64 -125 c 2
 59 -110 l 1
EndSplineSet
Comment: "Kage: aj1-00365+AAoA-Alias: uf016d"
EndChar
StartChar: uF016E
Encoding: 983406 983406 39
Width: 500
VWidth: 0
Flags: MW
LayerCount: 2
Back
Fore
SplineSet
52 87 m 0
 52 87 56 91 63 99 c 0
 116 156 162 217 202 279 c 2
 212 292 l 2
 211 292 211 296 213 308 c 1
 221 314 226 318 228 319 c 2
 236 335 l 2
 250 361 266 390 278 415 c 0
 287 434 295 452 299 460 c 1
 325 450 295 433 275 432 c 0
 244 430 233 428 187 422 c 2
 139 416 l 1
 136 413 l 2
 130 409 135 424 106 428 c 1
 106 416 95 490 108 496 c 1
 108 496 116 495 124 491 c 1
 125 489 l 1
 168 489 l 2
 215 488 215 488 267 492 c 2
 314 494 l 1
 317 500 327 510 346 524 c 1
 372 501 388 484 406 453 c 1
 388 437 l 2
 384 436 378 431 373 428 c 2
 370 427 l 1
 363 413 l 2
 343 374 313 318 287 280 c 0
 279 267 272 272 259 280 c 1
 266 278 272 272 276 269 c 0
 282 264 289 257 292 253 c 2
 302 237 l 1
 294 223 289 217 288 217 c 1
 289 113 289 2 288 -114 c 1
 279 -125 l 2
 274 -130 269 -133 260 -137 c 2
 245 -138 l 1
 233 -127 l 2
 224 -115 223 -112 218 -102 c 0
 213 -74 214 -72 205 -55 c 1
 198 -21 l 1
 203 -6 208 6 211 13 c 2
 211 115 l 1
 220 206 l 1
 226 197 l 1
 183 144 136 98 89 65 c 0
 79 57 76 68 47 64 c 1
 53 51 42 75 52 87 c 0
180 674 m 1
 183 686 l 2
 186 689 191 695 199 697 c 0
 204 696 231 681 236 676 c 0
 252 662 268 638 282 611 c 0
 288 597 293 587 297 575 c 1
 283 576 285 548 299 542 c 1
 295 548 297 544 289 522 c 1
 277 508 l 1
 264 508 257 508 244 511 c 1
 234 524 l 2
 232 528 225 536 224 542 c 0
 218 574 213 593 206 615 c 0
 200 632 191 654 186 660 c 2
 180 674 l 1
276 239 m 1
 273 254 l 2
 275 259 284 272 295 272 c 0
 296 272 298 271 298 271 c 1
 321 270 339 264 361 248 c 0
 384 232 408 202 429 165 c 2
 437 149 l 1
 437 138 l 2
 437 135 438 129 438 126 c 1
 434 133 436 129 431 106 c 1
 425 111 427 105 402 87 c 1
 388 87 l 1
 376 97 l 1
 365 119 367 123 362 118 c 1
 348 152 335 176 320 198 c 0
 311 210 294 229 287 231 c 2
 276 239 l 1
EndSplineSet
Comment: "Kage: aj1-00366+AAoA-Alias: uf016e"
EndChar
StartChar: uF016F
Encoding: 983407 983407 40
Width: 500
VWidth: 0
Flags: MW
LayerCount: 2
Back
Fore
SplineSet
59 -106 m 1
 82 -72 l 1
 154 23 211 143 262 302 c 0
 286 377 309 468 327 557 c 2
 335 595 l 1
 335 609 l 2
 335 614 337 657 348 662 c 0
 353 661 423 620 425 618 c 0
 430 609 409 556 404 547 c 1
 404 548 402 537 399 522 c 0
 389 479 369 407 354 358 c 0
 328 270 297 191 264 123 c 0
 217 25 168 -46 111 -103 c 0
 100 -115 94 -109 80 -100 c 1
 66 -109 68 -124 64 -120 c 2
 59 -106 l 1
EndSplineSet
Comment: "Kage: aj1-00367+AAoA-Alias: uf016f"
EndChar
StartChar: uF0170
Encoding: 983408 983408 41
Width: 500
VWidth: 0
Flags: MW
LayerCount: 2
Back
Fore
SplineSet
35 41 m 1
 42 53 l 2
 48 63 56 86 69 119 c 0
 107 210 138 325 159 439 c 1
 163 456 l 1
 161 476 l 2
 160 489 161 501 161 503 c 1
 162 501 161 514 176 523 c 0
 181 522 250 483 248 484 c 1
 255 478 236 422 232 413 c 0
 231 412 230 399 226 384 c 0
 196 266 161 178 119 96 c 0
 107 73 87 41 72 20 c 1
 45 2 l 1
 35 26 l 1
 35 41 l 1
275 472 m 0
 274 480 288 496 295 497 c 0
 303 496 325 476 335 465 c 0
 383 409 428 299 458 163 c 2
 463 138 l 1
 462 123 l 2
 461 115 456 122 457 120 c 0
 453 100 435 85 429 84 c 0
 428 84 424 84 418 85 c 2
 404 88 l 1
 394 102 l 2
 393 106 387 112 386 119 c 1
 386 118 383 127 381 142 c 0
 363 247 337 340 307 406 c 0
 299 423 292 443 283 457 c 0
 280 462 275 470 275 472 c 0
EndSplineSet
Comment: "Kage: aj1-00368+AAoA-Alias: uf0170"
EndChar
StartChar: uF0171
Encoding: 983409 983409 42
Width: 500
VWidth: 0
Flags: MW
LayerCount: 2
Back
Fore
SplineSet
100 634 m 0
 101 642 110 651 116 652 c 0
 123 650 134 638 144 627 c 0
 158 610 164 603 174 595 c 0
 182 589 191 579 194 575 c 2
 203 560 l 1
 196 546 192 540 190 540 c 2
 191 415 l 1
 183 297 l 1
 171 299 l 2
 172 299 180 306 189 313 c 0
 238 351 274 384 309 424 c 1
 348 453 345 451 341 470 c 1
 347 483 359 501 367 503 c 0
 375 501 426 425 427 420 c 0
 425 412 370 369 363 365 c 0
 360 364 354 359 346 352 c 0
 327 335 310 321 287 305 c 0
 254 283 225 267 198 256 c 0
 190 252 179 248 176 248 c 1
 186 253 191 241 191 161 c 0
 187 38 187 40 194 39 c 1
 198 28 202 20 206 18 c 0
 209 15 222 14 238 12 c 0
 247 11 248 11 278 13 c 0
 311 15 319 17 361 26 c 2
 377 29 l 1
 387 26 393 24 404 19 c 1
 409 9 413 5 419 -9 c 1
 417 -21 416 -29 412 -42 c 1
 404 -49 399 -55 390 -61 c 1
 371 -65 l 2
 331 -74 324 -75 282 -78 c 0
 248 -80 241 -79 232 -79 c 0
 208 -78 184 -70 169 -62 c 0
 159 -57 138 -35 140 -27 c 1
 139 -36 137 -31 136 -26 c 1
 137 -31 136 -31 133 -24 c 0
 124 -8 119 7 115 27 c 2
 113 37 l 1
 113 219 112 399 112 577 c 1
 106 602 l 2
 103 616 100 630 100 634 c 0
EndSplineSet
Comment: "Kage: aj1-00369+AAoA-Alias: uf0171"
EndChar
StartChar: uF0172
Encoding: 983410 983410 43
Width: 500
VWidth: 0
Flags: MW
LayerCount: 2
Back
Fore
SplineSet
81 530 m 0
 87 543 105 543 110 540 c 2
 113 538 l 1
 141 538 175 539 208 538 c 0
 257 542 306 544 350 547 c 1
 358 557 l 2
 364 564 376 575 382 576 c 0
 389 575 433 522 427 523 c 1
 442 511 428 492 422 489 c 0
 417 487 415 487 417 493 c 1
 417 491 414 475 411 457 c 0
 404 410 390 346 376 295 c 0
 354 212 332 151 301 85 c 0
 281 42 261 11 235 -25 c 0
 219 -47 214 -53 196 -72 c 0
 177 -92 172 -96 153 -111 c 0
 142 -120 129 -130 123 -131 c 0
 122 -131 112 -128 106 -119 c 0
 105 -117 106 -99 118 -93 c 1
 113 -94 117 -89 126 -78 c 0
 172 -27 211 39 245 117 c 0
 278 192 305 293 323 396 c 0
 329 427 340 499 344 513 c 1
 370 503 329 486 296 484 c 2
 237 480 l 2
 199 474 160 470 126 465 c 1
 124 463 l 2
 120 460 123 474 108 486 c 1
 96 480 81 527 81 530 c 0
EndSplineSet
Comment: "Kage: aj1-00370+AAoA-Alias: uf0172"
EndChar
StartChar: uF0173
Encoding: 983411 983411 44
Width: 500
VWidth: 0
Flags: MW
LayerCount: 2
Back
Fore
SplineSet
153 488 m 1
 155 496 183 516 188 517 c 0
 192 517 200 514 206 511 c 2
 219 506 l 1
 234 492 l 2
 244 482 248 475 257 463 c 0
 284 424 312 372 373 251 c 0
 392 212 431 138 449 103 c 1
 438 98 441 99 459 77 c 0
 460 69 459 62 459 62 c 1
 459 57 450 39 447 50 c 1
 449 46 434 25 427 23 c 2
 412 22 l 1
 402 29 397 31 388 40 c 2
 370 77 l 2
 351 117 328 163 302 220 c 0
 236 361 210 417 189 445 c 0
 181 456 186 453 185 453 c 0
 183 453 191 455 190 445 c 0
 186 436 180 418 176 407 c 0
 172 396 162 367 154 342 c 0
 140 298 125 258 116 235 c 2
 113 224 l 1
 111 207 l 2
 110 196 108 187 108 185 c 0
 108 182 104 169 92 165 c 0
 90 165 58 169 51 170 c 2
 38 177 l 1
 35 203 35 221 35 241 c 1
 41 254 l 2
 46 265 67 316 77 341 c 0
 119 447 137 479 154 494 c 0
 155 495 154 491 153 488 c 1
EndSplineSet
Comment: "Kage: aj1-00371+AAoA-Alias: uf0173"
EndChar
StartChar: uF0174
Encoding: 983412 983412 45
Width: 500
VWidth: 0
Flags: MW
LayerCount: 2
Back
Fore
SplineSet
45 24 m 1
 50 38 l 2
 52 49 54 54 58 59 c 0
 80 91 94 119 116 175 c 0
 123 195 141 248 150 279 c 0
 152 282 152 287 154 291 c 2
 162 302 l 1
 177 305 l 2
 182 303 181 303 178 303 c 1
 189 298 189 249 187 233 c 0
 177 151 150 62 121 10 c 2
 114 -4 l 1
 106 -9 101 -13 87 -19 c 1
 75 -16 69 -14 57 -8 c 1
 52 4 48 11 45 24 c 1
70 443 m 1
 70 443 77 442 84 438 c 2
 87 436 l 1
 128 436 l 2
 165 436 178 437 199 438 c 1
 215 435 l 1
 211 498 211 570 211 641 c 1
 205 667 l 2
 202 681 198 696 198 700 c 2
 208 718 l 1
 243 693 l 1
 257 676 263 669 272 662 c 0
 280 656 290 646 293 642 c 2
 302 625 l 1
 294 611 289 606 288 607 c 1
 289 553 289 494 282 447 c 1
 273 450 l 2
 276 450 287 453 301 456 c 0
 328 462 330 462 350 470 c 2
 382 481 l 1
 402 469 413 460 429 448 c 1
 433 438 l 2
 434 435 436 428 438 424 c 0
 440 419 436 420 428 423 c 1
 443 409 394 390 352 387 c 2
 285 387 l 1
 289 235 289 75 289 -90 c 1
 282 -104 l 2
 277 -114 273 -118 266 -124 c 0
 263 -127 263 -113 249 -104 c 1
 235 -114 218 -115 192 -97 c 2
 141 -59 l 1
 139 -46 l 1
 143 -30 154 -26 159 -26 c 0
 162 -27 225 -39 225 -39 c 0
 214 -43 211 47 211 170 c 2
 216 382 l 1
 215 377 l 1
 209 377 181 374 151 370 c 2
 101 363 l 1
 96 360 l 2
 92 358 96 374 68 375 c 1
 68 363 58 438 70 443 c 1
290 290 m 1
 297 301 l 2
 301 305 309 308 312 308 c 0
 319 307 333 293 342 283 c 0
 367 255 392 211 414 158 c 0
 425 131 433 105 443 71 c 2
 448 54 l 2
 447 44 447 36 445 23 c 1
 435 11 l 1
 426 23 403 8 405 -1 c 1
 391 1 l 1
 381 13 378 18 373 26 c 2
 368 47 l 2
 352 122 334 178 303 253 c 2
 290 290 l 1
EndSplineSet
Comment: "Kage: aj1-00372+AAoA-Alias: uf0174"
EndChar
StartChar: uF0175
Encoding: 983413 983413 46
Width: 500
VWidth: 0
Flags: MW
LayerCount: 2
Back
Fore
SplineSet
68 488 m 1
 68 488 74 488 81 484 c 2
 84 481 l 1
 111 482 142 482 173 482 c 2
 279 489 l 1
 380 495 l 1
 387 504 l 2
 394 512 406 521 411 522 c 0
 419 520 432 505 444 491 c 2
 471 453 l 1
 454 436 442 430 436 427 c 1
 435 423 l 2
 421 389 393 333 372 297 c 0
 345 250 307 193 277 158 c 1
 274 158 l 1
 277 157 l 1
 296 121 314 86 330 43 c 2
 336 23 l 2
 336 12 335 5 334 -7 c 1
 328 -15 324 -24 314 -34 c 1
 297 -35 l 1
 281 -32 l 1
 273 -24 269 -20 263 -12 c 2
 257 8 l 2
 255 16 249 30 246 42 c 0
 220 120 196 171 152 241 c 1
 133 278 l 1
 138 288 141 291 153 298 c 1
 174 287 l 1
 201 267 226 237 252 198 c 0
 258 190 257 189 251 190 c 0
 245 188 287 274 299 299 c 0
 317 337 332 371 343 398 c 0
 349 414 363 451 367 460 c 1
 393 450 339 431 289 428 c 2
 200 421 l 2
 166 417 129 411 97 408 c 1
 94 405 l 2
 90 403 93 418 66 422 c 1
 64 411 55 483 68 488 c 1
EndSplineSet
Comment: "Kage: aj1-00373+AAoA-Alias: uf0175"
EndChar
StartChar: uF0176
Encoding: 983414 983414 47
Width: 500
VWidth: 0
Flags: MW
LayerCount: 2
Back
Fore
SplineSet
116 115 m 0
 106 127 109 138 110 141 c 1
 110 137 111 147 125 154 c 0
 127 154 138 152 145 149 c 0
 178 139 218 118 249 93 c 0
 288 62 328 18 359 -27 c 1
 370 -47 l 1
 373 -58 l 2
 374 -64 375 -71 375 -73 c 0
 375 -77 359 -108 335 -95 c 1
 365 -92 351 -111 345 -112 c 2
 330 -116 l 1
 316 -109 313 -105 305 -99 c 2
 295 -81 l 2
 284 -63 274 -46 263 -31 c 0
 253 -18 230 13 223 21 c 0
 209 36 186 60 165 78 c 0
 155 87 117 115 116 115 c 0
146 384 m 1
 144 377 155 400 164 402 c 2
 164 402 168 402 175 401 c 0
 195 398 220 388 239 376 c 0
 274 354 309 313 334 269 c 2
 342 254 l 1
 343 239 l 1
 331 240 324 215 335 207 c 1
 327 195 l 1
 315 192 308 190 296 189 c 1
 283 198 l 1
 271 221 272 224 267 220 c 1
 253 252 237 281 217 306 c 0
 205 321 184 341 163 357 c 0
 157 362 146 383 146 384 c 1
170 602 m 1
 168 616 l 2
 169 620 175 633 189 635 c 1
 188 635 194 635 199 634 c 0
 231 632 269 617 297 595 c 0
 320 577 341 550 359 520 c 2
 366 507 l 2
 368 495 368 487 369 475 c 1
 363 465 360 458 351 447 c 1
 340 444 333 442 320 441 c 1
 307 450 l 1
 295 473 296 476 291 472 c 1
 268 527 237 564 185 592 c 1
 170 602 l 1
EndSplineSet
Comment: "Kage: aj1-00374+AAoA-Alias: uf0176"
EndChar
StartChar: uF0177
Encoding: 983415 983415 48
Width: 500
VWidth: 0
Flags: MW
LayerCount: 2
Back
Fore
SplineSet
66 27 m 0
 68 27 93 21 92 21 c 0
 90 21 108 28 106 27 c 0
 100 22 108 47 114 68 c 0
 140 162 151 211 161 255 c 0
 186 363 207 471 222 570 c 2
 225 593 l 1
 224 614 l 2
 223 627 222 639 222 642 c 0
 222 644 226 657 237 661 c 0
 241 661 257 653 284 638 c 2
 318 615 l 1
 313 590 l 2
 310 581 304 570 302 564 c 0
 298 555 297 550 295 543 c 0
 292 524 280 465 273 432 c 0
 246 311 218 216 184 120 c 0
 172 85 154 41 142 16 c 1
 137 28 l 1
 135 35 l 1
 142 38 157 43 168 47 c 0
 199 58 227 68 261 80 c 0
 289 90 329 106 346 111 c 0
 349 111 354 115 348 111 c 0
 344 101 330 149 321 172 c 0
 316 185 291 251 282 274 c 0
 279 284 279 304 280 306 c 1
 276 301 289 315 296 316 c 0
 304 314 330 278 341 260 c 0
 361 227 386 178 404 132 c 0
 419 92 436 40 446 -3 c 2
 450 -25 l 1
 448 -36 447 -42 444 -55 c 1
 436 -62 431 -68 420 -76 c 1
 405 -76 l 2
 400 -75 381 -58 396 -44 c 1
 384 -51 380 -59 378 -55 c 2
 373 -45 l 1
 369 -28 l 2
 367 -10 366 4 360 30 c 0
 357 47 350 77 348 81 c 1
 355 72 360 66 342 56 c 0
 311 38 271 15 237 -2 c 0
 214 -14 151 -47 138 -53 c 2
 129 -56 l 1
 126 -63 l 2
 123 -68 115 -79 112 -80 c 0
 103 -82 90 -71 86 -62 c 0
 83 -56 74 -38 67 -24 c 0
 53 3 52 20 66 27 c 0
EndSplineSet
Comment: "Kage: aj1-00375+AAoA-Alias: uf0177"
EndChar
StartChar: uF0178
Encoding: 983416 983416 49
Width: 500
VWidth: 0
Flags: MW
LayerCount: 2
Back
Fore
SplineSet
47 -107 m 2
 43 -112 53 -99 63 -86 c 0
 96 -44 132 19 162 81 c 0
 182 122 203 168 221 220 c 0
 237 264 239 266 239 265 c 1
 238 268 236 271 231 279 c 0
 227 286 217 298 211 307 c 0
 198 325 167 361 151 378 c 0
 144 385 135 408 149 417 c 1
 143 416 139 413 138 411 c 2
 147 424 l 1
 174 416 l 1
 200 402 229 380 256 352 c 0
 262 345 271 336 275 330 c 0
 275 329 273 330 268 331 c 0
 261 328 283 417 297 479 c 0
 303 505 312 547 317 570 c 2
 325 610 l 1
 325 625 l 2
 325 631 329 672 340 676 c 0
 345 675 353 669 359 666 c 0
 366 662 382 652 392 646 c 0
 402 640 409 636 405 636 c 1
 418 629 413 602 407 588 c 2
 394 562 l 1
 389 536 l 2
 372 462 338 348 318 292 c 0
 313 279 312 282 310 286 c 1
 312 283 317 275 323 265 c 0
 342 235 361 198 379 155 c 2
 388 134 l 1
 388 120 l 1
 387 104 l 1
 381 93 376 87 368 77 c 1
 353 74 l 1
 337 74 l 1
 326 83 321 88 315 95 c 2
 306 119 l 2
 293 155 284 178 270 207 c 1
 279 210 l 1
 290 212 l 2
 288 208 282 192 276 178 c 0
 259 137 234 85 212 46 c 0
 174 -23 138 -73 94 -117 c 1
 60 -141 l 1
 48 -133 l 2
 44 -127 47 -107 47 -107 c 2
EndSplineSet
Comment: "Kage: aj1-00376+AAoA-Alias: uf0178"
EndChar
StartChar: uF0179
Encoding: 983417 983417 50
Width: 500
VWidth: 0
Flags: MW
LayerCount: 2
Back
Fore
SplineSet
62 317 m 1
 70 318 77 315 81 313 c 2
 84 312 l 1
 128 312 l 2
 154 312 180 312 186 313 c 1
 190 309 l 1
 186 371 186 443 192 503 c 1
 196 498 l 2
 191 498 177 496 163 494 c 2
 141 491 l 1
 137 488 l 2
 134 486 137 502 109 503 c 1
 109 491 98 565 111 571 c 1
 111 571 118 570 125 566 c 2
 127 564 l 1
 149 565 174 564 198 564 c 1
 226 571 255 577 284 584 c 2
 307 592 l 2
 320 597 332 602 335 602 c 0
 342 601 352 591 361 585 c 2
 384 570 l 1
 389 556 l 2
 391 551 393 545 394 542 c 0
 395 539 397 533 397 530 c 0
 393 519 362 513 317 510 c 2
 261 510 l 1
 265 447 265 375 259 314 c 1
 251 318 l 2
 254 318 270 322 292 328 c 2
 334 336 l 2
 349 341 364 350 389 357 c 1
 414 340 l 2
 424 333 434 325 435 324 c 0
 438 320 439 315 441 312 c 0
 444 305 444 299 445 298 c 0
 447 293 444 296 435 299 c 1
 450 285 395 266 344 262 c 2
 261 260 l 1
 265 168 l 1
 261 66 258 68 269 45 c 0
 273 31 278 23 284 21 c 0
 294 16 306 14 324 15 c 0
 337 16 347 17 368 23 c 2
 387 28 l 2
 395 26 400 26 414 22 c 1
 421 12 426 5 431 -6 c 1
 430 -19 l 1
 418 -46 412 -46 415 -50 c 1
 411 -41 411 -43 392 -63 c 1
 318 -85 260 -79 223 -44 c 0
 218 -39 215 -34 213 -30 c 0
 211 -26 209 -21 207 -19 c 0
 199 -4 193 12 189 33 c 2
 187 45 l 1
 187 157 l 1
 192 255 l 1
 200 251 l 2
 196 251 173 249 145 245 c 2
 97 238 l 1
 94 235 l 2
 89 232 94 247 65 250 c 1
 65 238 52 307 62 317 c 1
EndSplineSet
Comment: "Kage: aj1-00377+AAoA-Alias: uf0179"
EndChar
StartChar: uF017A
Encoding: 983418 983418 51
Width: 500
VWidth: 0
Flags: MW
LayerCount: 2
Back
Fore
SplineSet
63 335 m 0
 66 336 70 337 77 337 c 2
 81 336 l 1
 122 355 l 2
 167 375 183 381 181 375 c 1
 181 375 156 639 155 644 c 1
 159 638 154 649 171 664 c 0
 172 664 183 664 197 663 c 2
 226 660 l 1
 237 651 l 2
 240 648 237 648 233 649 c 1
 246 642 243 621 238 616 c 1
 236 616 l 1
 237 619 l 1
 239 602 257 408 250 414 c 1
 241 415 269 430 308 451 c 2
 373 484 l 2
 371 483 372 485 373 492 c 0
 384 506 392 514 411 528 c 1
 437 505 453 487 471 457 c 1
 454 441 445 436 439 433 c 1
 436 424 l 2
 430 409 412 359 402 334 c 0
 383 287 352 229 330 190 c 0
 325 182 321 191 308 198 c 1
 294 187 294 174 296 173 c 1
 289 178 298 226 312 269 c 0
 329 320 336 341 346 378 c 0
 354 407 371 426 388 427 c 1
 385 425 260 362 258 379 c 0
 258 379 271 268 283 147 c 0
 295 26 305 -74 305 -76 c 0
 304 -82 293 -96 278 -109 c 0
 266 -120 251 -131 245 -132 c 1
 229 -117 233 -106 229 -116 c 1
 229 -114 187 332 189 329 c 0
 196 326 197 323 160 300 c 2
 117 274 l 1
 114 270 l 2
 112 267 110 279 82 272 c 1
 89 259 53 322 63 335 c 0
EndSplineSet
Comment: "Kage: aj1-00378+AAoA-Alias: uf017a"
EndChar
StartChar: uF017B
Encoding: 983419 983419 52
Width: 500
VWidth: 0
Flags: MW
LayerCount: 2
Back
Fore
SplineSet
63 108 m 0
 65 108 74 106 78 103 c 2
 80 102 l 1
 123 101 l 2
 164 101 173 102 207 104 c 2
 237 103 l 1
 260 269 l 2
 276 365 289 443 289 443 c 0
 294 432 301 428 280 427 c 0
 261 426 242 424 204 418 c 2
 156 412 l 1
 153 410 l 2
 151 409 154 424 126 424 c 1
 126 412 116 487 128 492 c 1
 128 492 135 491 142 487 c 2
 144 485 l 1
 186 486 l 2
 229 486 236 486 269 488 c 2
 301 489 l 1
 308 499 l 2
 314 506 325 516 332 517 c 0
 339 516 390 457 387 461 c 1
 391 454 378 434 372 430 c 0
 364 424 362 437 360 442 c 1
 361 427 309 114 299 119 c 0
 298 119 305 120 315 123 c 0
 331 127 336 129 357 136 c 0
 370 141 383 146 387 146 c 0
 393 145 405 136 415 129 c 2
 436 112 l 1
 442 100 l 2
 445 92 444 88 444 89 c 1
 447 84 444 86 435 89 c 1
 450 75 381 54 314 49 c 2
 192 41 l 2
 159 37 123 31 93 28 c 1
 90 25 l 2
 84 21 89 36 60 40 c 1
 60 28 50 103 63 108 c 0
EndSplineSet
Comment: "Kage: aj1-00379+AAoA-Alias: uf017b"
EndChar
StartChar: uF017C
Encoding: 983420 983420 53
Width: 500
VWidth: 0
Flags: MW
LayerCount: 2
Back
Fore
SplineSet
305 293 m 2
 305 298 317 504 317 509 c 2
 322 501 l 1
 293 494 l 1
 255 491 248 491 199 483 c 2
 148 476 l 2
 146 474 142 472 125 468 c 1
 114 483 l 1
 111 498 103 538 103 541 c 0
 107 553 123 556 131 552 c 2
 134 551 l 1
 181 550 l 2
 238 549 238 548 282 553 c 2
 326 555 l 1
 334 566 l 2
 341 574 353 583 358 584 c 0
 364 583 379 567 391 553 c 0
 416 523 414 509 403 501 c 1
 404 502 403 499 395 495 c 2
 390 494 l 1
 392 494 l 1
 390 479 363 -61 357 -66 c 0
 357 -67 314 -80 300 -69 c 1
 290 -73 288 -17 289 -5 c 1
 294 -11 l 1
 272 -18 l 1
 242 -20 232 -21 182 -28 c 2
 128 -35 l 1
 125 -37 l 2
 122 -39 125 -25 111 -14 c 1
 99 -20 84 28 88 41 c 1
 99 45 105 45 112 41 c 2
 115 38 l 1
 160 39 l 2
 203 37 204 38 256 42 c 1
 295 41 l 1
 291 38 l 1
 292 47 303 253 303 257 c 2
 308 250 l 1
 287 244 l 1
 261 242 249 239 202 233 c 2
 150 227 l 2
 149 226 145 223 125 219 c 1
 117 234 l 2
 115 240 105 290 109 303 c 1
 121 307 130 305 135 302 c 2
 136 300 l 1
 184 300 l 2
 231 299 234 300 277 303 c 1
 309 301 l 1
 305 293 l 2
EndSplineSet
Comment: "Kage: aj1-00380+AAoA-Alias: uf017c"
EndChar
StartChar: uF017D
Encoding: 983421 983421 54
Width: 500
VWidth: 0
Flags: MW
LayerCount: 2
Back
Fore
SplineSet
94 415 m 1
 94 415 101 415 108 411 c 2
 111 408 l 1
 139 408 171 409 203 408 c 0
 256 412 307 415 355 417 c 1
 363 428 l 2
 369 435 381 446 387 447 c 0
 394 446 438 393 432 394 c 1
 446 384 433 362 426 358 c 0
 421 356 420 368 406 378 c 1
 418 372 418 346 415 330 c 0
 384 181 330 59 265 -24 c 0
 251 -41 246 -48 231 -64 c 0
 214 -81 208 -86 191 -98 c 0
 175 -109 170 -114 150 -124 c 0
 139 -130 137 -119 107 -122 c 1
 112 -134 104 -118 104 -114 c 0
 105 -107 118 -94 128 -86 c 0
 198 -29 252 53 291 164 c 0
 309 214 329 293 339 348 c 0
 341 360 343 371 343 374 c 2
 347 365 l 1
 315 355 267 351 221 348 c 0
 188 344 154 338 124 335 c 1
 121 332 l 2
 116 329 121 344 92 347 c 1
 92 335 82 410 94 415 c 1
140 618 m 1
 140 618 147 617 154 613 c 2
 156 611 l 1
 166 612 178 612 190 612 c 2
 225 620 l 2
 262 628 262 628 281 636 c 0
 295 641 309 645 311 645 c 0
 317 644 328 636 338 629 c 2
 361 611 l 1
 363 602 l 2
 364 600 367 594 369 589 c 0
 371 585 367 587 359 589 c 1
 374 575 340 556 315 554 c 0
 273 551 266 551 219 545 c 2
 170 538 l 1
 167 535 l 2
 163 533 166 549 138 550 c 1
 138 538 128 613 140 618 c 1
EndSplineSet
Comment: "Kage: aj1-00381+AAoA-Alias: uf017d"
EndChar
StartChar: uF017E
Encoding: 983422 983422 55
Width: 500
VWidth: 0
Flags: MW
LayerCount: 2
Back
Fore
SplineSet
117 264 m 1
 122 278 126 290 129 297 c 0
 129 389 129 485 129 578 c 1
 123 601 l 2
 120 615 117 630 117 634 c 0
 117 636 121 649 132 653 c 0
 138 652 152 638 162 627 c 0
 176 611 183 604 190 598 c 0
 201 589 218 568 215 571 c 1
 217 568 215 547 210 542 c 2
 207 541 l 1
 208 423 208 301 207 171 c 1
 199 161 l 2
 191 153 184 150 178 148 c 2
 165 145 l 1
 151 157 l 1
 143 180 143 182 136 182 c 1
 131 211 132 212 123 230 c 1
 117 264 l 1
134 -103 m 0
 134 -103 139 -98 149 -91 c 0
 173 -73 190 -58 206 -38 c 0
 233 -4 250 28 266 73 c 0
 281 116 291 166 295 222 c 2
 297 250 l 1
 297 373 297 497 297 619 c 1
 291 644 l 2
 288 659 285 671 285 676 c 2
 295 694 l 1
 330 669 l 1
 344 652 350 645 359 638 c 0
 374 626 389 604 378 588 c 1
 380 590 383 590 378 584 c 1
 376 584 l 1
 377 444 l 2
 376 273 375 262 369 214 c 0
 366 189 365 178 360 153 c 0
 355 127 352 120 345 96 c 0
 338 72 335 63 327 43 c 0
 317 21 314 16 304 -3 c 0
 293 -23 289 -29 276 -46 c 0
 262 -64 257 -69 243 -82 c 0
 229 -95 225 -99 208 -110 c 0
 192 -120 189 -123 169 -132 c 0
 157 -138 158 -124 128 -125 c 1
 134 -138 124 -115 134 -103 c 0
EndSplineSet
Comment: "Kage: aj1-00382+AAoA-Alias: uf017e"
EndChar
StartChar: uF017F
Encoding: 983423 983423 56
Width: 500
VWidth: 0
Flags: MW
LayerCount: 2
Back
Fore
SplineSet
35 -44 m 2
 42 -27 l 2
 70 40 94 125 109 201 c 0
 123 274 135 359 140 431 c 2
 141 453 l 1
 137 478 l 2
 135 492 137 517 148 522 c 0
 152 521 165 515 176 510 c 0
 188 505 204 499 211 496 c 0
 218 493 231 484 233 475 c 0
 233 472 218 425 216 419 c 1
 216 420 216 415 215 410 c 0
 213 392 204 331 199 302 c 0
 173 153 129 25 74 -62 c 1
 46 -85 l 1
 35 -63 35 -55 35 -44 c 2
213 631 m 2
 223 650 l 1
 258 624 l 1
 272 607 277 600 285 594 c 0
 296 585 314 565 311 568 c 1
 313 565 310 544 306 540 c 2
 304 539 l 1
 305 392 305 241 296 103 c 1
 280 101 l 2
 281 102 301 128 313 147 c 0
 342 191 370 243 396 301 c 0
 415 343 422 360 431 382 c 0
 437 394 440 399 440 399 c 0
 450 412 477 401 477 390 c 1
 477 390 474 377 471 365 c 0
 454 292 425 216 390 143 c 0
 369 100 334 43 308 9 c 2
 304 3 l 2
 305 -2 305 -12 304 -27 c 1
 294 -38 l 2
 288 -43 280 -50 272 -52 c 0
 263 -54 253 -48 247 -41 c 0
 239 -18 239 -16 232 -16 c 1
 225 0 l 1
 223 22 221 44 219 66 c 0
 221 78 223 87 225 96 c 0
 225 255 225 416 225 574 c 1
 219 598 l 2
 216 614 213 626 213 631 c 2
EndSplineSet
Comment: "Kage: aj1-00383+AAoA-Alias: uf017f"
EndChar
StartChar: uF0180
Encoding: 983424 983424 57
Width: 500
VWidth: 0
Flags: MW
LayerCount: 2
Back
Fore
SplineSet
103 623 m 2
 113 642 l 1
 148 616 l 1
 163 598 168 591 177 584 c 0
 189 574 207 550 205 555 c 2
 205 555 198 534 195 531 c 2
 192 530 l 1
 193 277 l 2
 193 135 190 29 179 33 c 0
 173 32 174 35 182 43 c 0
 231 94 282 162 325 245 c 0
 348 290 378 356 402 415 c 0
 408 431 420 453 428 455 c 0
 430 455 448 448 447 448 c 1
 448 447 446 417 441 399 c 0
 405 268 357 156 292 59 c 0
 283 45 268 26 261 16 c 0
 245 -6 217 -37 200 -53 c 2
 192 -60 l 2
 193 -63 193 -71 192 -86 c 1
 181 -97 l 2
 178 -99 174 -104 164 -108 c 2
 150 -110 l 1
 137 -99 l 2
 128 -87 127 -84 122 -73 c 2
 115 -56 l 1
 113 -34 111 -14 109 8 c 0
 111 20 113 30 115 39 c 0
 115 214 115 392 115 566 c 1
 109 588 l 2
 105 605 103 618 103 623 c 2
EndSplineSet
Comment: "Kage: aj1-00384+AAoA-Alias: uf0180"
EndChar
StartChar: uF0181
Encoding: 983425 983425 58
Width: 500
VWidth: 0
Flags: MW
LayerCount: 2
Back
Fore
SplineSet
443 463 m 1
 415 436 l 2
 417 440 371 40 374 36 c 0
 368 17 302 -8 299 16 c 0
 300 16 299 49 300 54 c 2
 305 45 l 1
 284 38 l 1
 258 36 244 34 210 30 c 0
 187 26 163 23 162 23 c 2
 168 28 l 1
 171 17 l 2
 171 6 171 -4 171 -4 c 2
 171 -13 l 1
 142 -39 l 2
 129 -49 124 -40 96 -39 c 1
 95 -50 76 451 74 485 c 0
 74 493 78 505 90 509 c 0
 94 509 108 502 118 497 c 2
 133 490 l 1
 156 490 185 489 210 489 c 2
 284 494 l 1
 353 497 l 1
 357 504 366 511 384 526 c 1
 418 495 l 2
 430 481 435 473 443 463 c 1
152 422 m 1
 156 424 l 1
 156 418 160 340 163 248 c 2
 163 91 l 1
 188 95 l 1
 219 95 229 95 270 98 c 2
 307 97 l 1
 303 92 l 2
 305 102 342 448 343 454 c 2
 346 444 l 1
 293 433 l 1
 230 429 225 428 185 422 c 1
 152 422 l 1
EndSplineSet
Comment: "Kage: aj1-00385+AAoA-Alias: uf0181"
EndChar
StartChar: uF0182
Encoding: 983426 983426 59
Width: 500
VWidth: 0
Flags: MW
LayerCount: 2
Back
Fore
SplineSet
76 564 m 0
 76 566 80 579 91 583 c 0
 97 582 111 568 121 557 c 2
 135 538 l 1
 161 539 192 540 225 539 c 0
 267 542 311 545 348 546 c 1
 356 557 l 2
 362 564 374 575 380 576 c 0
 387 575 430 522 424 523 c 1
 439 512 413 488 411 505 c 1
 411 505 414 476 412 458 c 0
 403 375 387 292 366 219 c 0
 356 186 353 176 342 146 c 0
 331 115 325 106 314 81 c 0
 302 55 297 45 284 22 c 0
 269 -2 265 -7 248 -30 c 0
 229 -55 227 -59 207 -79 c 0
 189 -97 183 -102 163 -117 c 0
 151 -126 138 -135 117 -121 c 1
 118 -115 118 -128 115 -123 c 2
 113 -111 l 1
 136 -83 l 2
 151 -67 159 -59 172 -42 c 0
 231 34 269 122 299 240 c 0
 316 305 329 390 335 464 c 0
 337 482 338 498 338 501 c 2
 342 493 l 1
 305 485 l 1
 258 482 252 481 207 475 c 2
 165 470 l 2
 167 471 165 468 166 471 c 2
 167 353 l 1
 166 223 l 1
 156 212 l 2
 152 209 148 204 140 200 c 2
 125 196 l 1
 110 209 l 1
 102 232 102 234 95 234 c 1
 90 263 91 264 82 282 c 1
 76 316 l 1
 81 330 85 342 88 349 c 0
 88 400 88 455 88 507 c 1
 82 531 l 2
 79 546 76 560 76 564 c 0
EndSplineSet
Comment: "Kage: aj1-00386+AAoA-Alias: uf0182"
EndChar
StartChar: uF0183
Encoding: 983427 983427 60
Width: 500
VWidth: 0
Flags: MW
LayerCount: 2
Back
Fore
SplineSet
69 -30 m 1
 66 -30 73 -26 84 -22 c 2
 101 -16 l 1
 114 -6 l 2
 134 10 164 41 185 64 c 0
 195 75 210 94 220 107 c 0
 288 194 348 306 398 446 c 0
 404 463 409 481 411 484 c 0
 413 488 420 494 427 495 c 0
 430 495 440 492 439 492 c 1
 445 488 445 457 440 437 c 0
 418 342 382 248 341 169 c 0
 300 88 250 18 197 -38 c 0
 187 -49 174 -62 170 -65 c 0
 169 -65 167 -70 165 -73 c 0
 162 -78 143 -108 139 -113 c 0
 127 -119 113 -112 101 -100 c 0
 92 -91 81 -76 74 -70 c 0
 67 -63 55 -40 69 -30 c 1
91 545 m 1
 94 559 l 1
 102 570 113 572 118 570 c 0
 145 559 165 544 187 518 c 0
 206 496 222 472 236 438 c 2
 243 422 l 1
 243 410 242 403 241 391 c 1
 235 382 229 374 220 365 c 1
 208 364 201 364 189 365 c 1
 180 374 175 379 169 387 c 2
 162 410 l 2
 155 433 147 455 140 469 c 0
 130 487 110 522 101 532 c 2
 91 545 l 1
EndSplineSet
Comment: "Kage: aj1-00387+AAoA-Alias: uf0183"
EndChar
StartChar: uF0184
Encoding: 983428 983428 61
Width: 500
VWidth: 0
Flags: MW
LayerCount: 2
Back
Fore
SplineSet
101 668 m 1
 92 665 88 662 89 663 c 2
 99 676 l 1
 118 671 l 1
 148 656 161 648 183 622 c 0
 200 602 212 584 222 560 c 2
 227 548 l 2
 227 537 227 528 226 515 c 1
 220 506 214 498 205 489 c 1
 193 488 185 488 173 489 c 1
 164 498 160 502 154 510 c 2
 149 529 l 2
 140 560 128 587 113 611 c 0
 103 626 99 632 94 637 c 0
 92 640 87 659 101 668 c 1
166 713 m 1
 169 722 168 721 177 735 c 1
 193 735 l 2
 195 734 202 732 209 729 c 0
 232 720 251 706 269 687 c 0
 284 671 295 654 305 635 c 2
 311 623 l 1
 311 612 311 605 310 592 c 1
 304 584 300 576 290 566 c 1
 279 565 272 563 258 564 c 1
 246 576 l 1
 238 599 239 602 235 595 c 1
 231 611 223 632 215 645 c 0
 204 665 187 688 175 699 c 1
 166 713 l 1
EndSplineSet
Comment: "Kage: aj1-00388+AAoA-Alias: uf0184"
EndChar
StartChar: uF0185
Encoding: 983429 983429 62
Width: 500
VWidth: 0
Flags: MW
LayerCount: 2
Back
Fore
SplineSet
99 574 m 0
 97 588 97 611 99 625 c 0
 108 674 146 716 185 724 c 0
 208 727 230 721 249 709 c 0
 270 695 285 669 292 640 c 0
 294 630 294 625 294 611 c 0
 294 591 291 578 286 563 c 0
 274 527 251 502 222 491 c 0
 212 487 206 487 197 486 c 0
 186 485 180 486 172 488 c 0
 136 498 107 532 99 574 c 0
160 588 m 0
 163 570 172 555 187 554 c 1
 187 554 191 555 196 555 c 0
 213 556 223 565 231 587 c 0
 232 590 232 593 232 609 c 0
 232 625 232 626 231 630 c 0
 227 644 217 650 207 654 c 0
 201 656 191 657 187 654 c 0
 173 649 163 634 160 617 c 0
 159 609 159 596 160 588 c 0
EndSplineSet
Comment: "Kage: aj1-00389+AAoA-Alias: uf0185"
EndChar
StartChar: uF0187
Encoding: 983431 983431 63
Width: 500
VWidth: 0
Flags: MW
LayerCount: 2
Back
Fore
SplineSet
138 400 m 1
 122 440 l 2
 119 457 121 483 132 488 c 0
 134 488 142 486 146 483 c 2
 149 482 l 1
 192 481 l 2
 218 481 242 482 248 482 c 1
 249 478 l 1
 245 533 245 598 245 661 c 1
 239 683 l 2
 235 700 233 713 233 717 c 2
 243 736 l 1
 278 710 l 1
 292 693 297 686 305 680 c 0
 316 671 334 651 331 654 c 1
 334 650 330 630 326 626 c 2
 322 624 l 1
 323 578 323 526 319 485 c 1
 311 489 l 2
 308 488 311 490 318 491 c 1
 318 491 321 492 329 496 c 2
 351 504 l 1
 366 491 l 2
 372 484 375 480 378 471 c 0
 380 467 382 460 384 456 c 2
 384 436 l 1
 351 428 331 426 319 429 c 1
 323 323 l 1
 323 208 319 217 310 221 c 1
 313 221 320 225 338 232 c 0
 350 237 361 240 364 240 c 0
 370 239 382 230 390 224 c 0
 400 215 406 209 408 204 c 0
 408 203 411 197 414 188 c 2
 416 164 l 1
 373 155 341 152 319 155 c 1
 323 75 323 -15 322 -111 c 1
 314 -121 l 2
 307 -128 301 -132 294 -134 c 2
 281 -137 l 1
 267 -125 l 1
 259 -102 259 -100 252 -100 c 1
 251 -92 249 -91 238 -52 c 1
 233 -17 l 1
 238 -3 242 8 245 15 c 0
 245 62 245 112 250 151 c 1
 248 146 l 1
 241 145 209 141 178 137 c 2
 125 130 l 1
 121 127 l 2
 116 124 121 138 106 151 c 1
 94 145 79 192 79 195 c 0
 85 208 104 209 108 206 c 2
 111 203 l 1
 155 203 l 2
 157 203 160 203 151 199 c 1
 147 363 l 1
 141 388 l 2
 139 399 136 409 143 405 c 1
 157 405 155 402 138 400 c 1
220 200 m 1
 232 205 246 207 256 210 c 2
 249 206 l 1
 245 275 245 356 250 425 c 1
 254 420 l 2
 251 420 228 417 203 413 c 1
 171 422 l 1
 170 427 160 406 167 413 c 1
 168 426 173 422 179 414 c 0
 192 398 199 392 210 382 c 0
 217 376 228 367 231 362 c 2
 238 347 l 1
 230 334 225 328 224 328 c 2
 220 200 l 1
EndSplineSet
Comment: "Kage: aj1-00391+AAoA-Alias: uf0187"
EndChar
StartChar: uF0188
Encoding: 983432 983432 64
Width: 500
VWidth: 0
Flags: MW
LayerCount: 2
Back
Fore
SplineSet
115 493 m 0
 123 507 141 504 144 502 c 2
 146 500 l 1
 192 501 l 2
 239 500 245 500 282 503 c 2
 317 504 l 1
 321 510 328 520 348 534 c 1
 382 502 l 2
 394 488 398 480 392 481 c 1
 406 471 393 448 383 443 c 2
 371 436 l 1
 361 419 l 2
 348 396 329 366 315 345 c 0
 308 334 285 304 278 301 c 1
 276 308 282 303 284 300 c 2
 291 285 l 1
 283 272 278 266 277 266 c 2
 272 98 l 2
 275 105 291 107 305 110 c 2
 327 119 l 2
 341 124 353 128 356 128 c 0
 362 127 374 119 384 112 c 2
 405 96 l 1
 410 85 l 2
 411 80 413 75 415 70 c 2
 417 49 l 1
 347 38 288 34 231 30 c 0
 194 24 157 20 124 15 c 0
 123 14 119 11 101 6 c 1
 85 46 l 2
 82 62 79 77 79 80 c 0
 87 94 106 92 108 90 c 2
 110 89 l 1
 140 88 174 89 208 88 c 1
 205 87 208 90 204 86 c 1
 200 301 l 1
 194 326 l 2
 191 341 187 356 187 360 c 0
 188 368 197 377 203 378 c 0
 209 377 222 363 232 352 c 0
 245 336 252 330 263 320 c 1
 259 322 259 322 252 322 c 2
 245 322 l 1
 280 409 301 460 305 471 c 1
 301 460 307 445 293 444 c 0
 276 443 256 440 213 434 c 2
 160 427 l 1
 156 424 l 2
 155 423 156 438 142 447 c 1
 130 442 115 491 115 493 c 0
EndSplineSet
Comment: "Kage: aj1-00392+AAoA-Alias: uf0188"
EndChar
StartChar: uF0189
Encoding: 983433 983433 65
Width: 500
VWidth: 0
Flags: MW
LayerCount: 2
Back
Fore
SplineSet
83 226 m 1
 88 242 92 252 95 258 c 0
 95 290 95 328 95 362 c 1
 89 385 l 2
 86 399 83 415 83 419 c 0
 83 421 89 436 103 442 c 1
 111 441 127 426 137 414 c 2
 148 398 l 1
 172 400 203 400 234 400 c 2
 300 404 l 1
 359 407 l 1
 365 415 l 2
 372 423 384 434 391 435 c 0
 399 433 417 415 429 401 c 2
 456 360 l 1
 438 341 430 336 429 338 c 2
 429 321 l 2
 427 303 423 285 418 259 c 0
 398 160 371 83 330 14 c 0
 318 -6 311 -17 297 -35 c 0
 282 -55 276 -61 260 -78 c 0
 243 -96 239 -101 220 -116 c 0
 202 -130 195 -135 175 -147 c 1
 135 -162 l 1
 123 -145 l 2
 123 -145 120 -140 120 -135 c 0
 122 -126 135 -110 146 -101 c 0
 208 -47 257 20 290 103 c 0
 316 168 334 250 343 333 c 0
 345 347 351 372 365 377 c 1
 385 358 343 335 314 333 c 0
 264 330 259 330 217 324 c 2
 179 320 l 2
 182 322 179 319 182 324 c 1
 183 266 184 202 182 130 c 1
 171 118 l 2
 164 112 159 109 155 107 c 2
 136 102 l 1
 118 116 l 2
 112 123 109 129 103 143 c 2
 96 159 l 1
 91 181 87 201 83 226 c 1
EndSplineSet
Comment: "Kage: aj1-00393+AAoA-Alias: uf0189"
EndChar
StartChar: uF018A
Encoding: 983434 983434 66
Width: 500
VWidth: 0
Flags: MW
LayerCount: 2
Back
Fore
SplineSet
371 -113 m 1
 346 -133 334 -128 339 -128 c 0
 345 -127 346 -126 341 -130 c 2
 327 -136 l 1
 310 -133 l 2
 301 -130 302 -128 309 -129 c 1
 296 -126 287 -110 285 -104 c 2
 285 -102 l 1
 265 -94 238 -81 203 -60 c 1
 200 -43 l 1
 205 -24 219 -18 223 -18 c 0
 243 -21 311 -28 314 -29 c 1
 304 -32 299 -36 305 -17 c 0
 323 40 337 119 347 215 c 0
 349 229 350 247 351 252 c 0
 351 258 352 265 352 267 c 2
 358 257 l 1
 329 247 l 1
 295 245 297 250 302 262 c 1
 302 259 298 240 294 221 c 0
 272 118 243 35 203 -35 c 0
 189 -59 188 -61 170 -85 c 0
 153 -106 149 -111 132 -127 c 2
 100 -150 l 1
 83 -140 l 1
 94 -142 106 -107 95 -89 c 1
 133 -38 163 26 187 109 c 0
 198 147 209 195 215 234 c 0
 217 250 227 273 240 278 c 1
 260 259 225 237 204 234 c 2
 169 229 l 1
 166 227 l 2
 161 224 168 243 130 248 c 1
 129 232 122 312 137 319 c 0
 139 319 147 317 153 314 c 2
 155 312 l 1
 197 312 l 2
 222 312 244 312 244 312 c 1
 231 307 225 305 227 316 c 0
 230 347 233 398 234 433 c 2
 235 460 l 1
 230 481 l 2
 227 494 224 507 224 510 c 0
 224 511 230 526 243 532 c 0
 247 532 319 506 316 506 c 1
 332 498 323 432 322 431 c 1
 323 433 321 427 321 421 c 0
 320 402 313 333 310 311 c 0
 308 300 302 308 287 315 c 0
 286 315 306 316 330 318 c 2
 365 319 l 1
 370 327 l 2
 376 335 388 345 396 347 c 0
 406 346 424 329 436 315 c 2
 463 272 l 1
 443 252 l 2
 438 249 436 249 437 250 c 0
 439 255 441 254 440 246 c 0
 434 169 415 48 398 -16 c 0
 390 -46 377 -83 369 -97 c 1
 370 -95 371 -90 371 -101 c 0
 371 -108 365 -100 371 -113 c 1
EndSplineSet
Comment: "Kage: aj1-00394+AAoA-Alias: uf018a"
EndChar
StartChar: uF018B
Encoding: 983435 983435 67
Width: 500
VWidth: 0
Flags: MW
LayerCount: 2
Back
Fore
SplineSet
113 83 m 0
 115 84 112 83 114 91 c 0
 143 190 163 292 176 399 c 1
 193 429 193 423 177 464 c 0
 175 478 174 491 174 493 c 2
 180 508 l 1
 198 509 l 2
 201 507 250 481 260 477 c 2
 272 469 l 1
 268 445 l 2
 266 439 261 427 258 419 c 0
 253 407 253 405 249 383 c 0
 244 356 237 316 232 296 c 1
 224 294 l 1
 221 300 l 1
 226 299 229 300 251 305 c 0
 278 311 279 311 294 318 c 0
 305 323 317 327 320 327 c 0
 326 326 336 319 345 313 c 2
 363 297 l 1
 366 286 l 2
 367 282 369 277 371 273 c 2
 374 252 l 1
 337 242 l 2
 324 241 310 239 309 239 c 2
 318 252 l 1
 316 264 l 2
 319 262 320 262 329 258 c 1
 333 244 314 202 312 204 c 1
 316 191 314 176 312 161 c 0
 302 86 284 14 263 -35 c 0
 245 -78 223 -114 200 -137 c 0
 189 -148 184 -150 173 -157 c 0
 165 -162 166 -149 139 -145 c 1
 135 -137 l 1
 141 -132 141 -129 147 -123 c 0
 164 -104 182 -75 193 -45 c 0
 219 23 234 104 240 205 c 2
 241 222 l 2
 239 230 239 236 243 234 c 2
 250 231 l 2
 243 230 210 226 210 226 c 0
 214 231 216 231 209 212 c 0
 198 174 181 130 167 102 c 0
 159 86 138 55 129 53 c 0
 121 54 110 66 113 83 c 0
EndSplineSet
Comment: "Kage: aj1-00395+AAoA-Alias: uf018b"
EndChar
StartChar: uF018C
Encoding: 983436 983436 68
Width: 500
VWidth: 0
Flags: MW
LayerCount: 2
Back
Fore
SplineSet
85 264 m 0
 85 267 89 279 92 287 c 2
 97 300 l 1
 97 341 97 384 97 426 c 1
 91 450 l 2
 87 467 85 477 85 483 c 2
 95 502 l 1
 124 484 135 470 142 460 c 1
 186 461 l 2
 236 460 237 460 284 463 c 2
 326 465 l 1
 330 472 339 480 358 495 c 1
 392 463 l 2
 404 449 409 441 413 438 c 0
 415 419 393 406 395 410 c 0
 395 410 393 395 391 380 c 0
 387 339 379 282 369 235 c 0
 359 182 346 143 331 100 c 0
 308 35 285 -10 252 -54 c 0
 237 -74 234 -77 216 -94 c 0
 198 -111 195 -113 182 -122 c 0
 175 -128 167 -134 163 -136 c 2
 147 -139 l 1
 137 -128 l 2
 136 -126 135 -109 148 -102 c 1
 142 -103 144 -98 152 -90 c 0
 236 -5 286 126 308 323 c 0
 311 352 317 415 317 421 c 1
 322 411 320 406 297 404 c 0
 267 402 255 400 220 396 c 1
 179 404 180 408 173 388 c 2
 173 391 l 1
 175 289 l 1
 174 173 l 1
 164 162 l 2
 159 158 155 154 148 151 c 2
 133 147 l 1
 118 161 l 2
 110 172 109 175 104 186 c 1
 115 192 113 191 91 231 c 1
 88 247 85 261 85 264 c 0
185 684 m 0
 185 688 190 698 195 701 c 2
 209 705 l 1
 220 696 l 2
 226 688 242 664 246 656 c 0
 257 637 270 607 279 583 c 0
 286 562 297 518 297 507 c 0
 297 505 297 496 294 489 c 2
 290 476 l 1
 278 465 l 2
 272 461 264 457 260 457 c 0
 255 457 229 481 244 493 c 1
 231 485 227 475 225 481 c 2
 220 492 l 1
 218 511 l 2
 217 540 213 570 205 603 c 0
 201 621 193 657 189 669 c 0
 187 674 185 681 185 684 c 0
309 680 m 1
 316 692 l 2
 316 692 322 698 330 700 c 0
 337 699 357 679 360 675 c 0
 371 662 382 641 390 623 c 0
 395 611 405 583 407 572 c 2
 408 561 l 2
 406 552 406 546 403 532 c 1
 395 525 391 518 380 511 c 1
 368 510 l 1
 370 520 348 538 338 530 c 1
 332 542 331 546 330 554 c 0
 329 569 327 586 325 603 c 0
 322 625 315 661 313 666 c 2
 309 680 l 1
349 739 m 1
 358 750 l 2
 356 746 359 753 374 757 c 1
 381 754 398 739 405 730 c 0
 420 713 435 686 446 652 c 2
 451 637 l 1
 448 621 l 2
 447 616 442 622 431 627 c 1
 444 619 440 599 434 593 c 2
 420 584 l 1
 406 584 l 2
 400 585 383 603 385 608 c 1
 383 597 372 616 372 622 c 0
 372 624 372 628 371 634 c 0
 369 669 360 713 354 723 c 2
 349 739 l 1
EndSplineSet
Comment: "Kage: aj1-00396+AAoA-Alias: uf018c"
EndChar
StartChar: uF018D
Encoding: 983437 983437 69
Width: 500
VWidth: 0
Flags: MW
LayerCount: 2
Back
Fore
SplineSet
64 -97 m 1
 80 -66 l 2
 98 -35 113 -1 129 43 c 0
 158 122 182 230 196 341 c 0
 199 363 206 391 216 395 c 1
 231 381 201 363 181 361 c 2
 149 357 l 1
 144 353 l 2
 141 352 124 348 116 357 c 1
 116 357 103 416 103 421 c 0
 107 433 123 436 131 432 c 2
 134 431 l 1
 175 430 l 2
 199 430 219 430 219 430 c 1
 208 426 204 428 206 443 c 0
 210 483 212 551 213 598 c 2
 214 638 l 1
 209 659 l 2
 206 671 203 683 203 686 c 0
 207 698 218 702 218 702 c 2
 221 702 286 680 292 678 c 0
 297 675 296 675 290 676 c 1
 302 670 301 644 297 630 c 2
 291 605 l 1
 289 584 l 2
 287 539 281 456 276 419 c 1
 271 429 l 1
 287 435 314 436 335 437 c 1
 343 446 l 2
 349 453 360 463 366 464 c 0
 373 463 426 398 424 403 c 1
 424 402 413 380 405 376 c 1
 401 377 l 1
 403 367 l 1
 399 287 386 165 373 88 c 0
 363 27 347 -34 337 -60 c 2
 335 -66 l 1
 335 -74 l 2
 335 -81 331 -95 319 -99 c 0
 318 -99 311 -99 304 -95 c 1
 307 -94 l 1
 313 -93 l 2
 314 -90 310 -97 288 -98 c 1
 272 -94 l 1
 262 -78 l 2
 260 -72 260 -52 272 -46 c 1
 258 -57 247 -63 225 -52 c 2
 179 -26 l 1
 177 -13 l 2
 181 -19 176 -8 193 7 c 0
 196 7 278 -3 282 -4 c 0
 283 -4 275 -7 273 -5 c 0
 284 31 292 82 302 152 c 0
 311 217 322 316 324 368 c 0
 325 377 325 386 325 388 c 2
 330 381 l 1
 300 373 l 1
 268 375 l 1
 265 336 l 1
 250 242 231 164 206 90 c 0
 196 57 192 49 179 20 c 0
 165 -11 163 -14 148 -40 c 0
 133 -66 130 -70 114 -91 c 0
 104 -103 98 -98 84 -89 c 1
 70 -98 73 -114 69 -110 c 2
 64 -97 l 1
309 670 m 1
 316 682 l 2
 316 682 322 688 330 690 c 0
 336 689 350 676 356 669 c 0
 367 657 379 637 388 616 c 0
 392 606 403 577 406 564 c 2
 408 552 l 2
 406 542 406 535 401 520 c 1
 394 515 392 509 378 500 c 1
 363 501 l 2
 357 502 341 520 356 533 c 1
 343 526 341 514 338 519 c 2
 331 533 l 1
 329 553 l 2
 327 589 318 643 313 656 c 2
 309 670 l 1
349 729 m 1
 358 740 l 2
 356 736 359 743 370 747 c 0
 376 746 388 737 397 729 c 0
 413 714 425 694 436 668 c 0
 440 658 444 645 446 641 c 2
 451 628 l 1
 450 616 449 609 445 596 c 1
 437 587 432 582 421 574 c 1
 409 574 403 574 390 577 c 1
 381 589 379 597 374 604 c 2
 372 618 l 2
 371 631 368 652 366 664 c 0
 363 685 357 708 354 713 c 2
 349 729 l 1
EndSplineSet
Comment: "Kage: aj1-00397+AAoA-Alias: uf018d"
EndChar
StartChar: uF018E
Encoding: 983438 983438 70
Width: 500
VWidth: 0
Flags: MW
LayerCount: 2
Back
Fore
SplineSet
275 644 m 1
 278 626 266 627 263 633 c 1
 267 620 274 465 259 468 c 1
 291 496 l 2
 298 499 306 499 322 493 c 2
 345 484 l 1
 351 475 l 2
 352 474 355 470 359 465 c 0
 362 461 359 462 352 464 c 1
 367 452 277 397 278 398 c 0
 280 402 292 228 290 231 c 0
 281 234 282 240 300 255 c 2
 328 278 l 1
 349 274 364 270 383 263 c 1
 390 254 l 2
 391 252 394 249 398 244 c 0
 402 239 406 219 392 211 c 1
 394 211 372 200 342 186 c 0
 312 172 295 177 291 185 c 2
 309 -88 l 2
 313 -94 250 -153 238 -141 c 1
 236 -132 220 144 219 157 c 1
 247 155 220 128 195 114 c 2
 154 91 l 1
 151 86 l 2
 148 81 147 94 118 89 c 1
 124 76 92 142 102 154 c 0
 105 155 111 156 118 155 c 2
 118 154 l 1
 141 164 171 174 197 184 c 0
 205 189 214 195 218 196 c 2
 216 193 l 1
 216 202 207 395 218 400 c 1
 232 389 208 362 188 352 c 2
 155 335 l 2
 154 333 150 329 134 319 c 1
 108 353 l 2
 101 367 95 394 108 401 c 1
 106 401 112 402 120 400 c 2
 122 399 l 1
 155 413 l 2
 188 425 193 426 200 431 c 0
 205 433 202 430 201 425 c 1
 201 427 185 653 189 665 c 1
 185 654 213 653 228 665 c 1
 257 660 l 1
 268 651 l 2
 271 646 270 647 275 644 c 1
309 670 m 1
 316 682 l 2
 316 682 322 688 330 690 c 0
 336 689 350 676 356 669 c 0
 367 657 379 637 388 616 c 0
 392 606 403 577 406 564 c 2
 408 552 l 2
 406 542 406 535 401 520 c 1
 394 515 392 509 378 500 c 1
 363 501 l 2
 357 502 341 520 356 533 c 1
 343 526 341 514 338 519 c 2
 331 533 l 1
 329 553 l 2
 327 589 318 643 313 656 c 2
 309 670 l 1
349 729 m 1
 358 740 l 2
 356 736 359 743 370 747 c 0
 376 746 388 737 397 729 c 0
 413 714 425 694 436 668 c 0
 440 658 444 645 446 641 c 2
 451 628 l 1
 450 616 449 609 445 596 c 1
 437 587 432 582 421 574 c 1
 409 574 403 574 390 577 c 1
 381 589 379 597 374 604 c 2
 372 618 l 2
 371 631 368 652 366 664 c 0
 363 685 357 708 354 713 c 2
 349 729 l 1
EndSplineSet
Comment: "Kage: aj1-00398+AAoA-Alias: uf018e"
EndChar
StartChar: uF018F
Encoding: 983439 983439 71
Width: 500
VWidth: 0
Flags: MW
LayerCount: 2
Back
Fore
SplineSet
108 -114 m 2
 108 -114 112 -109 122 -99 c 0
 137 -85 137 -84 153 -62 c 0
 167 -43 170 -38 183 -16 c 0
 202 17 217 55 233 101 c 0
 260 180 284 286 300 393 c 0
 306 429 314 478 313 490 c 1
 342 485 256 459 241 457 c 1
 246 460 l 1
 245 446 l 1
 223 368 193 290 166 243 c 0
 157 228 132 191 108 204 c 1
 109 210 111 195 110 196 c 2
 102 206 l 1
 108 230 l 1
 132 292 153 358 169 423 c 0
 181 473 196 549 204 605 c 2
 207 623 l 1
 205 644 l 2
 204 657 203 669 203 672 c 2
 211 689 l 1
 237 682 l 1
 266 667 298 647 300 638 c 0
 300 634 280 583 276 577 c 1
 277 579 276 571 273 557 c 0
 270 543 266 526 265 522 c 0
 264 520 260 529 255 532 c 1
 256 531 312 531 321 532 c 2
 323 531 l 1
 330 539 l 2
 335 545 345 556 353 558 c 0
 360 557 371 547 387 528 c 0
 399 514 405 505 399 506 c 1
 414 494 400 475 394 472 c 2
 387 470 l 1
 386 448 l 2
 380 409 367 343 357 295 c 0
 331 177 299 86 261 9 c 0
 246 -20 243 -24 227 -48 c 0
 211 -70 211 -73 189 -97 c 2
 170 -119 l 1
 148 -135 l 2
 137 -143 122 -151 117 -152 c 0
 107 -149 98 -126 108 -114 c 2
319 708 m 1
 327 718 l 2
 329 719 334 723 340 724 c 0
 348 723 369 701 376 691 c 0
 391 670 406 633 415 601 c 2
 419 589 l 1
 418 578 417 569 413 556 c 1
 406 549 400 543 387 535 c 1
 372 537 l 2
 370 538 369 538 368 538 c 0
 361 539 350 549 346 557 c 2
 341 568 l 1
 340 583 l 2
 339 598 337 606 335 626 c 0
 333 647 325 684 322 692 c 2
 319 708 l 1
364 772 m 2
 360 766 371 782 380 784 c 0
 386 783 402 769 410 762 c 0
 417 754 427 741 434 728 c 0
 440 718 451 692 456 676 c 2
 460 662 l 1
 459 650 l 2
 458 645 457 639 457 639 c 1
 455 631 448 624 445 621 c 2
 432 609 l 1
 419 609 412 610 399 614 c 1
 390 629 l 2
 391 632 386 634 382 649 c 0
 382 660 377 698 373 715 c 0
 369 733 365 747 365 748 c 0
 361 753 364 772 364 772 c 2
EndSplineSet
Comment: "Kage: aj1-00399+AAoA-Alias: uf018f"
EndChar
StartChar: uF0190
Encoding: 983440 983440 72
Width: 500
VWidth: 0
Flags: MW
LayerCount: 2
Back
Fore
SplineSet
78 143 m 0
 78 147 82 156 85 166 c 0
 113 252 131 335 149 437 c 0
 156 479 168 558 172 597 c 2
 173 613 l 1
 171 636 l 2
 169 650 168 662 168 664 c 0
 172 676 184 680 184 680 c 2
 187 680 200 674 213 668 c 0
 246 652 259 645 257 646 c 1
 263 641 261 613 255 598 c 0
 249 585 247 575 247 576 c 1
 247 572 236 510 230 482 c 0
 227 468 222 444 219 429 c 0
 216 414 210 414 199 419 c 1
 200 419 206 418 211 418 c 0
 214 416 214 417 254 427 c 0
 286 433 287 434 311 443 c 0
 325 448 338 452 341 452 c 0
 347 451 359 443 369 436 c 2
 390 419 l 1
 394 409 l 2
 395 406 397 401 399 396 c 0
 401 390 397 393 388 396 c 1
 403 381 369 365 345 363 c 1
 315 372 l 1
 317 383 l 1
 325 380 330 377 331 377 c 0
 341 366 331 326 325 309 c 0
 324 307 324 302 323 295 c 0
 322 289 320 269 318 251 c 0
 304 137 275 36 237 -36 c 0
 227 -54 223 -62 212 -78 c 0
 199 -97 194 -100 183 -112 c 0
 171 -123 170 -127 153 -138 c 0
 145 -144 134 -151 128 -152 c 0
 119 -150 113 -142 111 -138 c 2
 109 -124 l 1
 125 -104 l 1
 187 -37 228 89 244 263 c 0
 246 281 247 306 248 319 c 2
 249 340 l 2
 247 348 246 358 252 356 c 2
 257 352 l 2
 253 352 238 350 222 348 c 0
 198 344 195 344 195 344 c 1
 198 347 199 348 197 340 c 0
 175 262 149 199 122 149 c 1
 101 122 l 1
 87 128 l 2
 85 129 79 136 78 143 c 0
316 656 m 1
 315 655 316 657 317 658 c 0
 319 660 333 665 345 657 c 0
 346 656 349 651 351 649 c 0
 363 637 378 614 389 590 c 0
 394 578 405 548 407 537 c 2
 408 526 l 2
 406 518 406 511 403 497 c 1
 392 486 l 2
 388 482 379 476 373 475 c 0
 372 475 368 475 361 476 c 2
 347 481 l 1
 341 491 335 499 330 509 c 1
 330 520 l 2
 328 560 319 617 313 632 c 1
 316 631 308 639 316 656 c 1
349 701 m 1
 356 714 l 2
 357 715 371 724 387 710 c 1
 386 711 386 713 390 709 c 0
 398 702 409 690 416 681 c 0
 427 666 439 639 446 617 c 2
 451 601 l 1
 450 590 449 581 445 570 c 1
 437 562 431 557 421 549 c 1
 406 549 l 2
 400 550 383 567 385 573 c 1
 383 561 372 581 372 587 c 0
 372 589 372 593 371 600 c 0
 370 616 367 635 364 650 c 0
 361 667 355 686 354 689 c 2
 349 701 l 1
EndSplineSet
Comment: "Kage: aj1-00400+AAoA-Alias: uf0190"
EndChar
StartChar: uF0191
Encoding: 983441 983441 73
Width: 500
VWidth: 0
Flags: MW
LayerCount: 2
Back
Fore
SplineSet
128 93 m 0
 130 93 137 90 142 87 c 2
 144 85 l 1
 190 86 l 2
 234 85 242 86 271 88 c 1
 293 85 l 1
 289 78 l 2
 289 81 316 444 317 452 c 1
 322 445 l 1
 297 438 l 1
 265 436 256 435 211 429 c 2
 164 423 l 1
 161 420 l 2
 156 417 161 432 132 435 c 1
 132 423 122 498 134 503 c 0
 136 503 144 501 148 498 c 2
 150 497 l 1
 195 496 l 2
 238 495 240 496 287 499 c 2
 327 500 l 1
 330 506 338 516 358 530 c 1
 392 498 l 2
 404 484 408 476 402 477 c 1
 416 466 405 447 398 442 c 0
 385 434 388 438 391 444 c 2
 363 14 l 1
 357 7 314 -4 299 7 c 1
 289 3 286 34 287 42 c 1
 292 34 l 1
 285 28 l 1
 273 27 246 24 210 19 c 2
 157 12 l 1
 154 9 l 2
 152 8 136 3 125 16 c 0
 124 18 116 88 128 93 c 0
327 681 m 1
 334 693 l 2
 337 696 342 700 348 701 c 0
 355 700 373 682 377 677 c 0
 388 664 398 646 406 626 c 0
 411 614 422 584 424 574 c 2
 426 564 l 2
 425 553 424 546 421 533 c 1
 413 525 407 518 396 511 c 1
 384 512 l 1
 383 517 377 513 354 532 c 1
 349 545 l 1
 348 561 l 2
 346 598 336 654 330 669 c 2
 327 681 l 1
368 739 m 1
 373 750 l 2
 374 751 380 757 388 759 c 0
 391 759 397 756 401 754 c 0
 405 750 407 748 410 745 c 0
 422 734 434 718 444 701 c 0
 449 691 460 665 464 651 c 2
 468 638 l 1
 467 627 465 620 463 607 c 1
 455 598 451 594 440 585 c 1
 424 585 l 2
 419 586 417 587 417 587 c 1
 408 589 392 611 390 619 c 0
 390 621 389 627 389 633 c 0
 387 663 378 712 371 725 c 2
 368 739 l 1
EndSplineSet
Comment: "Kage: aj1-00401+AAoA-Alias: uf0191"
EndChar
StartChar: uF0192
Encoding: 983442 983442 74
Width: 500
VWidth: 0
Flags: MW
LayerCount: 2
Back
Fore
SplineSet
85 404 m 0
 86 411 99 421 114 416 c 1
 116 413 l 1
 129 414 150 415 158 410 c 1
 153 462 153 525 153 586 c 1
 147 612 l 2
 141 637 142 658 156 664 c 0
 162 663 175 651 185 640 c 0
 199 623 204 617 213 610 c 0
 226 599 242 581 239 584 c 1
 241 581 237 558 233 554 c 2
 230 553 l 1
 231 506 231 452 226 410 c 1
 238 416 262 417 275 414 c 1
 271 472 271 539 271 605 c 1
 265 631 l 2
 262 646 258 661 258 665 c 2
 268 683 l 1
 303 657 l 1
 317 640 323 634 331 628 c 0
 342 619 360 599 357 602 c 1
 359 599 355 576 351 572 c 2
 348 571 l 1
 349 522 349 466 344 422 c 1
 339 427 l 2
 340 426 343 429 352 434 c 2
 373 440 l 1
 387 428 l 2
 385 426 390 426 401 408 c 0
 403 402 404 396 405 395 c 2
 408 373 l 1
 376 365 355 363 345 367 c 1
 349 311 l 1
 349 231 348 208 343 169 c 0
 336 109 324 63 306 20 c 0
 276 -50 232 -101 179 -123 c 0
 171 -127 174 -113 159 -100 c 1
 146 -107 141 -111 145 -96 c 0
 149 -93 151 -90 158 -84 c 0
 189 -58 214 -25 232 16 c 0
 252 61 265 114 269 176 c 0
 271 196 270 212 271 287 c 2
 276 363 l 1
 253 356 l 1
 235 355 219 353 217 353 c 1
 227 357 231 337 231 250 c 2
 230 129 l 1
 222 117 l 2
 214 110 201 103 192 102 c 0
 187 103 177 108 173 114 c 0
 167 122 165 126 159 140 c 1
 170 147 168 145 146 187 c 1
 141 221 l 1
 146 234 150 247 153 255 c 0
 153 288 153 324 157 349 c 1
 161 345 l 2
 160 345 153 343 143 341 c 2
 130 340 l 2
 129 339 125 336 107 331 c 1
 96 346 l 1
 93 361 85 401 85 404 c 0
321 668 m 0
 322 675 329 683 330 683 c 2
 341 690 l 1
 359 680 l 1
 374 665 383 650 393 632 c 0
 396 625 398 620 401 616 c 0
 405 605 414 580 417 568 c 2
 420 554 l 1
 419 540 l 2
 418 532 413 539 401 545 c 1
 414 537 410 517 404 511 c 2
 390 501 l 1
 376 502 l 2
 373 503 371 503 367 503 c 0
 358 508 344 531 342 540 c 0
 342 543 342 551 341 559 c 0
 339 592 330 646 325 657 c 0
 325 657 322 661 321 668 c 0
361 727 m 1
 368 740 l 2
 375 747 388 747 394 743 c 0
 412 727 424 715 436 695 c 0
 442 686 453 657 458 642 c 2
 462 628 l 2
 461 617 460 610 458 598 c 1
 449 587 l 1
 439 598 415 583 417 575 c 1
 401 579 l 1
 394 590 390 596 386 605 c 2
 384 620 l 2
 381 658 372 705 367 714 c 2
 361 727 l 1
EndSplineSet
Comment: "Kage: aj1-00402+AAoA-Alias: uf0192"
EndChar
StartChar: uF0193
Encoding: 983443 983443 75
Width: 500
VWidth: 0
Flags: MW
LayerCount: 2
Back
Fore
SplineSet
100 -37 m 1
 96 -37 102 -34 112 -28 c 2
 129 -19 l 1
 137 -10 l 2
 151 5 176 36 194 60 c 0
 243 127 288 213 326 314 c 0
 340 352 357 403 371 447 c 0
 377 465 387 489 390 491 c 0
 391 492 401 493 406 491 c 2
 417 483 l 1
 411 435 l 1
 393 341 368 257 334 171 c 0
 313 119 281 58 251 10 c 0
 243 -3 228 -24 218 -38 c 0
 202 -60 199 -65 193 -76 c 0
 189 -84 184 -94 182 -99 c 2
 167 -117 l 1
 145 -108 l 2
 139 -103 127 -93 114 -83 c 0
 101 -73 86 -47 100 -37 c 1
105 410 m 1
 101 403 111 420 120 422 c 0
 125 421 154 405 158 402 c 0
 172 392 190 370 201 351 c 0
 207 340 220 315 225 303 c 2
 230 292 l 1
 229 275 l 1
 228 259 l 1
 221 250 216 244 206 235 c 1
 192 233 l 1
 175 235 l 1
 164 247 l 2
 163 251 159 252 152 269 c 0
 150 282 143 307 140 318 c 0
 132 342 115 377 109 384 c 0
 106 387 102 406 105 410 c 1
147 607 m 1
 151 618 l 2
 152 619 158 627 167 629 c 0
 174 628 199 611 206 604 c 0
 229 583 251 553 270 509 c 2
 275 496 l 2
 275 485 275 476 274 462 c 1
 267 453 263 447 252 438 c 1
 241 437 235 436 222 437 c 1
 210 449 l 2
 201 461 200 465 199 468 c 0
 197 480 189 507 185 519 c 0
 176 545 160 584 153 593 c 2
 147 607 l 1
309 670 m 1
 316 682 l 2
 316 682 322 688 330 690 c 0
 336 689 350 676 356 669 c 0
 367 657 379 637 388 616 c 0
 392 606 403 577 406 564 c 2
 408 552 l 2
 406 542 406 535 401 520 c 1
 394 515 392 509 378 500 c 1
 363 501 l 2
 357 502 341 520 356 533 c 1
 343 526 341 514 338 519 c 2
 331 533 l 1
 329 553 l 2
 327 589 318 643 313 656 c 2
 309 670 l 1
349 729 m 1
 358 740 l 2
 356 736 359 743 370 747 c 0
 376 746 388 737 397 729 c 0
 413 714 425 694 436 668 c 0
 440 658 444 645 446 641 c 2
 451 628 l 1
 450 616 449 609 445 596 c 1
 437 587 432 582 421 574 c 1
 409 574 403 574 390 577 c 1
 381 589 379 597 374 604 c 2
 372 618 l 2
 371 631 368 652 366 664 c 0
 363 685 357 708 354 713 c 2
 349 729 l 1
EndSplineSet
Comment: "Kage: aj1-00403+AAoA-Alias: uf0193"
EndChar
StartChar: uF0194
Encoding: 983444 983444 76
Width: 500
VWidth: 0
Flags: MW
LayerCount: 2
Back
Fore
SplineSet
77 -86 m 1
 73 -92 80 -79 87 -68 c 0
 125 -10 160 61 188 134 c 0
 224 229 258 353 281 475 c 0
 284 492 291 516 290 515 c 0
 290 494 285 489 232 481 c 2
 180 474 l 2
 179 473 175 470 157 465 c 1
 146 480 l 1
 143 495 135 535 135 538 c 0
 139 550 155 553 163 549 c 2
 166 548 l 1
 212 547 l 2
 250 547 267 547 283 548 c 2
 298 548 l 1
 306 559 l 2
 313 567 325 576 330 577 c 0
 337 576 380 524 374 525 c 1
 389 513 376 494 369 489 c 2
 361 486 l 1
 357 460 l 2
 342 391 317 306 299 248 c 0
 294 235 292 227 292 228 c 0
 291 232 291 233 294 230 c 0
 308 217 327 193 341 169 c 0
 369 123 393 71 415 1 c 2
 423 -22 l 1
 422 -37 l 2
 421 -44 416 -37 405 -32 c 1
 417 -39 416 -60 410 -66 c 2
 397 -78 l 1
 385 -78 l 1
 385 -71 380 -78 354 -63 c 1
 347 -52 l 1
 341 -32 l 2
 327 29 308 91 284 146 c 0
 275 166 262 196 259 204 c 1
 272 197 l 1
 273 171 l 1
 228 54 178 -34 119 -97 c 1
 91 -119 l 1
 77 -109 l 2
 76 -106 75 -89 77 -86 c 1
323 671 m 1
 330 681 l 2
 330 680 339 690 366 674 c 1
 381 658 391 641 402 617 c 0
 406 607 416 578 419 566 c 2
 423 554 l 1
 421 544 421 536 416 521 c 1
 408 515 405 509 392 501 c 1
 377 502 l 2
 371 503 355 521 370 534 c 1
 356 525 353 515 350 522 c 0
 346 545 349 547 344 544 c 1
 343 560 341 576 339 591 c 0
 336 613 329 651 326 657 c 2
 323 671 l 1
364 729 m 1
 369 740 l 2
 372 743 378 747 384 748 c 0
 386 748 395 745 401 740 c 0
 404 737 407 733 410 730 c 0
 418 723 428 710 436 698 c 0
 443 686 454 660 460 642 c 2
 464 629 l 1
 463 613 l 2
 461 604 458 595 455 591 c 0
 454 590 450 586 447 583 c 2
 434 574 l 1
 423 576 418 575 403 579 c 1
 396 590 392 596 387 605 c 1
 385 619 l 2
 383 657 373 704 367 716 c 2
 364 729 l 1
EndSplineSet
Comment: "Kage: aj1-00404+AAoA-Alias: uf0194"
EndChar
StartChar: uF0195
Encoding: 983445 983445 77
Width: 500
VWidth: 0
Flags: MW
LayerCount: 2
Back
Fore
SplineSet
80 266 m 1
 78 270 87 289 102 289 c 1
 106 288 l 1
 126 298 149 309 167 314 c 1
 165 404 165 502 165 598 c 1
 159 623 l 2
 155 641 153 650 153 656 c 2
 163 675 l 1
 199 649 l 1
 213 632 219 625 227 618 c 0
 233 612 242 604 247 598 c 2
 255 580 l 1
 247 567 243 563 242 564 c 2
 243 451 l 2
 243 385 239 343 228 347 c 0
 225 347 337 406 344 411 c 0
 350 414 343 410 339 404 c 2
 340 414 l 1
 351 428 l 2
 355 433 361 441 363 443 c 2
 379 451 l 1
 411 420 l 2
 423 406 429 397 436 389 c 1
 430 370 404 355 408 372 c 0
 406 375 405 353 401 343 c 0
 380 287 344 205 317 158 c 0
 307 138 287 113 279 111 c 0
 274 112 259 123 257 131 c 0
 257 135 267 161 285 216 c 0
 307 281 315 307 322 333 c 0
 325 344 328 356 329 359 c 0
 329 360 333 371 344 375 c 1
 359 364 325 333 293 316 c 2
 241 290 l 1
 243 178 l 2
 243 53 244 49 247 35 c 0
 249 27 253 16 256 11 c 0
 258 7 262 5 271 3 c 0
 277 2 277 2 293 3 c 0
 310 4 324 8 342 13 c 2
 354 15 l 1
 366 14 l 2
 372 13 376 12 382 10 c 0
 389 0 398 -17 399 -22 c 0
 399 -24 398 -31 397 -37 c 2
 393 -53 l 1
 382 -62 l 2
 379 -63 377 -68 359 -76 c 0
 332 -84 326 -86 298 -88 c 0
 269 -90 266 -89 244 -83 c 0
 231 -79 219 -73 208 -65 c 0
 201 -59 186 -36 188 -30 c 1
 188 -40 186 -39 185 -32 c 1
 185 -34 184 -33 182 -28 c 0
 177 -16 171 0 169 11 c 0
 165 32 165 35 165 155 c 0
 165 261 172 254 181 251 c 1
 181 251 176 246 163 238 c 2
 142 227 l 2
 141 224 137 219 122 208 c 1
 95 240 l 2
 88 253 79 267 80 266 c 1
318 662 m 2
 324 668 l 1
 335 668 345 660 350 655 c 0
 366 638 379 619 390 592 c 0
 395 579 405 553 407 542 c 2
 408 532 l 2
 407 523 407 515 403 501 c 1
 395 494 389 488 377 480 c 1
 367 482 362 481 347 485 c 1
 340 496 335 504 331 513 c 2
 329 530 l 2
 327 567 319 622 314 634 c 0
 312 638 312 657 318 662 c 2
349 706 m 1
 357 720 l 2
 359 722 365 726 371 727 c 0
 377 726 395 711 401 705 c 0
 416 688 432 661 444 626 c 2
 451 608 l 1
 450 596 449 589 445 576 c 1
 435 564 l 2
 430 559 421 555 416 554 c 0
 415 554 410 554 404 555 c 2
 389 559 l 1
 382 570 378 576 374 585 c 2
 372 599 l 2
 371 613 367 637 365 650 c 0
 361 670 357 689 355 692 c 2
 349 706 l 1
EndSplineSet
Comment: "Kage: aj1-00405+AAoA-Alias: uf0195"
EndChar
StartChar: uF0196
Encoding: 983446 983446 78
Width: 500
VWidth: 0
Flags: MW
LayerCount: 2
Back
Fore
SplineSet
128 -79 m 1
 121 -81 123 -75 133 -64 c 0
 165 -28 186 10 212 66 c 0
 236 120 257 188 275 262 c 0
 293 336 309 434 319 522 c 2
 324 560 l 1
 321 583 l 2
 319 597 322 622 336 626 c 1
 372 608 l 1
 359 604 353 621 351 633 c 0
 348 657 347 665 343 686 c 0
 340 701 339 709 338 711 c 0
 336 716 336 734 348 740 c 1
 342 739 348 745 355 746 c 0
 362 744 369 738 371 736 c 0
 375 732 379 727 380 726 c 0
 391 714 403 693 412 673 c 0
 416 663 427 636 430 622 c 2
 432 610 l 1
 431 597 l 2
 430 589 428 585 428 586 c 1
 426 577 411 563 411 563 c 1
 413 565 411 560 408 551 c 0
 405 543 401 532 399 527 c 0
 397 522 397 521 394 496 c 0
 392 482 387 445 382 419 c 0
 365 322 344 244 320 170 c 1
 304 143 306 143 291 92 c 0
 281 69 276 59 264 35 c 0
 251 11 247 2 232 -19 c 0
 216 -42 214 -44 198 -62 c 0
 183 -77 181 -82 160 -99 c 0
 150 -107 146 -97 117 -101 c 1
 123 -114 115 -86 128 -79 c 1
114 553 m 0
 113 564 129 578 134 579 c 0
 143 577 151 567 153 563 c 0
 179 526 201 478 219 410 c 0
 225 388 232 360 232 354 c 0
 232 353 232 346 231 339 c 2
 227 323 l 1
 218 316 213 310 201 302 c 1
 187 304 l 2
 182 305 179 306 180 306 c 1
 171 309 163 321 161 325 c 1
 167 326 164 325 153 347 c 1
 150 382 144 420 137 455 c 0
 134 471 116 547 114 553 c 0
374 785 m 1
 381 797 l 2
 383 799 389 803 395 804 c 0
 398 804 406 801 410 797 c 0
 412 795 415 791 418 788 c 0
 427 780 437 766 445 753 c 0
 451 741 464 714 470 698 c 2
 475 685 l 1
 473 670 l 2
 472 665 471 661 471 659 c 0
 468 651 443 629 432 631 c 1
 433 631 422 631 421 632 c 0
 417 633 407 644 403 650 c 2
 398 660 l 1
 395 676 l 2
 392 713 385 759 379 770 c 2
 374 785 l 1
EndSplineSet
Comment: "Kage: aj1-00406+AAoA-Alias: uf0196"
EndChar
StartChar: uF0198
Encoding: 983448 983448 80
Width: 500
VWidth: 0
Flags: MW
LayerCount: 2
Back
Fore
SplineSet
98 325 m 1
 98 325 105 325 112 321 c 2
 115 318 l 1
 142 319 173 319 203 319 c 1
 221 323 l 2
 232 326 245 328 247 328 c 1
 238 324 233 368 232 415 c 2
 231 445 l 1
 228 456 l 2
 227 464 236 458 240 457 c 0
 240 457 239 456 233 453 c 0
 219 446 197 438 185 434 c 0
 168 429 144 423 129 422 c 1
 101 430 102 443 101 443 c 2
 103 455 l 1
 113 462 l 2
 116 463 126 467 133 472 c 0
 197 506 236 535 281 585 c 0
 296 601 295 600 306 624 c 1
 331 657 l 1
 346 649 l 2
 348 647 354 636 360 626 c 0
 365 618 353 616 344 603 c 1
 344 605 335 650 334 652 c 2
 329 666 l 1
 334 676 337 679 351 686 c 1
 366 675 l 2
 366 674 368 673 372 670 c 0
 382 660 400 631 409 610 c 0
 413 600 423 574 426 561 c 2
 428 549 l 1
 427 536 l 2
 426 529 425 526 425 526 c 1
 423 518 416 511 412 507 c 2
 397 496 l 1
 383 499 l 2
 381 500 378 499 377 499 c 0
 369 501 361 509 358 516 c 2
 352 529 l 1
 349 545 l 2
 348 554 352 573 363 577 c 1
 377 566 362 544 353 536 c 0
 343 528 332 520 329 518 c 0
 328 517 319 512 311 505 c 0
 302 497 288 486 282 482 c 1
 278 490 l 1
 288 495 l 1
 299 492 309 489 306 489 c 1
 319 483 319 461 315 447 c 2
 310 423 l 1
 309 380 l 2
 309 355 308 332 308 328 c 2
 304 334 l 1
 295 339 l 2
 294 339 303 343 317 348 c 2
 348 359 l 1
 373 342 l 2
 383 335 393 328 395 326 c 0
 399 320 400 315 400 314 c 0
 401 311 403 306 405 301 c 0
 407 297 403 299 395 301 c 1
 410 287 372 269 344 267 c 2
 303 268 l 1
 307 274 l 2
 307 271 305 251 303 229 c 0
 297 146 287 83 271 25 c 0
 264 1 263 -6 254 -28 c 0
 245 -50 239 -56 230 -73 c 0
 220 -92 218 -98 204 -114 c 0
 192 -129 185 -134 172 -146 c 0
 163 -154 160 -144 131 -150 c 1
 138 -163 126 -148 130 -132 c 0
 134 -129 136 -125 143 -115 c 0
 176 -69 197 -20 211 43 c 0
 222 95 230 160 232 235 c 0
 233 256 233 273 233 274 c 1
 238 265 235 260 178 252 c 2
 128 245 l 1
 124 242 l 2
 121 240 124 256 96 257 c 1
 96 245 86 320 98 325 c 1
374 732 m 1
 370 727 383 742 397 743 c 1
 403 739 416 727 421 721 c 0
 426 715 435 706 442 693 c 0
 448 681 460 655 466 638 c 2
 471 623 l 1
 468 607 l 2
 467 603 463 609 452 613 c 1
 467 601 457 583 455 581 c 2
 441 570 l 1
 428 570 422 571 410 574 c 1
 401 585 398 593 394 601 c 2
 391 618 l 2
 389 653 380 698 375 709 c 0
 373 712 372 729 374 732 c 1
EndSplineSet
Comment: "Kage: aj1-00408+AAoA-Alias: uf0198"
EndChar
StartChar: uF0199
Encoding: 983449 983449 81
Width: 500
VWidth: 0
Flags: MW
LayerCount: 2
Back
Fore
SplineSet
91 527 m 0
 92 534 105 547 112 548 c 0
 117 547 128 539 134 531 c 0
 150 511 159 495 171 464 c 0
 182 436 193 403 199 365 c 2
 201 352 l 1
 199 338 l 2
 198 330 196 326 196 328 c 1
 194 319 185 313 183 311 c 2
 169 300 l 1
 157 302 152 302 138 308 c 1
 132 318 128 323 123 334 c 2
 122 352 l 2
 120 386 116 414 110 445 c 0
 107 464 98 502 94 516 c 0
 93 519 91 523 91 527 c 0
126 -99 m 1
 144 -69 l 1
 193 -4 233 80 268 193 c 0
 296 283 319 392 337 515 c 2
 343 553 l 1
 341 575 l 2
 339 589 342 613 356 618 c 1
 372 611 l 1
 358 607 353 622 352 626 c 0
 348 659 340 703 337 712 c 0
 335 716 336 734 348 740 c 1
 342 739 348 745 355 746 c 0
 362 744 369 738 371 736 c 0
 375 732 379 727 380 726 c 0
 391 714 403 693 412 673 c 0
 416 663 427 636 430 622 c 2
 432 610 l 1
 431 596 l 2
 430 589 425 594 413 600 c 1
 427 589 420 572 418 570 c 2
 419 579 l 1
 421 586 l 1
 427 583 426 583 432 579 c 1
 436 564 418 521 415 514 c 1
 415 515 413 502 411 489 c 0
 405 451 389 375 377 328 c 0
 342 184 297 70 244 -14 c 0
 230 -36 225 -43 210 -62 c 0
 196 -80 188 -86 174 -100 c 0
 164 -109 160 -100 146 -90 c 1
 133 -97 132 -110 132 -110 c 2
 126 -99 l 1
200 615 m 1
 194 614 193 614 195 615 c 2
 206 620 l 1
 227 604 l 1
 251 574 269 536 284 477 c 0
 289 460 295 432 295 427 c 0
 295 424 293 416 292 413 c 2
 289 398 l 1
 277 386 l 2
 273 383 265 378 259 377 c 0
 256 377 251 378 247 379 c 2
 232 384 l 1
 225 396 222 403 218 411 c 2
 216 430 l 2
 214 464 207 502 201 531 c 0
 196 554 191 577 189 585 c 0
 187 590 188 610 200 615 c 1
374 785 m 1
 381 797 l 2
 383 799 389 803 395 804 c 0
 398 804 406 801 410 797 c 0
 412 795 415 791 418 788 c 0
 427 780 437 766 445 753 c 0
 451 741 464 714 470 698 c 2
 475 685 l 1
 473 670 l 2
 472 665 471 661 471 659 c 0
 468 651 443 629 432 631 c 1
 433 631 422 631 421 632 c 0
 417 633 407 644 403 650 c 2
 398 660 l 1
 395 676 l 2
 392 713 385 759 379 770 c 2
 374 785 l 1
EndSplineSet
Comment: "Kage: aj1-00409+AAoA-Alias: uf0199"
EndChar
StartChar: uF019A
Encoding: 983450 983450 82
Width: 500
VWidth: 0
Flags: MW
LayerCount: 2
Back
Fore
SplineSet
92 399 m 0
 98 400 105 400 112 396 c 2
 115 393 l 1
 144 394 175 393 206 393 c 1
 236 400 269 407 300 414 c 1
 320 423 l 2
 333 428 347 433 351 433 c 0
 357 432 368 426 381 417 c 2
 402 399 l 1
 406 388 l 2
 407 384 408 380 410 377 c 0
 412 372 415 365 415 362 c 0
 411 351 372 343 314 339 c 2
 227 333 l 2
 194 329 158 323 127 320 c 1
 124 318 l 2
 121 316 124 330 95 326 c 1
 100 314 82 388 92 399 c 0
232 359 m 1
 244 354 l 1
 230 350 226 340 226 341 c 2
 230 354 l 1
 264 360 l 2
 278 361 289 361 289 361 c 1
 300 357 304 340 304 332 c 0
 304 324 300 328 289 332 c 1
 301 327 304 299 302 292 c 0
 301 291 301 276 299 260 c 0
 290 164 267 70 235 -5 c 0
 223 -34 205 -67 191 -89 c 0
 181 -106 144 -153 135 -155 c 1
 123 -151 120 -145 121 -148 c 2
 113 -135 l 1
 127 -106 l 1
 179 -8 209 95 221 211 c 0
 224 237 225 276 225 294 c 0
 229 315 229 313 222 316 c 1
 220 325 218 332 217 333 c 0
 215 338 218 355 232 359 c 1
146 619 m 0
 149 619 158 614 160 613 c 2
 161 613 l 1
 176 613 192 612 207 612 c 2
 235 619 l 2
 266 625 264 625 279 632 c 0
 289 637 301 642 305 642 c 0
 311 641 322 633 330 627 c 2
 349 609 l 1
 352 600 l 2
 352 600 355 595 357 589 c 0
 359 583 361 576 361 573 c 0
 357 562 335 556 312 554 c 0
 282 552 271 551 226 545 c 2
 178 539 l 1
 174 536 l 2
 169 533 173 547 144 551 c 1
 144 539 133 613 146 619 c 0
333 713 m 1
 339 723 341 725 354 731 c 1
 373 718 l 1
 393 696 408 668 422 628 c 0
 424 621 429 612 431 604 c 2
 432 593 l 2
 431 584 430 575 427 562 c 1
 419 555 414 549 400 541 c 1
 387 544 l 2
 385 545 383 544 382 544 c 0
 374 546 366 555 362 562 c 2
 356 574 l 1
 353 597 l 2
 352 608 351 624 349 634 c 0
 346 658 339 690 337 697 c 2
 333 713 l 1
378 778 m 1
 374 772 385 788 394 790 c 0
 401 789 421 772 426 767 c 0
 433 760 443 743 449 732 c 0
 454 723 466 697 470 683 c 2
 475 669 l 1
 472 653 l 2
 471 649 467 654 456 658 c 1
 471 646 461 628 459 626 c 2
 445 615 l 1
 432 615 424 616 413 621 c 1
 403 634 l 1
 397 657 400 661 396 654 c 1
 396 659 394 678 392 693 c 0
 389 716 382 750 380 754 c 0
 378 756 376 775 378 778 c 1
EndSplineSet
Comment: "Kage: aj1-00410+AAoA-Alias: uf019a"
EndChar
StartChar: uF019B
Encoding: 983451 983451 83
Width: 500
VWidth: 0
Flags: MW
LayerCount: 2
Back
Fore
SplineSet
162 708 m 0
 162 713 170 725 178 727 c 0
 185 725 197 710 207 700 c 0
 221 684 228 677 235 671 c 0
 246 663 264 641 261 644 c 1
 264 639 258 620 255 617 c 2
 252 615 l 1
 254 482 l 1
 251 352 l 1
 252 355 l 1
 276 347 302 329 324 303 c 0
 340 284 353 260 365 238 c 1
 352 234 360 208 374 206 c 1
 375 194 l 1
 365 181 l 1
 360 187 363 180 337 162 c 1
 323 163 l 1
 314 171 311 174 303 182 c 2
 296 197 l 2
 281 238 262 274 240 300 c 1
 244 310 l 1
 254 109 l 1
 252 -111 l 1
 242 -122 l 2
 237 -126 233 -129 227 -132 c 2
 211 -138 l 1
 196 -124 l 2
 188 -113 187 -110 182 -100 c 0
 175 -83 175 -80 169 -52 c 2
 162 -18 l 1
 167 -3 172 9 175 16 c 0
 175 225 175 439 175 649 c 1
 169 674 l 2
 166 689 162 704 162 708 c 0
278 620 m 1
 287 631 l 2
 284 627 286 632 298 636 c 0
 306 635 328 615 335 603 c 0
 341 593 350 578 356 563 c 0
 360 553 371 526 374 513 c 2
 376 501 l 1
 374 490 373 483 370 470 c 1
 363 463 358 455 345 447 c 1
 330 449 l 2
 325 450 309 468 324 481 c 1
 311 473 307 465 305 470 c 1
 317 471 315 469 298 491 c 1
 297 507 295 524 293 541 c 0
 290 562 283 598 281 604 c 2
 278 620 l 1
317 677 m 1
 326 688 l 2
 324 684 327 692 338 696 c 0
 342 695 351 691 355 687 c 0
 358 684 361 680 363 678 c 0
 374 668 384 656 393 640 c 0
 399 630 409 604 414 590 c 2
 419 576 l 1
 418 564 417 555 413 542 c 1
 402 532 l 2
 400 531 393 523 385 521 c 0
 384 521 379 521 373 522 c 2
 358 525 l 1
 347 541 l 2
 348 543 344 545 340 559 c 0
 337 596 334 621 327 648 c 0
 325 655 324 660 324 660 c 2
 317 677 l 1
EndSplineSet
Comment: "Kage: aj1-00411+AAoA-Alias: uf019b"
EndChar
StartChar: uF019C
Encoding: 983452 983452 84
Width: 500
VWidth: 0
Flags: MW
LayerCount: 2
Back
Fore
SplineSet
65 33 m 0
 67 35 66 37 70 46 c 0
 101 132 125 221 141 296 c 0
 151 344 163 403 168 436 c 2
 170 454 l 1
 169 480 l 2
 168 495 171 518 182 523 c 0
 187 523 256 485 259 483 c 0
 264 474 244 421 244 419 c 0
 242 413 239 401 235 383 c 0
 213 286 193 220 164 144 c 0
 147 100 126 58 106 26 c 0
 101 19 97 25 98 23 c 0
 84 1 62 15 65 33 c 0
268 478 m 1
 272 485 273 488 288 497 c 1
 308 482 l 1
 326 463 344 433 358 403 c 0
 385 342 411 261 430 161 c 2
 435 134 l 1
 433 120 l 2
 432 114 428 121 416 126 c 1
 430 117 423 97 418 92 c 2
 402 82 l 1
 392 84 387 83 372 89 c 1
 366 99 362 104 358 113 c 2
 353 140 l 2
 346 194 335 252 323 303 c 0
 310 355 297 400 276 451 c 1
 268 478 l 1
315 631 m 1
 320 639 322 643 336 650 c 1
 349 644 l 2
 350 643 355 637 359 633 c 0
 381 610 397 572 410 527 c 2
 415 513 l 1
 413 499 l 2
 412 493 411 490 411 490 c 1
 409 482 402 475 398 471 c 2
 384 460 l 1
 371 462 l 2
 372 462 365 462 359 464 c 2
 351 468 l 1
 346 477 342 484 338 493 c 2
 335 516 l 2
 334 527 333 544 331 553 c 0
 328 576 321 610 318 617 c 2
 315 631 l 1
360 696 m 2
 356 690 367 706 376 708 c 0
 383 707 406 687 411 680 c 0
 426 663 442 633 452 600 c 2
 456 588 l 1
 455 572 l 2
 454 564 449 571 437 577 c 1
 451 568 445 548 441 544 c 2
 428 534 l 1
 416 534 408 534 395 539 c 1
 387 549 384 555 379 564 c 1
 377 581 l 2
 375 609 372 636 365 661 c 0
 363 667 361 672 361 672 c 1
 357 677 360 696 360 696 c 2
EndSplineSet
Comment: "Kage: aj1-00412+AAoA-Alias: uf019c"
EndChar
StartChar: uF019D
Encoding: 983453 983453 85
Width: 500
VWidth: 0
Flags: MW
LayerCount: 2
Back
Fore
SplineSet
65 33 m 0
 67 35 66 37 70 46 c 0
 101 132 125 221 141 296 c 0
 151 344 163 403 168 436 c 2
 170 454 l 1
 169 479 l 2
 168 494 171 518 182 523 c 0
 187 523 256 485 259 483 c 0
 264 474 244 421 244 419 c 0
 242 413 239 401 235 383 c 0
 213 286 193 220 164 144 c 0
 147 100 126 58 106 26 c 0
 101 19 97 25 98 23 c 0
 84 1 62 15 65 33 c 0
268 478 m 1
 272 485 273 488 288 497 c 1
 308 482 l 1
 326 463 344 433 358 403 c 0
 385 342 411 261 430 161 c 2
 435 134 l 1
 433 120 l 2
 432 114 428 121 416 126 c 1
 430 117 423 97 418 92 c 2
 402 82 l 1
 392 84 387 83 372 89 c 1
 366 99 362 104 358 113 c 2
 353 140 l 2
 346 194 335 252 323 303 c 0
 310 355 297 400 276 451 c 1
 268 478 l 1
322 521 m 0
 316 553 316 587 322 618 c 0
 329 653 352 683 375 690 c 1
 399 689 400 685 395 692 c 1
 404 690 416 684 424 677 c 0
 443 658 455 620 455 577 c 0
 455 559 454 548 451 532 c 0
 445 501 432 478 412 464 c 0
 377 442 334 470 322 521 c 0
377 573 m 0
 377 552 390 512 390 515 c 1
 385 512 388 526 396 544 c 0
 403 565 403 586 396 608 c 0
 389 630 393 635 400 634 c 1
 390 628 377 592 377 573 c 0
EndSplineSet
Comment: "Kage: aj1-00413+AAoA-Alias: uf019d"
EndChar
StartChar: uF019E
Encoding: 983454 983454 86
Width: 500
VWidth: 0
Flags: MW
LayerCount: 2
Back
Fore
SplineSet
117 635 m 0
 117 637 121 649 132 653 c 0
 138 652 151 639 161 628 c 0
 176 611 181 603 190 596 c 0
 197 590 208 580 211 576 c 2
 220 561 l 1
 212 547 207 541 206 541 c 2
 207 419 l 2
 207 348 203 301 192 305 c 0
 188 304 225 341 240 357 c 0
 261 381 267 389 288 416 c 2
 308 441 l 1
 314 457 321 473 340 500 c 1
 368 475 l 1
 399 435 406 424 401 410 c 0
 398 407 354 367 348 363 c 0
 346 362 341 356 335 350 c 0
 295 309 254 279 211 257 c 1
 205 257 l 1
 207 164 l 2
 207 61 208 54 211 42 c 0
 214 28 218 18 219 18 c 0
 222 16 225 15 232 13 c 0
 242 10 247 11 272 13 c 0
 298 15 306 16 334 23 c 2
 353 26 l 2
 362 24 367 23 379 18 c 1
 388 5 l 2
 390 0 394 -8 395 -13 c 0
 395 -15 394 -22 393 -28 c 2
 388 -43 l 1
 380 -49 377 -56 366 -63 c 1
 347 -67 l 2
 309 -76 276 -82 254 -81 c 0
 218 -80 197 -74 175 -59 c 0
 168 -54 150 -31 160 -16 c 1
 153 -22 152 -35 151 -33 c 0
 149 -28 148 -23 148 -22 c 1
 148 -24 147 -23 145 -19 c 0
 141 -9 136 8 134 16 c 0
 133 20 131 28 130 34 c 0
 128 47 129 55 129 313 c 2
 129 576 l 1
 122 601 l 2
 119 617 117 632 117 635 c 0
313 670 m 1
 320 682 l 2
 323 685 328 689 334 690 c 0
 340 689 348 683 351 680 c 0
 354 677 359 671 361 668 c 0
 371 657 385 635 394 614 c 0
 399 602 409 573 411 562 c 2
 412 552 l 2
 411 542 410 534 406 521 c 1
 399 514 393 509 382 501 c 1
 367 501 l 2
 359 503 345 522 360 534 c 1
 346 525 344 514 341 521 c 2
 336 533 l 1
 333 553 l 2
 332 563 331 579 329 589 c 0
 326 612 319 651 316 657 c 2
 313 670 l 1
353 727 m 1
 360 740 l 2
 360 740 366 746 374 748 c 0
 377 748 385 745 389 741 c 0
 390 740 392 738 396 734 c 0
 409 723 422 704 431 687 c 0
 436 677 446 654 450 642 c 2
 455 628 l 1
 454 615 451 608 449 596 c 1
 439 585 l 2
 436 583 429 576 421 574 c 1
 422 574 418 573 409 574 c 2
 393 579 l 1
 384 591 l 1
 378 616 380 619 375 623 c 1
 373 654 364 703 359 713 c 2
 353 727 l 1
EndSplineSet
Comment: "Kage: aj1-00414+AAoA-Alias: uf019e"
EndChar
StartChar: uF019F
Encoding: 983455 983455 87
Width: 500
VWidth: 0
Flags: MW
LayerCount: 2
Back
Fore
SplineSet
117 635 m 0
 117 637 121 649 132 653 c 0
 138 652 151 639 161 628 c 0
 176 611 181 603 190 596 c 0
 197 590 208 580 211 576 c 2
 220 561 l 1
 212 547 207 541 206 541 c 2
 207 418 l 2
 207 347 203 301 192 305 c 0
 188 304 225 341 240 357 c 0
 261 381 267 389 288 416 c 2
 308 441 l 1
 314 457 321 473 340 500 c 1
 368 475 l 1
 400 433 406 421 401 409 c 0
 398 406 354 367 348 363 c 0
 346 362 341 356 335 350 c 0
 295 309 254 279 211 257 c 1
 205 257 l 1
 207 164 l 2
 207 61 208 54 211 42 c 0
 214 28 218 18 219 18 c 0
 222 16 225 15 232 13 c 0
 242 10 247 11 272 13 c 0
 298 15 306 16 334 23 c 2
 353 26 l 2
 362 24 367 23 379 18 c 1
 388 5 l 2
 390 0 394 -8 395 -13 c 0
 395 -15 394 -22 393 -28 c 2
 388 -43 l 1
 380 -49 377 -56 366 -63 c 1
 347 -67 l 2
 309 -76 276 -82 254 -81 c 0
 218 -80 197 -74 175 -59 c 0
 168 -54 150 -31 160 -16 c 1
 153 -22 152 -35 151 -33 c 0
 149 -28 148 -23 148 -22 c 1
 148 -24 147 -23 145 -19 c 0
 141 -9 136 8 134 16 c 0
 133 20 131 28 130 34 c 0
 128 47 129 55 129 313 c 2
 129 576 l 1
 122 601 l 2
 119 617 117 632 117 635 c 0
317 594 m 0
 316 616 317 636 320 654 c 0
 322 663 325 672 326 675 c 0
 335 703 354 724 373 730 c 1
 393 731 396 728 392 732 c 1
 406 731 423 718 432 706 c 0
 456 672 461 591 442 543 c 0
 437 532 434 527 428 520 c 0
 418 506 407 500 395 496 c 0
 354 488 320 533 317 594 c 0
387 556 m 1
 382 554 l 1
 375 556 l 1
 392 579 399 624 384 654 c 0
 380 665 378 672 377 672 c 0
 368 682 377 675 386 670 c 1
 364 638 364 590 387 556 c 1
EndSplineSet
Comment: "Kage: aj1-00415+AAoA-Alias: uf019f"
EndChar
StartChar: uF01A0
Encoding: 983456 983456 88
Width: 500
VWidth: 0
Flags: MW
LayerCount: 2
Back
Fore
SplineSet
109 543 m 1
 122 547 130 545 134 542 c 2
 136 541 l 1
 181 540 l 2
 231 539 232 539 283 543 c 2
 329 545 l 1
 337 556 l 2
 343 563 354 574 360 575 c 0
 366 574 382 557 394 543 c 0
 412 521 421 506 413 494 c 0
 412 493 390 481 394 486 c 0
 395 490 393 474 391 455 c 0
 381 379 360 288 342 220 c 0
 308 96 263 -1 208 -71 c 0
 194 -88 189 -94 173 -109 c 0
 163 -118 151 -129 144 -130 c 0
 137 -129 130 -123 128 -119 c 2
 124 -107 l 1
 143 -78 l 1
 202 0 245 105 277 242 c 0
 291 304 307 399 314 467 c 0
 316 484 318 498 318 499 c 2
 323 491 l 1
 297 484 l 1
 262 482 254 482 203 474 c 2
 150 467 l 1
 147 464 l 2
 142 461 147 475 132 488 c 1
 120 482 105 530 109 543 c 1
329 711 m 1
 334 721 337 724 350 731 c 1
 369 719 l 2
 375 713 381 705 383 702 c 0
 400 680 416 645 426 606 c 2
 428 594 l 1
 427 581 l 2
 426 574 425 571 425 571 c 1
 423 563 416 556 412 552 c 2
 397 541 l 1
 383 544 l 2
 381 545 379 544 378 544 c 0
 371 545 362 553 358 561 c 2
 352 574 l 1
 349 595 l 2
 348 605 346 621 345 630 c 0
 343 650 334 693 333 698 c 2
 329 711 l 1
385 781 m 1
 376 778 373 777 376 781 c 0
 377 782 391 791 407 777 c 1
 406 778 405 782 410 778 c 0
 425 765 435 750 444 734 c 0
 451 722 462 693 468 677 c 2
 471 669 l 1
 468 652 l 2
 467 648 463 654 452 658 c 1
 467 646 457 628 455 626 c 2
 441 615 l 1
 428 615 422 616 410 619 c 1
 401 631 399 638 394 645 c 2
 391 663 l 2
 389 699 381 742 375 753 c 0
 373 756 372 774 385 781 c 1
EndSplineSet
Comment: "Kage: aj1-00416+AAoA-Alias: uf01a0"
EndChar
StartChar: uF01A1
Encoding: 983457 983457 89
Width: 500
VWidth: 0
Flags: MW
LayerCount: 2
Back
Fore
SplineSet
109 543 m 1
 122 547 130 545 134 542 c 2
 136 541 l 1
 181 540 l 2
 231 539 232 539 283 543 c 2
 329 545 l 1
 337 556 l 2
 343 563 354 574 360 575 c 0
 366 574 382 557 394 543 c 0
 412 521 421 506 413 494 c 0
 412 493 390 481 394 486 c 0
 395 490 393 474 391 455 c 0
 381 379 360 288 342 220 c 0
 308 96 263 -1 208 -71 c 0
 194 -88 189 -94 173 -109 c 0
 163 -118 151 -129 144 -130 c 0
 137 -129 130 -123 128 -119 c 2
 124 -107 l 1
 143 -78 l 1
 202 0 245 105 277 242 c 0
 291 304 307 399 314 467 c 0
 316 484 318 498 318 499 c 2
 323 491 l 1
 297 484 l 1
 262 482 254 482 203 474 c 2
 150 467 l 1
 147 464 l 2
 142 461 147 475 132 488 c 1
 120 482 105 530 109 543 c 1
333 628 m 0
 331 649 332 675 336 697 c 0
 343 734 366 764 390 771 c 1
 415 768 414 764 409 773 c 1
 428 771 450 750 460 725 c 0
 463 716 468 693 469 680 c 0
 470 668 470 647 469 635 c 0
 464 586 441 545 411 536 c 0
 372 529 340 569 333 628 c 0
390 654 m 0
 390 633 403 593 403 596 c 1
 402 593 412 634 412 656 c 0
 412 673 410 692 399 707 c 0
 397 711 385 732 384 727 c 1
 400 715 390 676 390 654 c 0
EndSplineSet
Comment: "Kage: aj1-00417+AAoA-Alias: uf01a1"
EndChar
StartChar: uF01A2
Encoding: 983458 983458 90
Width: 500
VWidth: 0
Flags: MW
LayerCount: 2
Back
Fore
SplineSet
35 190 m 0
 36 196 45 208 51 217 c 2
 62 234 l 1
 76 275 l 2
 85 299 97 333 104 354 c 0
 144 469 153 487 183 509 c 0
 187 512 195 516 200 517 c 0
 203 517 211 513 217 510 c 2
 229 504 l 1
 241 491 l 2
 262 465 283 426 319 345 c 0
 322 337 338 300 354 262 c 0
 370 224 393 169 406 140 c 2
 429 82 l 2
 429 72 430 67 429 53 c 1
 424 44 421 38 412 27 c 1
 397 22 l 1
 381 21 l 1
 372 27 l 1
 378 36 375 30 342 77 c 1
 325 118 303 182 287 222 c 2
 264 283 l 2
 233 364 224 385 209 418 c 0
 201 434 191 453 187 458 c 1
 188 458 204 460 209 470 c 1
 209 467 209 458 206 451 c 0
 201 436 189 397 182 370 c 0
 176 348 153 264 145 238 c 2
 143 229 l 1
 142 208 l 2
 141 195 136 195 125 200 c 1
 110 186 114 171 101 172 c 0
 88 173 72 174 64 174 c 0
 55 174 39 178 35 190 c 0
274 580 m 1
 283 591 l 2
 282 590 286 594 294 596 c 0
 302 595 325 572 332 562 c 0
 338 552 342 545 350 529 c 0
 355 517 365 488 369 472 c 2
 372 461 l 1
 370 451 370 443 367 429 c 1
 359 422 354 415 340 407 c 1
 327 410 l 2
 325 411 322 410 321 410 c 0
 312 412 305 422 302 428 c 0
 296 440 295 443 294 450 c 0
 293 467 291 484 289 501 c 0
 286 523 279 556 277 563 c 2
 274 580 l 1
318 645 m 1
 314 640 326 654 334 656 c 0
 341 655 361 637 367 630 c 0
 373 623 381 613 388 600 c 0
 393 590 405 562 410 548 c 2
 415 534 l 1
 413 520 l 2
 412 515 411 511 411 511 c 1
 410 503 397 488 391 484 c 0
 386 481 376 480 368 481 c 2
 354 486 l 1
 343 499 l 2
 336 511 336 516 336 519 c 0
 334 543 331 566 328 583 c 0
 324 603 321 617 319 620 c 0
 316 624 316 643 318 645 c 1
EndSplineSet
Comment: "Kage: aj1-00418+AAoA-Alias: uf01a2"
EndChar
StartChar: uF01A3
Encoding: 983459 983459 91
Width: 500
VWidth: 0
Flags: MW
LayerCount: 2
Back
Fore
SplineSet
35 190 m 0
 36 196 45 208 51 217 c 2
 62 234 l 1
 76 275 l 2
 85 299 97 333 104 354 c 0
 144 469 153 487 183 509 c 0
 187 512 195 516 200 517 c 0
 203 517 211 513 217 510 c 2
 229 504 l 1
 241 491 l 2
 262 465 283 426 319 345 c 0
 322 337 338 300 354 262 c 0
 370 224 393 169 406 140 c 2
 429 82 l 2
 429 72 430 67 429 53 c 1
 424 44 421 38 412 27 c 1
 397 22 l 1
 381 21 l 1
 372 27 l 1
 378 36 375 30 342 77 c 1
 325 118 303 182 287 222 c 2
 264 283 l 2
 233 364 224 385 209 418 c 0
 201 434 191 453 187 458 c 1
 188 458 204 460 209 470 c 1
 209 467 209 458 206 451 c 0
 201 436 189 397 182 370 c 0
 176 348 153 264 145 238 c 2
 143 229 l 1
 142 208 l 2
 141 195 136 195 125 200 c 1
 110 186 114 171 101 172 c 0
 88 173 72 174 64 174 c 0
 55 174 39 178 35 190 c 0
277 502 m 0
 275 539 280 574 292 599 c 0
 299 614 318 633 334 638 c 0
 335 638 340 640 347 640 c 0
 360 640 365 637 368 635 c 0
 382 628 397 612 404 590 c 0
 407 581 412 559 413 548 c 0
 414 541 413 528 413 517 c 0
 413 495 412 491 410 480 c 0
 405 455 396 435 383 421 c 0
 356 395 317 398 294 432 c 0
 285 446 279 476 277 502 c 0
334 519 m 0
 334 496 343 469 353 461 c 0
 353 460 339 458 338 463 c 0
 353 486 356 500 356 525 c 0
 352 548 349 568 339 579 c 1
 345 579 l 1
 349 576 l 1
 340 567 334 543 334 519 c 0
EndSplineSet
Comment: "Kage: aj1-00419+AAoA-Alias: uf01a3"
EndChar
StartChar: uF01A4
Encoding: 983460 983460 92
Width: 500
VWidth: 0
Flags: MW
LayerCount: 2
Back
Fore
SplineSet
74 21 m 1
 76 31 75 37 78 51 c 1
 86 61 l 2
 107 96 126 145 156 249 c 0
 162 266 166 285 167 289 c 0
 185 306 194 301 189 305 c 2
 203 300 l 1
 205 284 l 2
 205 283 204 273 204 265 c 0
 202 237 201 211 195 175 c 0
 186 117 169 54 151 16 c 2
 144 3 l 2
 138 -2 133 -8 120 -16 c 1
 105 -14 l 2
 99 -13 98 -12 99 -12 c 1
 91 -10 81 1 79 7 c 2
 74 21 l 1
98 445 m 0
 100 445 108 442 111 440 c 2
 115 439 l 1
 159 439 l 2
 205 439 205 439 213 441 c 0
 218 442 223 443 225 443 c 1
 215 439 211 476 211 535 c 2
 211 641 l 1
 205 667 l 2
 202 681 198 696 198 700 c 2
 208 718 l 1
 243 693 l 1
 257 676 263 669 272 662 c 0
 280 656 290 646 293 642 c 2
 302 625 l 1
 294 611 289 606 288 607 c 2
 289 526 l 2
 289 457 285 450 276 454 c 0
 275 454 277 455 284 457 c 0
 292 459 303 462 321 468 c 2
 352 479 l 1
 373 467 384 457 400 445 c 1
 404 433 l 2
 406 429 408 423 409 420 c 0
 411 415 408 418 399 421 c 1
 414 407 371 388 337 386 c 2
 285 387 l 1
 289 235 289 75 289 -90 c 1
 282 -104 l 2
 277 -114 273 -118 266 -124 c 0
 263 -127 263 -113 249 -104 c 1
 235 -114 218 -115 192 -97 c 2
 141 -59 l 1
 139 -46 l 1
 143 -30 154 -26 159 -26 c 0
 162 -27 225 -39 225 -39 c 0
 214 -43 211 47 211 170 c 2
 217 382 l 1
 224 378 l 2
 221 378 199 374 173 370 c 2
 129 365 l 1
 124 362 l 2
 120 360 124 376 96 377 c 1
 96 365 86 440 98 445 c 0
281 289 m 1
 290 300 l 2
 288 297 290 303 302 307 c 0
 309 306 331 282 337 272 c 0
 349 255 363 229 376 198 c 0
 390 163 402 130 415 81 c 2
 422 50 l 2
 421 39 420 32 418 20 c 1
 410 10 l 2
 407 7 402 2 399 0 c 2
 391 -4 l 1
 381 -3 375 -3 362 1 c 1
 351 15 l 2
 347 22 344 29 343 35 c 0
 341 47 334 90 329 114 c 0
 319 159 310 193 292 248 c 2
 281 289 l 1
309 670 m 1
 316 682 l 2
 316 682 322 688 330 690 c 0
 336 689 350 676 356 669 c 0
 367 657 379 637 388 616 c 0
 392 606 403 577 406 564 c 2
 408 552 l 2
 406 542 406 535 401 520 c 1
 394 515 392 509 378 500 c 1
 363 501 l 2
 357 502 341 520 356 533 c 1
 343 526 341 514 338 519 c 2
 331 533 l 1
 329 553 l 2
 327 589 318 643 313 656 c 2
 309 670 l 1
349 729 m 1
 358 740 l 2
 356 736 359 743 370 747 c 0
 376 746 388 737 397 729 c 0
 413 714 425 694 436 668 c 0
 440 658 444 645 446 641 c 2
 451 628 l 1
 450 616 449 609 445 596 c 1
 437 587 432 582 421 574 c 1
 409 574 403 574 390 577 c 1
 381 589 379 597 374 604 c 2
 372 618 l 2
 371 631 368 652 366 664 c 0
 363 685 357 708 354 713 c 2
 349 729 l 1
EndSplineSet
Comment: "Kage: aj1-00420+AAoA-Alias: uf01a4"
EndChar
StartChar: uF01A5
Encoding: 983461 983461 93
Width: 500
VWidth: 0
Flags: MW
LayerCount: 2
Back
Fore
SplineSet
74 21 m 1
 76 31 75 37 78 51 c 1
 86 61 l 2
 107 96 126 145 156 249 c 0
 162 266 166 285 167 289 c 0
 185 306 195 300 192 304 c 2
 204 296 l 1
 205 283 l 2
 205 282 204 273 204 265 c 0
 202 237 201 211 195 175 c 0
 186 117 169 54 151 16 c 2
 144 3 l 2
 138 -2 134 -8 121 -16 c 1
 106 -15 l 2
 99 -14 98 -13 99 -13 c 1
 90 -11 81 2 79 7 c 2
 74 21 l 1
98 445 m 0
 100 445 108 443 112 440 c 2
 115 438 l 1
 159 439 l 2
 205 439 205 439 213 441 c 0
 220 442 225 442 225 442 c 2
 215 438 211 476 211 535 c 2
 211 641 l 1
 205 667 l 2
 202 681 198 696 198 700 c 2
 208 718 l 1
 243 693 l 1
 257 676 263 669 272 662 c 0
 280 656 289 646 292 642 c 2
 302 626 l 1
 294 611 289 606 288 607 c 2
 289 526 l 2
 289 457 285 450 276 454 c 0
 275 454 277 455 284 457 c 0
 292 459 303 462 321 468 c 2
 352 478 l 1
 372 466 383 458 400 445 c 1
 404 433 l 2
 406 429 408 423 409 420 c 0
 411 415 408 418 399 421 c 1
 414 407 371 388 337 386 c 2
 285 387 l 1
 289 235 289 74 289 -91 c 1
 282 -105 l 2
 277 -115 273 -119 266 -125 c 0
 262 -128 263 -114 249 -104 c 1
 235 -114 218 -115 192 -97 c 2
 141 -59 l 1
 139 -46 l 1
 143 -30 154 -26 159 -26 c 0
 162 -27 225 -39 225 -39 c 0
 214 -43 211 47 211 170 c 2
 215 382 l 1
 222 378 l 2
 221 378 199 374 173 370 c 2
 129 365 l 1
 124 362 l 2
 120 360 124 376 96 377 c 1
 96 365 86 440 98 445 c 0
281 289 m 1
 290 300 l 2
 288 297 290 303 302 307 c 0
 309 306 331 282 337 272 c 0
 349 255 363 229 376 198 c 0
 390 163 401 128 414 80 c 2
 422 50 l 2
 421 39 420 32 418 20 c 1
 410 10 l 2
 407 7 402 2 399 0 c 2
 391 -4 l 1
 381 -3 375 -3 362 0 c 1
 351 14 l 2
 347 22 343 30 343 35 c 0
 341 47 334 90 329 114 c 0
 319 159 310 193 292 248 c 2
 281 289 l 1
324 537 m 0
 305 583 308 663 332 700 c 0
 342 715 357 726 370 730 c 1
 395 725 395 723 388 732 c 1
 400 731 415 721 423 712 c 0
 434 699 442 684 446 661 c 0
 452 624 449 576 438 545 c 0
 427 519 410 501 391 495 c 0
 373 492 354 497 338 514 c 0
 331 522 328 527 324 537 c 0
377 652 m 0
 366 621 369 582 388 555 c 1
 383 552 l 1
 377 555 l 1
 393 575 396 620 385 649 c 0
 381 659 378 668 376 669 c 2
 380 673 l 1
 385 671 l 2
 383 671 381 662 377 652 c 0
EndSplineSet
Comment: "Kage: aj1-00421+AAoA-Alias: uf01a5"
EndChar
StartChar: uF0204
Encoding: 983556 983556 94
Width: 500
VWidth: 0
Flags: MW
LayerCount: 2
Back
Fore
SplineSet
93 173 m 1
 92 189 94 197 94 206 c 2
 101 228 l 2
 121 285 137 337 154 410 c 0
 160 435 165 455 165 453 c 0
 171 440 184 435 172 436 c 1
 144 458 146 463 144 447 c 1
 128 476 129 479 123 470 c 1
 117 481 115 486 111 500 c 2
 108 516 l 2
 108 530 107 541 110 564 c 1
 122 573 l 1
 117 553 152 547 160 549 c 1
 171 519 171 516 176 520 c 0
 180 521 182 521 179 518 c 0
 178 515 190 579 197 621 c 2
 204 654 l 1
 203 674 l 2
 202 687 201 699 201 702 c 0
 201 704 207 719 220 725 c 0
 226 725 297 685 299 683 c 0
 308 668 302 653 295 634 c 0
 289 621 287 612 287 615 c 1
 287 612 273 538 273 538 c 1
 262 559 249 562 259 569 c 2
 279 582 l 1
 293 585 l 1
 312 586 l 1
 326 575 330 569 338 560 c 1
 340 542 l 2
 340 535 340 529 340 528 c 0
 339 520 331 510 329 507 c 2
 321 496 l 1
 289 477 l 2
 274 468 259 460 255 457 c 0
 251 455 256 461 259 470 c 1
 259 466 255 457 254 451 c 0
 249 429 240 388 234 365 c 0
 231 354 225 360 210 367 c 1
 203 366 199 364 201 366 c 2
 211 377 l 1
 229 381 l 1
 224 365 259 355 266 371 c 1
 274 365 278 360 284 349 c 0
 288 343 292 332 292 331 c 0
 293 329 300 301 302 290 c 0
 303 284 296 290 283 295 c 1
 275 293 309 329 322 344 c 0
 347 368 344 366 347 382 c 0
 353 395 365 414 367 415 c 0
 377 418 407 389 428 360 c 0
 436 348 444 333 439 319 c 0
 437 316 425 306 412 295 c 0
 395 281 385 273 377 268 c 0
 372 265 365 261 360 257 c 0
 348 246 321 223 310 213 c 1
 306 212 l 1
 308 207 l 1
 309 178 310 139 311 104 c 2
 310 64 l 1
 306 51 l 2
 305 47 297 32 290 28 c 1
 293 29 275 17 268 16 c 0
 261 16 239 27 235 31 c 0
 232 35 228 44 227 48 c 2
 222 61 l 1
 223 96 l 2
 223 113 223 137 223 151 c 1
 236 158 l 1
 253 157 l 1
 247 151 227 122 218 107 c 0
 213 99 208 90 206 86 c 2
 204 80 l 1
 203 66 l 2
 201 53 202 51 203 30 c 2
 203 12 l 1
 207 1 l 1
 203 -2 201 0 215 -14 c 0
 223 -24 222 -23 224 -23 c 0
 228 -26 230 -27 237 -28 c 0
 243 -30 243 -29 255 -28 c 0
 278 -27 293 -23 311 -10 c 0
 325 -1 329 1 337 2 c 2
 356 3 l 1
 368 -6 373 -9 383 -20 c 1
 386 -33 l 2
 386 -34 383 -31 383 -30 c 1
 388 -38 390 -45 390 -56 c 2
 389 -75 l 1
 382 -85 377 -93 369 -102 c 1
 352 -110 l 2
 332 -120 310 -125 286 -128 c 0
 270 -130 265 -131 248 -129 c 0
 228 -126 225 -125 212 -120 c 1
 185 -91 186 -88 179 -100 c 1
 165 -86 l 2
 157 -73 150 -63 142 -49 c 1
 139 -31 137 -16 134 -0 c 1
 136 29 l 2
 138 43 140 59 142 63 c 1
 142 61 141 62 141 65 c 0
 141 70 142 79 147 97 c 0
 154 123 156 125 164 144 c 0
 177 173 193 199 214 225 c 2
 224 237 l 1
 223 243 l 1
 223 276 220 308 216 316 c 0
 216 316 223 313 222 312 c 2
 224 314 l 1
 227 315 l 2
 226 314 223 309 220 303 c 0
 215 294 215 293 209 272 c 0
 199 241 193 220 184 194 c 2
 175 169 l 1
 168 160 164 156 153 146 c 1
 139 144 132 143 116 144 c 1
 105 156 100 161 93 173 c 1
EndSplineSet
Comment: "Kage: aj1-00516+AAoA-Alias: uf0204"
EndChar
StartChar: uF0205
Encoding: 983557 983557 95
Width: 500
VWidth: 0
Flags: MW
LayerCount: 2
Back
Fore
SplineSet
320 88 m 1
 318 87 332 94 334 94 c 1
 321 87 319 75 318 79 c 0
 315 86 315 91 315 117 c 0
 314 163 311 182 299 199 c 0
 291 215 312 232 317 190 c 1
 304 126 283 47 269 9 c 0
 263 -6 264 -2 265 1 c 1
 265 -2 266 -7 266 -14 c 2
 267 -30 l 1
 261 -40 257 -47 247 -58 c 1
 236 -60 l 2
 237 -60 233 -62 230 -62 c 0
 227 -63 231 -61 233 -61 c 1
 226 -72 211 -88 199 -98 c 2
 186 -108 l 1
 172 -110 l 2
 163 -110 153 -107 149 -104 c 0
 145 -87 144 -92 158 -107 c 1
 157 -107 149 -107 143 -104 c 0
 127 -86 129 -80 126 -91 c 1
 125 -88 122 -82 121 -78 c 0
 119 -69 116 -43 117 -29 c 2
 118 -26 l 1
 117 -24 l 2
 113 -17 107 -4 105 6 c 0
 103 14 102 20 105 28 c 1
 106 23 107 20 105 27 c 0
 104 32 103 36 105 50 c 0
 111 91 124 134 143 163 c 0
 150 176 166 199 172 204 c 1
 173 203 l 1
 172 210 l 1
 174 248 176 295 178 317 c 1
 181 312 l 1
 188 306 l 1
 176 307 161 317 152 328 c 0
 141 342 135 366 135 393 c 0
 135 399 134 408 134 412 c 0
 134 425 143 435 154 436 c 2
 164 433 l 1
 173 420 l 1
 175 406 182 390 187 389 c 0
 187 388 181 387 183 389 c 1
 183 388 188 393 193 395 c 0
 195 396 188 392 185 406 c 0
 186 416 188 439 190 454 c 2
 193 480 l 1
 190 502 l 2
 188 515 187 528 187 530 c 0
 191 543 206 547 211 545 c 0
 222 540 279 511 277 512 c 1
 283 507 282 483 277 469 c 2
 269 447 l 1
 267 429 l 2
 266 418 265 408 265 408 c 1
 250 421 237 414 247 423 c 0
 253 429 262 435 268 443 c 0
 272 448 278 454 286 458 c 2
 302 465 l 1
 316 460 l 2
 319 459 327 456 331 453 c 0
 335 448 336 440 338 436 c 2
 342 421 l 1
 337 405 l 2
 334 396 333 391 317 373 c 0
 303 358 277 338 259 328 c 0
 255 326 259 341 258 343 c 1
 257 330 252 254 252 242 c 1
 248 249 235 253 237 254 c 0
 237 254 238 255 245 258 c 2
 252 260 l 2
 251 260 251 268 253 275 c 2
 251 299 l 2
 250 313 253 337 258 341 c 0
 263 343 345 299 347 287 c 1
 329 262 l 1
 321 268 327 265 327 265 c 1
 336 262 353 245 362 232 c 0
 376 211 389 179 395 142 c 0
 397 128 398 124 396 114 c 0
 395 113 391 125 385 129 c 1
 396 121 399 75 397 58 c 0
 395 40 393 26 389 10 c 0
 385 -9 376 -35 372 -41 c 0
 372 -41 370 -45 368 -50 c 0
 357 -72 340 -97 326 -110 c 0
 311 -125 294 -136 279 -142 c 0
 270 -145 257 -148 244 -149 c 2
 225 -147 l 1
 218 -133 l 2
 218 -129 222 -115 233 -111 c 1
 230 -111 230 -111 234 -109 c 0
 251 -100 269 -82 281 -62 c 0
 290 -46 297 -28 301 -13 c 0
 306 5 311 23 315 42 c 0
 318 57 319 56 317 62 c 0
 317 69 319 87 320 88 c 1
171 -27 m 1
 169 -24 166 -20 171 -24 c 2
 164 -23 l 1
 156 -24 l 1
 164 -17 176 -3 181 8 c 1
 181 6 l 1
 179 13 l 2
 176 30 173 67 172 94 c 0
 171 107 171 122 171 124 c 2
 184 115 l 1
 198 122 l 2
 196 117 190 98 188 88 c 0
 185 74 183 58 182 42 c 0
 181 35 180 25 176 19 c 1
 178 23 178 31 178 32 c 1
 180 25 180 16 176 -0 c 0
 171 -21 170 -26 171 -27 c 1
236 135 m 1
 221 128 l 1
 224 140 235 186 239 206 c 0
 241 219 244 228 244 227 c 1
 259 243 270 216 256 212 c 1
 245 213 251 213 254 209 c 1
 250 206 l 1
 251 203 l 2
 251 198 251 177 251 157 c 1
 236 135 l 1
EndSplineSet
Comment: "Kage: aj1-00517+AAoA-Alias: uf0205"
EndChar
StartChar: uF0206
Encoding: 983558 983558 96
Width: 500
VWidth: 0
Flags: MW
LayerCount: 2
Back
Fore
SplineSet
89 185 m 0
 89 238 92 306 98 365 c 2
 100 384 l 1
 97 404 l 2
 95 417 94 431 94 434 c 1
 95 429 95 445 113 457 c 0
 119 457 153 441 182 426 c 1
 201 411 l 1
 199 389 l 2
 197 384 193 375 190 367 c 0
 159 336 170 378 183 313 c 1
 181 277 177 219 177 190 c 0
 177 158 180 112 182 85 c 0
 184 61 188 28 192 16 c 1
 175 24 l 1
 158 19 l 1
 174 86 189 143 207 199 c 1
 220 224 l 1
 239 225 l 2
 244 223 255 214 258 203 c 0
 258 199 248 120 243 87 c 0
 235 25 232 -19 233 -30 c 0
 234 -37 233 -45 232 -50 c 0
 231 -53 232 -55 232 -58 c 2
 232 -70 l 1
 225 -83 221 -88 213 -100 c 1
 201 -105 197 -107 181 -109 c 1
 164 -101 154 -95 141 -87 c 1
 131 -73 l 1
 120 -37 122 -35 111 -29 c 1
 105 -11 104 -4 100 17 c 0
 93 61 89 113 89 185 c 0
285 354 m 1
 288 369 l 2
 290 374 300 384 309 386 c 0
 312 386 322 383 328 380 c 0
 356 368 381 340 398 304 c 0
 419 260 431 205 436 134 c 2
 437 111 l 1
 433 96 l 2
 431 88 422 74 411 70 c 1
 423 76 428 85 427 80 c 0
 424 72 416 66 409 61 c 2
 392 52 l 1
 377 56 l 1
 388 68 363 95 350 81 c 1
 345 96 l 1
 344 115 l 2
 344 141 341 186 338 210 c 0
 330 266 318 302 295 336 c 2
 285 354 l 1
EndSplineSet
Comment: "Kage: aj1-00518+AAoA-Alias: uf0206"
EndChar
StartChar: uF0207
Encoding: 983559 983559 97
Width: 500
VWidth: 0
Flags: MW
LayerCount: 2
Back
Fore
SplineSet
143 194 m 1
 137 193 137 195 145 198 c 0
 150 200 156 202 158 204 c 2
 158 196 l 1
 163 184 161 185 150 196 c 1
 157 220 l 2
 161 227 165 237 167 242 c 0
 180 267 193 289 205 303 c 0
 212 311 229 325 238 327 c 1
 229 320 226 311 226 315 c 0
 228 325 235 331 241 336 c 2
 253 345 l 1
 266 347 273 346 282 347 c 1
 295 341 l 2
 305 336 308 333 316 324 c 0
 323 315 325 311 331 299 c 0
 344 269 350 229 352 176 c 0
 353 147 353 121 347 82 c 0
 331 -31 287 -114 219 -156 c 0
 212 -159 215 -146 200 -134 c 1
 186 -143 187 -157 185 -153 c 2
 181 -141 l 1
 189 -124 l 1
 211 -92 225 -72 234 -49 c 0
 257 2 268 60 270 133 c 0
 270 144 271 162 272 170 c 0
 273 189 273 210 272 228 c 0
 270 273 266 287 256 291 c 0
 256 292 259 291 260 291 c 0
 264 293 257 282 253 275 c 0
 249 269 242 247 238 236 c 0
 235 229 229 202 226 188 c 1
 224 186 l 1
 225 186 l 2
 227 183 232 165 217 156 c 0
 215 156 146 163 146 163 c 0
 138 164 129 185 143 194 c 1
190 504 m 1
 201 514 l 2
 199 512 203 517 211 519 c 0
 217 518 225 512 228 507 c 0
 232 501 235 496 244 490 c 0
 256 481 255 479 254 481 c 2
 263 488 l 1
 275 488 284 487 297 482 c 1
 303 472 307 467 312 456 c 1
 311 443 310 436 306 423 c 1
 299 415 295 410 285 401 c 1
 273 400 l 2
 252 402 233 412 221 428 c 0
 212 440 204 456 199 471 c 0
 198 474 196 480 194 484 c 2
 190 504 l 1
EndSplineSet
Comment: "Kage: aj1-00519+AAoA-Alias: uf0207"
EndChar
StartChar: uF0208
Encoding: 983560 983560 98
Width: 500
VWidth: 0
Flags: MW
LayerCount: 2
Back
Fore
SplineSet
107 -87 m 1
 114 -65 l 2
 140 11 177 112 209 194 c 0
 223 230 241 268 249 271 c 1
 263 262 256 241 249 235 c 0
 233 222 221 213 207 202 c 1
 199 199 l 1
 200 193 l 2
 199 188 195 196 168 187 c 1
 174 174 126 260 133 278 c 1
 173 265 l 1
 159 261 155 246 155 245 c 1
 154 268 166 274 173 276 c 0
 183 278 191 280 211 286 c 0
 233 294 234 294 234 294 c 1
 237 296 245 309 251 318 c 0
 256 326 262 333 267 337 c 0
 273 340 279 343 294 342 c 2
 306 339 l 1
 315 330 l 2
 321 324 324 319 327 312 c 2
 330 303 l 1
 329 287 l 2
 327 281 328 274 322 264 c 1
 323 265 322 280 309 287 c 1
 321 281 317 250 309 230 c 0
 292 189 254 111 243 118 c 1
 246 118 l 0
 247 118 254 120 267 115 c 0
 275 111 278 108 283 102 c 0
 299 83 307 55 310 -13 c 0
 311 -40 309 -45 304 -41 c 1
 310 -43 316 -43 337 -38 c 2
 352 -36 l 1
 364 -37 l 2
 371 -40 372 -41 369 -41 c 1
 376 -43 386 -53 388 -59 c 2
 394 -72 l 1
 392 -85 391 -92 387 -105 c 1
 379 -112 374 -118 365 -124 c 1
 347 -128 l 2
 327 -132 310 -134 294 -132 c 0
 275 -126 273 -121 270 -122 c 1
 276 -117 272 -119 249 -103 c 0
 243 -94 241 -89 238 -78 c 0
 234 -63 232 -51 231 -29 c 0
 230 -13 228 64 232 72 c 1
 234 60 247 52 243 48 c 0
 238 44 238 44 237 42 c 0
 236 42 233 32 228 19 c 0
 210 -31 198 -65 190 -90 c 2
 180 -119 l 2
 174 -126 170 -132 159 -141 c 1
 148 -142 143 -143 129 -142 c 1
 120 -133 115 -128 108 -118 c 1
 107 -101 l 1
 107 -87 l 1
185 508 m 1
 193 517 l 2
 199 518 212 520 224 499 c 1
 228 480 239 462 249 456 c 0
 256 451 256 451 268 452 c 2
 285 453 l 1
 294 449 298 446 308 439 c 1
 312 429 316 423 319 409 c 1
 314 394 l 2
 313 391 311 382 307 377 c 0
 305 375 299 372 295 370 c 2
 283 363 l 1
 270 364 l 2
 246 368 226 381 210 401 c 0
 199 417 188 448 186 474 c 0
 186 480 186 487 185 491 c 2
 185 508 l 1
EndSplineSet
Comment: "Kage: aj1-00520+AAoA-Alias: uf0208"
EndChar
StartChar: uF0209
Encoding: 983561 983561 99
Width: 500
VWidth: 0
Flags: MW
LayerCount: 2
Back
Fore
SplineSet
89 -10 m 1
 87 -12 113 1 115 5 c 2
 115 5 116 -16 122 -20 c 1
 110 -10 110 6 116 15 c 0
 124 28 148 74 160 96 c 2
 165 103 l 1
 164 155 164 212 169 257 c 2
 169 252 l 1
 154 252 l 1
 143 257 l 1
 126 271 127 276 124 274 c 1
 135 277 131 275 113 298 c 1
 111 310 110 320 111 336 c 1
 117 354 l 1
 129 358 133 358 144 355 c 1
 152 336 l 2
 155 325 158 321 162 319 c 1
 155 320 149 319 155 321 c 1
 155 321 161 325 165 327 c 1
 166 326 l 1
 164 365 164 412 164 457 c 1
 158 482 l 2
 155 496 152 509 152 513 c 0
 152 518 160 530 168 532 c 0
 174 531 187 518 197 507 c 0
 211 491 219 484 226 478 c 0
 237 469 255 446 251 450 c 1
 254 445 248 425 245 422 c 2
 242 421 l 1
 243 398 l 2
 243 382 239 380 228 384 c 0
 225 384 227 385 233 386 c 2
 247 390 l 1
 260 383 l 2
 264 381 269 377 269 377 c 0
 274 373 281 348 281 342 c 0
 280 337 277 329 275 325 c 2
 268 312 l 1
 258 302 l 2
 253 298 245 291 242 289 c 2
 242 291 l 1
 243 256 243 215 233 188 c 1
 220 188 l 2
 223 191 228 196 234 201 c 0
 244 210 249 213 259 218 c 0
 270 224 278 225 280 225 c 0
 282 225 277 224 275 223 c 1
 280 226 304 235 309 235 c 0
 314 234 325 229 332 225 c 2
 346 216 l 1
 358 200 l 1
 369 170 366 169 374 164 c 1
 379 148 382 142 385 122 c 0
 388 101 388 99 389 79 c 0
 390 61 391 56 389 34 c 0
 387 18 388 13 382 -9 c 2
 377 -30 l 2
 370 -43 363 -54 355 -67 c 1
 342 -76 332 -83 316 -93 c 1
 302 -90 l 2
 298 -88 312 -84 316 -77 c 1
 316 -79 312 -69 301 -65 c 1
 286 -80 295 -95 290 -93 c 0
 272 -87 253 -68 243 -47 c 0
 236 -32 231 -2 229 17 c 0
 229 20 227 26 226 33 c 0
 225 40 225 46 225 47 c 0
 226 54 240 66 247 67 c 0
 259 63 263 50 264 47 c 0
 269 31 278 14 289 2 c 0
 292 -3 292 -4 297 -6 c 0
 297 -7 291 -8 290 -8 c 1
 294 -5 297 -4 297 -4 c 0
 308 4 315 37 317 82 c 0
 318 114 313 144 304 164 c 0
 299 175 295 180 290 182 c 1
 292 183 l 1
 295 182 l 2
 293 181 289 177 287 175 c 0
 275 163 258 139 246 116 c 2
 243 110 l 1
 243 34 l 2
 243 -28 243 -51 244 -68 c 0
 246 -99 245 -114 238 -128 c 0
 235 -135 231 -139 223 -146 c 2
 208 -154 l 1
 195 -152 l 2
 188 -151 186 -149 188 -149 c 1
 178 -146 172 -134 170 -130 c 0
 170 -127 176 -131 177 -131 c 1
 164 -127 160 -115 160 -110 c 0
 160 -98 157 -80 148 -55 c 1
 148 -49 l 1
 125 -44 l 2
 109 -39 85 -18 89 -10 c 1
184 -17 m 1
 184 -17 177 -17 167 -20 c 1
 164 -26 162 -5 174 1 c 1
 188 -8 185 -24 185 -25 c 1
 184 -25 184 -18 184 -17 c 1
300 431 m 1
 291 428 287 425 288 426 c 1
 291 416 287 425 304 440 c 0
 305 440 310 440 316 439 c 0
 337 436 359 424 376 397 c 0
 383 385 390 372 398 350 c 2
 403 337 l 1
 401 321 l 2
 400 315 395 321 384 326 c 1
 397 318 393 297 388 292 c 2
 375 282 l 1
 359 282 l 2
 355 283 353 283 352 283 c 0
 344 285 335 293 332 299 c 2
 326 310 l 1
 323 326 l 2
 321 342 318 354 314 368 c 0
 310 384 309 384 305 390 c 0
 300 398 300 399 297 401 c 0
 296 402 285 419 300 431 c 1
EndSplineSet
Comment: "Kage: aj1-00521+AAoA-Alias: uf0209"
EndChar
StartChar: uF020A
Encoding: 983562 983562 100
Width: 500
VWidth: 0
Flags: MW
LayerCount: 2
Back
Fore
SplineSet
83 172 m 1
 79 172 83 173 92 175 c 0
 99 176 94 171 90 160 c 1
 92 169 99 179 104 183 c 0
 115 193 129 208 142 224 c 0
 148 231 155 239 158 243 c 1
 160 241 l 1
 154 253 l 1
 144 288 139 313 137 331 c 0
 135 347 135 350 137 364 c 2
 139 381 l 1
 147 396 l 2
 150 403 161 415 171 418 c 1
 170 418 175 418 182 416 c 1
 163 408 186 378 200 382 c 1
 202 366 205 358 208 346 c 0
 211 335 229 283 231 278 c 1
 221 291 199 288 198 287 c 1
 200 289 208 297 215 304 c 0
 247 335 272 354 303 368 c 0
 313 372 324 376 328 376 c 1
 324 375 325 375 328 377 c 0
 336 381 341 382 351 384 c 2
 367 384 l 1
 379 382 l 2
 394 377 399 373 406 368 c 0
 414 361 418 355 424 346 c 0
 432 333 440 317 444 299 c 0
 447 284 449 258 449 243 c 0
 449 230 447 200 445 215 c 0
 445 216 442 193 441 189 c 0
 436 173 426 156 415 141 c 0
 404 127 389 115 375 107 c 0
 363 101 358 100 349 98 c 0
 322 101 320 105 321 100 c 1
 309 103 304 106 295 112 c 0
 289 116 284 119 273 132 c 0
 267 140 260 151 255 160 c 0
 251 168 248 195 265 204 c 1
 256 202 253 200 257 203 c 2
 274 209 l 1
 296 190 l 2
 304 180 303 180 309 176 c 0
 318 169 320 170 325 171 c 0
 342 172 354 188 358 217 c 0
 359 223 369 238 371 239 c 1
 362 230 363 239 364 248 c 0
 366 260 365 283 363 291 c 0
 360 311 357 315 347 317 c 0
 343 318 340 319 340 319 c 1
 354 339 353 344 332 312 c 1
 311 296 288 274 266 248 c 0
 254 235 246 225 247 229 c 0
 246 235 246 235 248 228 c 0
 249 225 254 209 259 192 c 0
 281 119 301 30 317 -62 c 2
 327 -118 l 1
 325 -132 l 2
 322 -149 317 -157 304 -169 c 2
 288 -180 l 1
 273 -179 268 -178 253 -173 c 1
 245 -163 l 1
 261 -157 253 -124 227 -86 c 1
 214 -3 196 94 181 154 c 0
 178 166 175 180 175 183 c 1
 188 165 204 163 188 143 c 2
 170 119 l 1
 169 111 l 2
 167 101 157 86 146 82 c 0
 138 83 124 92 114 100 c 0
 104 109 91 120 84 125 c 0
 76 131 65 160 83 172 c 1
231 496 m 0
 231 512 237 528 252 534 c 0
 253 534 254 534 256 534 c 2
 272 530 l 1
 281 509 l 2
 284 494 298 456 306 442 c 0
 310 434 317 427 321 425 c 0
 332 415 334 409 336 403 c 0
 337 399 340 391 341 385 c 0
 341 381 338 373 337 368 c 2
 332 352 l 1
 319 342 l 2
 314 338 304 333 299 332 c 0
 292 332 286 335 283 336 c 2
 268 342 l 1
 259 354 l 2
 253 363 247 381 244 391 c 0
 235 420 232 446 231 496 c 0
EndSplineSet
Comment: "Kage: aj1-00522+AAoA-Alias: uf020a"
EndChar
StartChar: uF020B
Encoding: 983563 983563 101
Width: 500
VWidth: 0
Flags: MW
LayerCount: 2
Back
Fore
SplineSet
84 112 m 0
 84 172 86 229 95 346 c 2
 97 374 l 1
 94 395 l 2
 92 407 89 420 89 424 c 0
 90 431 101 444 110 446 c 0
 114 446 121 443 125 442 c 0
 131 440 145 433 156 428 c 0
 187 415 197 406 194 409 c 1
 196 406 195 377 191 364 c 2
 183 343 l 1
 182 316 l 2
 180 287 174 197 174 194 c 1
 163 211 139 206 138 206 c 1
 145 225 159 255 169 273 c 0
 177 289 182 297 194 313 c 2
 209 334 l 1
 227 348 l 2
 236 355 248 363 254 364 c 0
 261 364 273 357 277 349 c 2
 280 337 l 1
 268 310 l 1
 235 252 219 217 205 164 c 0
 193 120 184 66 184 40 c 0
 184 29 183 22 182 18 c 0
 181 16 182 15 182 10 c 0
 182 8 183 3 183 -3 c 2
 182 -16 l 1
 175 -28 173 -32 164 -43 c 1
 150 -48 l 2
 148 -48 145 -49 139 -50 c 2
 125 -49 l 1
 112 -39 109 -34 101 -26 c 1
 95 -9 l 2
 87 21 84 56 84 112 c 0
333 498 m 1
 327 509 339 509 339 506 c 0
 340 504 341 476 338 463 c 2
 334 442 l 1
 334 432 l 2
 334 425 334 410 334 397 c 1
 328 387 l 1
 317 393 l 2
 321 393 332 392 342 388 c 0
 364 377 366 372 372 370 c 0
 385 359 388 356 397 342 c 0
 406 330 409 323 416 308 c 0
 423 291 424 285 428 270 c 0
 432 254 434 246 436 227 c 0
 439 195 438 174 435 143 c 0
 433 127 432 117 428 111 c 1
 427 129 417 136 425 130 c 0
 430 122 430 106 422 83 c 2
 412 56 l 2
 404 40 396 28 388 13 c 0
 377 1 368 -8 357 -20 c 1
 344 -27 335 -33 319 -40 c 1
 302 -40 l 1
 302 -36 l 1
 307 -32 l 2
 306 -37 302 -50 297 -63 c 0
 288 -87 286 -90 275 -108 c 2
 263 -129 l 2
 252 -140 243 -148 232 -158 c 2
 214 -169 l 2
 204 -174 208 -155 188 -139 c 1
 171 -148 167 -162 166 -157 c 2
 165 -142 l 1
 180 -119 l 2
 203 -87 219 -56 228 -21 c 1
 233 -13 l 1
 236 -19 l 2
 233 -16 226 -10 220 -4 c 2
 209 10 l 1
 202 25 196 38 189 53 c 0
 185 71 182 87 178 106 c 2
 176 139 l 2
 175 157 180 187 195 193 c 1
 189 192 189 193 194 194 c 2
 211 193 l 1
 229 151 l 1
 236 120 235 120 242 102 c 0
 250 82 250 82 259 69 c 0
 265 59 266 57 268 56 c 2
 253 55 l 1
 242 47 l 2
 243 50 243 64 245 80 c 0
 251 137 251 209 249 298 c 0
 248 321 254 354 268 360 c 1
 250 348 259 323 267 321 c 1
 265 321 251 325 243 339 c 1
 241 354 l 1
 252 368 l 2
 253 369 249 361 248 357 c 1
 248 358 248 382 247 411 c 2
 245 462 l 1
 239 484 l 2
 235 497 235 526 251 534 c 1
 232 519 231 522 286 525 c 1
 303 520 306 519 307 519 c 0
 310 519 327 514 333 498 c 1
319 30 m 0
 319 28 312 42 298 47 c 0
 294 46 294 48 299 51 c 0
 306 55 306 56 313 65 c 0
 320 73 320 74 326 87 c 0
 332 100 333 103 337 117 c 1
 355 117 353 109 344 155 c 1
 357 230 341 300 311 316 c 0
 307 319 295 342 314 357 c 1
 328 351 335 320 335 299 c 0
 335 207 330 116 323 59 c 0
 321 42 319 30 319 30 c 0
EndSplineSet
Comment: "Kage: aj1-00523+AAoA-Alias: uf020b"
EndChar
StartChar: uF020C
Encoding: 983564 983564 102
Width: 500
VWidth: 0
Flags: MW
LayerCount: 2
Back
Fore
SplineSet
89 -16 m 1
 97 11 l 2
 101 25 112 46 124 50 c 1
 113 47 108 41 109 45 c 2
 113 56 l 1
 125 68 134 75 144 84 c 1
 158 89 168 93 181 98 c 2
 200 100 l 2
 214 101 220 101 234 98 c 0
 240 97 244 97 243 97 c 0
 229 91 223 95 222 116 c 0
 220 177 220 241 219 361 c 2
 219 470 l 1
 213 491 l 2
 210 504 207 518 207 521 c 1
 213 507 206 521 225 542 c 0
 230 542 250 536 270 529 c 2
 317 507 l 1
 315 477 310 460 307 448 c 0
 307 404 308 358 300 327 c 1
 287 331 l 1
 295 334 321 352 351 376 c 2
 372 390 l 1
 382 391 389 393 405 392 c 1
 418 381 l 2
 422 377 431 366 432 358 c 1
 432 359 432 354 432 347 c 2
 433 332 l 1
 426 319 421 313 414 303 c 1
 398 294 l 2
 349 269 306 258 281 271 c 1
 297 273 l 1
 308 260 l 1
 310 163 312 73 313 67 c 1
 310 74 305 81 318 75 c 0
 354 60 395 31 422 5 c 1
 410 -10 431 -40 446 -35 c 1
 448 -46 l 1
 445 -57 443 -64 437 -78 c 1
 425 -87 418 -90 405 -95 c 1
 387 -90 l 2
 383 -88 378 -87 361 -70 c 0
 355 -64 345 -54 338 -48 c 0
 325 -37 301 -21 291 -15 c 1
 275 11 309 20 315 4 c 0
 315 1 313 -9 312 -19 c 2
 309 -41 l 1
 302 -58 296 -72 288 -90 c 1
 276 -103 268 -114 255 -127 c 1
 242 -134 230 -139 216 -145 c 1
 201 -146 189 -147 174 -148 c 1
 161 -144 150 -140 136 -135 c 1
 125 -125 117 -118 106 -107 c 1
 99 -91 96 -80 90 -65 c 1
 90 -47 89 -33 89 -16 c 1
142 -20 m 0
 143 -28 145 -39 146 -46 c 0
 149 -50 152 -55 154 -59 c 2
 160 -62 l 2
 171 -69 168 -68 171 -67 c 2
 179 -68 l 1
 187 -66 l 2
 201 -63 197 -63 202 -59 c 0
 218 -50 215 -52 215 -47 c 0
 219 -43 218 -44 223 -29 c 0
 226 -20 226 -21 227 -11 c 0
 228 1 228 13 227 19 c 2
 231 14 l 1
 225 12 l 1
 213 15 209 17 200 17 c 0
 174 19 164 16 148 2 c 1
 145 1 l 1
 146 -3 143 -14 142 -20 c 0
EndSplineSet
Comment: "Kage: aj1-00524+AAoA-Alias: uf020c"
EndChar
StartChar: uF020D
Encoding: 983565 983565 103
Width: 500
VWidth: 0
Flags: MW
LayerCount: 2
Back
Fore
SplineSet
85 234 m 0
 88 235 92 237 100 240 c 0
 123 244 107 241 100 215 c 1
 96 226 109 245 110 246 c 0
 110 248 146 288 155 298 c 0
 184 328 214 353 238 364 c 0
 244 367 246 367 253 373 c 2
 266 383 l 2
 277 386 285 391 298 395 c 0
 311 396 321 396 334 396 c 1
 351 390 l 2
 365 385 369 383 381 374 c 0
 396 362 399 358 406 349 c 0
 417 334 419 327 425 314 c 0
 430 301 432 298 438 275 c 0
 442 257 443 251 445 229 c 0
 447 204 446 199 444 155 c 0
 444 149 441 136 439 124 c 0
 426 66 401 16 366 -21 c 0
 332 -56 289 -80 246 -85 c 0
 229 -87 224 -86 213 -85 c 2
 185 -77 l 1
 180 -59 l 2
 180 -56 186 -40 199 -34 c 1
 196 -34 221 -24 231 -19 c 0
 262 -5 289 16 307 40 c 0
 329 67 342 103 349 146 c 1
 374 189 373 176 354 186 c 1
 356 224 354 250 346 274 c 0
 337 302 326 314 306 318 c 0
 295 321 297 322 285 314 c 0
 259 297 233 266 190 206 c 1
 178 191 l 1
 179 186 l 2
 179 179 172 159 159 154 c 0
 152 155 140 161 106 182 c 0
 86 195 71 207 85 234 c 0
EndSplineSet
Comment: "Kage: aj1-00525+AAoA-Alias: uf020d"
EndChar
StartChar: uF020E
Encoding: 983566 983566 104
Width: 500
VWidth: 0
Flags: MW
LayerCount: 2
Back
Fore
SplineSet
358 418 m 0
 358 414 339 368 335 381 c 1
 328 385 334 382 340 379 c 0
 351 374 356 369 364 362 c 0
 385 341 402 310 413 269 c 0
 419 244 425 211 425 193 c 0
 426 151 423 116 417 81 c 0
 412 55 399 12 394 5 c 0
 393 3 389 -2 387 -8 c 0
 376 -32 360 -56 344 -74 c 0
 314 -107 279 -126 240 -129 c 1
 221 -126 l 1
 214 -112 l 2
 214 -108 218 -94 229 -90 c 1
 225 -91 225 -90 230 -88 c 0
 250 -76 275 -57 286 -41 c 0
 296 -27 304 -11 312 6 c 0
 317 17 324 37 324 38 c 0
 324 42 328 51 330 59 c 0
 336 76 338 87 340 98 c 0
 342 102 341 104 341 128 c 0
 345 164 353 167 350 166 c 2
 346 159 l 1
 345 154 l 2
 344 156 342 163 342 167 c 0
 342 169 343 164 344 162 c 1
 341 169 345 185 353 189 c 1
 345 183 340 219 337 243 c 0
 332 277 328 294 317 308 c 0
 313 314 318 315 330 335 c 0
 328 338 327 311 324 294 c 0
 306 206 284 125 264 73 c 2
 257 57 l 1
 258 56 l 1
 261 49 261 41 262 33 c 1
 248 33 244 6 253 0 c 1
 244 -12 l 1
 228 -15 l 2
 220 -16 214 -15 209 -13 c 1
 210 -13 220 -12 221 -15 c 0
 218 -21 209 -31 203 -38 c 0
 194 -48 191 -52 179 -62 c 2
 163 -72 l 1
 149 -74 l 2
 140 -74 137 -73 123 -58 c 0
 123 -55 127 -70 123 -68 c 0
 118 -67 112 -65 104 -55 c 0
 97 -41 92 -17 90 19 c 0
 89 30 89 29 87 33 c 0
 83 44 79 51 77 65 c 0
 75 76 76 81 77 87 c 0
 79 92 78 88 79 83 c 1
 77 88 76 98 78 113 c 0
 87 178 109 234 141 280 c 0
 147 287 155 298 159 302 c 2
 163 307 l 1
 163 313 l 2
 165 349 167 407 169 430 c 0
 170 445 171 459 171 459 c 1
 180 447 189 445 179 446 c 0
 171 446 155 453 148 459 c 0
 128 474 114 501 112 536 c 0
 111 550 113 590 124 595 c 1
 118 594 120 596 128 597 c 2
 141 594 l 1
 149 576 l 2
 151 564 158 545 166 537 c 0
 172 530 171 529 174 533 c 1
 174 532 179 537 186 539 c 0
 200 537 192 536 179 555 c 1
 180 567 183 597 185 620 c 2
 189 660 l 1
 187 681 l 2
 185 693 184 705 184 708 c 0
 188 722 199 726 202 726 c 0
 208 724 280 686 282 677 c 0
 282 674 278 661 273 649 c 2
 266 627 l 1
 263 607 l 2
 261 596 260 578 259 567 c 1
 251 562 l 1
 240 564 l 1
 253 572 271 587 285 605 c 0
 288 608 291 613 301 619 c 2
 317 626 l 1
 329 622 334 620 346 613 c 1
 352 598 l 2
 354 591 351 594 352 593 c 0
 356 580 354 572 352 566 c 0
 350 560 349 555 341 544 c 0
 325 524 304 506 282 490 c 0
 273 483 253 470 245 467 c 0
 240 465 247 469 251 475 c 1
 249 461 243 357 243 347 c 1
 236 358 l 1
 224 360 l 1
 234 367 245 372 255 377 c 0
 260 380 269 384 273 385 c 1
 263 381 259 379 261 389 c 2
 265 404 l 1
 262 427 l 2
 261 442 265 466 270 469 c 0
 275 471 356 427 358 418 c 0
147 31 m 0
 146 18 145 22 146 22 c 0
 149 16 145 22 134 26 c 1
 142 24 148 14 150 12 c 2
 144 13 l 1
 139 15 l 1
 149 22 163 41 172 61 c 2
 174 64 l 1
 172 72 l 2
 166 105 162 162 161 210 c 1
 173 226 l 1
 187 230 l 1
 174 202 164 168 159 135 c 0
 157 122 155 101 154 86 c 0
 154 84 153 73 151 62 c 0
 149 53 148 39 147 31 c 0
241 279 m 0
 240 245 238 174 237 177 c 0
 224 180 226 218 234 252 c 0
 240 277 253 339 257 350 c 1
 257 350 257 329 267 325 c 0
 268 325 265 324 258 324 c 0
 258 325 257 324 254 322 c 0
 254 322 244 313 239 321 c 0
 236 325 242 299 241 279 c 0
EndSplineSet
Comment: "Kage: aj1-00526+AAoA-Alias: uf020e"
EndChar
StartChar: uF020F
Encoding: 983567 983567 105
Width: 500
VWidth: 0
Flags: MW
LayerCount: 2
Back
Fore
SplineSet
99 220 m 0
 97 297 100 418 107 513 c 2
 109 542 l 1
 106 566 l 2
 104 580 107 607 108 608 c 1
 105 585 103 605 167 597 c 1
 185 588 209 574 212 562 c 0
 212 557 207 544 203 532 c 2
 196 512 l 1
 195 494 l 2
 189 408 186 296 188 218 c 0
 190 179 192 136 197 104 c 0
 199 89 202 73 203 69 c 0
 204 64 198 72 185 77 c 1
 172 73 170 86 176 115 c 0
 186 168 194 200 203 239 c 0
 212 276 222 321 225 326 c 0
 237 334 255 331 260 328 c 0
 267 318 267 288 258 204 c 0
 250 129 247 97 245 66 c 0
 243 38 242 13 243 12 c 0
 245 7 244 -1 242 -10 c 0
 241 -12 242 -13 242 -20 c 2
 241 -31 l 1
 235 -42 232 -48 222 -61 c 1
 209 -65 l 1
 212 -46 174 -44 165 -54 c 1
 148 -40 l 1
 139 -24 133 -11 126 4 c 2
 120 29 l 2
 109 76 102 136 99 220 c 0
296 502 m 1
 302 517 l 2
 304 520 312 528 321 530 c 0
 325 530 336 525 342 522 c 0
 370 505 395 469 412 424 c 0
 432 371 444 303 449 215 c 2
 451 186 l 1
 447 175 l 2
 445 171 444 164 442 159 c 2
 435 144 l 1
 424 136 419 132 404 126 c 1
 391 130 385 131 371 139 c 1
 365 153 362 160 359 170 c 2
 357 197 l 2
 355 271 353 309 345 359 c 0
 337 408 323 450 305 481 c 1
 296 502 l 1
EndSplineSet
Comment: "Kage: aj1-00527+AAoA-Alias: uf020f"
EndChar
StartChar: uF0210
Encoding: 983568 983568 106
Width: 500
VWidth: 0
Flags: MW
LayerCount: 2
Back
Fore
SplineSet
138 295 m 0
 141 287 134 290 136 310 c 0
 138 312 135 308 136 311 c 0
 137 312 140 322 144 330 c 0
 164 375 182 407 199 427 c 0
 207 437 223 452 229 455 c 0
 234 457 228 454 224 445 c 1
 224 447 226 455 240 468 c 2
 255 479 l 1
 272 480 l 1
 290 480 l 1
 304 472 l 2
 306 468 311 468 328 453 c 0
 336 442 338 437 343 426 c 0
 354 400 363 363 367 319 c 0
 369 297 368 290 368 259 c 0
 368 236 367 215 363 209 c 1
 366 214 367 212 366 202 c 0
 364 178 358 131 352 103 c 0
 329 -7 283 -86 213 -134 c 0
 204 -141 203 -129 173 -132 c 1
 179 -145 169 -129 169 -125 c 0
 170 -120 175 -109 182 -101 c 0
 203 -73 222 -42 235 -15 c 0
 257 31 269 73 278 131 c 0
 281 153 285 196 285 211 c 0
 285 216 285 227 285 235 c 0
 286 255 286 320 285 338 c 0
 283 368 278 396 272 409 c 0
 268 418 268 419 262 420 c 0
 253 425 261 423 269 425 c 1
 260 419 247 398 237 373 c 0
 230 356 218 321 210 289 c 1
 208 284 l 1
 208 287 l 2
 212 281 208 283 214 276 c 1
 204 255 119 263 111 283 c 1
 121 292 140 301 138 295 c 0
188 693 m 1
 188 693 193 698 200 699 c 0
 206 698 214 691 217 686 c 0
 221 680 226 673 234 666 c 0
 245 656 252 651 259 650 c 0
 262 648 260 647 265 650 c 2
 274 655 l 1
 285 654 293 653 304 648 c 1
 312 638 315 633 321 622 c 1
 319 606 l 2
 318 602 318 599 318 598 c 0
 317 593 311 582 305 577 c 2
 295 568 l 1
 284 565 l 2
 273 564 257 568 249 571 c 0
 232 579 216 598 205 616 c 0
 200 625 178 681 188 693 c 1
EndSplineSet
Comment: "Kage: aj1-00528+AAoA-Alias: uf0210"
EndChar
StartChar: uF0211
Encoding: 983569 983569 107
Width: 500
VWidth: 0
Flags: MW
LayerCount: 2
Back
Fore
SplineSet
72 -93 m 1
 71 -78 72 -72 72 -61 c 2
 85 -27 l 2
 123 72 196 246 235 329 c 0
 249 358 274 406 285 409 c 1
 304 394 292 370 288 367 c 0
 265 350 215 317 192 304 c 1
 187 303 l 1
 187 300 l 1
 184 291 166 276 148 284 c 0
 145 288 106 385 123 395 c 0
 129 395 154 384 149 384 c 0
 136 378 130 365 130 367 c 2
 136 383 l 1
 153 390 l 2
 160 391 179 397 188 400 c 0
 207 406 245 419 246 420 c 0
 252 424 263 434 271 443 c 0
 285 460 289 464 296 469 c 0
 300 472 310 476 315 477 c 0
 318 477 324 477 330 476 c 2
 345 470 l 1
 355 460 l 2
 359 455 363 450 367 441 c 2
 372 429 l 1
 371 416 371 408 369 396 c 1
 363 386 l 2
 358 381 336 336 297 248 c 0
 285 221 260 164 255 181 c 1
 236 186 233 186 235 187 c 0
 240 190 245 193 257 196 c 2
 271 198 l 1
 286 193 l 2
 281 190 287 193 309 178 c 1
 317 168 318 162 322 154 c 0
 327 141 332 125 334 111 c 0
 335 107 334 108 334 109 c 1
 337 101 339 69 340 44 c 0
 342 4 342 -4 343 -3 c 0
 347 -8 360 -6 396 1 c 2
 422 6 l 1
 435 2 l 2
 440 0 441 0 438 -0 c 1
 449 -3 459 -16 461 -21 c 2
 468 -37 l 1
 465 -55 l 2
 463 -62 462 -64 462 -62 c 1
 460 -72 451 -81 446 -85 c 2
 434 -94 l 1
 411 -98 l 2
 383 -103 358 -106 337 -104 c 1
 311 -96 309 -93 306 -95 c 0
 284 -67 285 -63 280 -75 c 1
 279 -71 275 -69 263 -46 c 0
 256 -26 254 -14 252 28 c 0
 251 61 250 66 248 95 c 0
 247 111 247 121 245 125 c 1
 250 122 261 119 254 114 c 0
 251 113 252 114 246 105 c 0
 238 94 223 69 217 57 c 0
 213 49 185 -17 165 -68 c 2
 153 -100 l 1
 145 -109 140 -113 130 -122 c 1
 114 -124 110 -125 95 -123 c 1
 83 -111 79 -104 72 -93 c 1
184 699 m 1
 200 705 l 1
 214 702 224 688 226 681 c 0
 234 654 249 630 265 621 c 0
 276 614 290 611 305 613 c 2
 317 615 l 1
 329 610 337 607 348 600 c 1
 354 586 356 580 360 566 c 1
 355 550 l 2
 354 548 353 543 352 539 c 0
 348 532 343 527 335 522 c 2
 319 514 l 1
 300 516 l 2
 270 519 241 531 220 552 c 0
 201 572 185 607 180 640 c 0
 178 651 176 687 184 699 c 1
EndSplineSet
Comment: "Kage: aj1-00529+AAoA-Alias: uf0211"
EndChar
StartChar: uF0212
Encoding: 983570 983570 108
Width: 500
VWidth: 0
Flags: MW
LayerCount: 2
Back
Fore
SplineSet
74 11 m 1
 58 23 70 40 75 45 c 0
 83 52 84 50 82 44 c 1
 83 49 87 57 90 62 c 0
 96 73 143 165 149 176 c 2
 153 184 l 1
 153 289 l 2
 153 349 157 408 168 412 c 1
 183 399 170 382 166 381 c 0
 161 380 156 378 148 377 c 2
 133 376 l 1
 124 380 116 384 106 389 c 1
 98 399 94 405 88 414 c 0
 85 426 83 433 81 444 c 0
 81 458 81 471 85 494 c 1
 96 498 101 499 113 496 c 1
 123 475 l 2
 129 457 132 450 136 447 c 1
 124 446 121 444 136 448 c 0
 138 448 142 451 152 458 c 1
 155 457 l 1
 153 539 l 1
 153 626 l 1
 147 652 l 2
 144 667 141 682 141 686 c 0
 141 688 145 700 156 704 c 0
 162 703 175 690 185 679 c 0
 199 662 204 656 213 649 c 0
 226 638 242 621 243 613 c 0
 242 607 237 598 233 594 c 2
 230 593 l 1
 231 549 l 2
 231 509 221 512 211 513 c 1
 212 513 209 512 211 515 c 0
 218 522 223 523 232 527 c 0
 236 528 240 530 245 531 c 0
 251 530 268 521 267 521 c 1
 271 519 276 504 278 499 c 2
 282 482 l 1
 277 472 l 1
 270 472 272 470 253 440 c 0
 245 433 235 424 232 421 c 2
 230 421 l 1
 231 370 231 313 221 270 c 1
 213 276 l 1
 218 281 227 292 234 299 c 0
 257 315 260 314 263 319 c 0
 272 324 283 329 288 329 c 1
 284 328 285 329 291 330 c 1
 288 330 293 332 303 335 c 2
 325 340 l 1
 336 335 l 2
 338 334 345 330 352 325 c 2
 365 316 l 1
 374 303 382 291 390 278 c 0
 396 262 401 247 407 230 c 2
 411 202 l 2
 414 169 413 168 415 150 c 2
 416 123 l 2
 414 106 414 88 412 69 c 0
 408 53 402 35 398 19 c 0
 390 4 383 -7 374 -23 c 1
 359 -33 347 -42 329 -52 c 1
 316 -49 l 2
 313 -48 300 -31 315 -18 c 1
 326 -22 330 -34 330 -35 c 0
 326 -50 312 -54 302 -52 c 0
 280 -45 262 -26 251 -4 c 0
 244 10 235 32 231 53 c 0
 229 64 223 108 223 113 c 0
 225 123 247 133 251 131 c 0
 254 130 261 118 263 111 c 0
 271 86 286 56 299 42 c 0
 303 37 308 34 310 35 c 1
 306 34 303 33 304 34 c 0
 305 35 310 38 314 41 c 0
 319 44 318 44 323 53 c 0
 328 62 329 63 333 78 c 0
 337 92 337 95 339 112 c 0
 341 128 341 136 342 154 c 0
 343 174 343 175 341 195 c 0
 339 213 337 216 333 233 c 0
 329 248 329 250 323 263 c 0
 318 291 317 289 313 280 c 1
 310 285 310 284 304 286 c 1
 304 287 l 1
 303 285 l 1
 285 277 262 247 238 201 c 2
 231 188 l 1
 231 90 l 2
 231 18 232 -18 233 -35 c 0
 235 -71 232 -86 225 -103 c 0
 218 -116 212 -118 209 -122 c 2
 194 -131 l 1
 182 -129 176 -127 164 -122 c 1
 156 -108 l 2
 154 -102 151 -93 151 -90 c 1
 160 -102 171 -103 164 -104 c 1
 147 -89 151 -80 147 -88 c 1
 145 -74 143 -64 140 -52 c 0
 137 -40 127 -12 122 -2 c 1
 124 -2 l 1
 101 2 l 2
 84 7 72 11 74 11 c 1
161 28 m 0
 160 31 162 29 167 23 c 0
 172 17 161 16 152 3 c 0
 152 2 149 14 147 27 c 0
 143 47 158 44 167 65 c 1
 169 63 167 41 164 35 c 0
 162 29 161 27 161 28 c 0
299 584 m 0
 299 583 305 597 322 599 c 0
 347 598 366 588 383 568 c 0
 401 547 416 517 427 480 c 2
 431 468 l 1
 430 452 l 1
 422 454 428 451 416 422 c 1
 404 413 l 1
 388 413 l 2
 387 414 385 413 382 413 c 0
 374 415 366 426 363 430 c 2
 355 440 l 1
 350 463 l 2
 341 509 334 534 317 552 c 0
 314 556 311 558 309 559 c 1
 323 566 308 589 299 584 c 0
EndSplineSet
Comment: "Kage: aj1-00530+AAoA-Alias: uf0212"
EndChar
StartChar: uF0213
Encoding: 983571 983571 109
Width: 500
VWidth: 0
Flags: MW
LayerCount: 2
Back
Fore
SplineSet
86 416 m 0
 91 416 102 412 108 410 c 0
 115 408 118 407 116 407 c 0
 100 399 96 384 95 385 c 0
 96 409 112 417 114 417 c 0
 117 417 172 439 168 433 c 1
 169 436 185 561 191 617 c 2
 196 650 l 1
 193 674 l 2
 191 688 194 715 209 722 c 0
 214 721 290 685 287 686 c 1
 295 680 294 650 289 636 c 2
 280 614 l 1
 278 593 l 2
 275 567 265 486 262 465 c 1
 252 471 l 2
 238 476 243 478 252 481 c 1
 264 479 271 479 285 477 c 1
 299 465 l 2
 309 457 312 453 319 440 c 0
 326 428 327 422 331 411 c 0
 340 380 344 341 345 287 c 0
 346 241 345 212 336 129 c 0
 332 87 323 41 314 6 c 0
 307 -24 300 -45 288 -67 c 1
 283 -57 285 -62 269 -90 c 1
 251 -98 l 1
 237 -96 232 -94 218 -89 c 1
 210 -75 l 2
 210 -73 217 -79 225 -81 c 1
 209 -76 203 -60 203 -52 c 0
 203 -43 203 -40 198 -24 c 0
 193 -3 175 44 167 59 c 2
 161 77 l 1
 166 91 l 1
 177 103 197 103 211 87 c 0
 214 83 221 74 227 66 c 0
 237 54 247 39 255 27 c 0
 257 25 252 27 235 27 c 1
 227 18 230 37 234 54 c 0
 242 91 249 152 255 223 c 1
 278 272 278 260 259 273 c 1
 260 300 260 344 258 362 c 0
 255 394 252 405 247 407 c 1
 249 407 251 406 243 407 c 1
 249 412 l 1
 255 417 l 1
 250 381 232 270 225 229 c 0
 210 144 200 94 186 31 c 0
 180 3 165 -51 165 -51 c 1
 165 -54 158 -65 155 -70 c 2
 143 -84 l 1
 128 -87 l 2
 126 -87 122 -89 119 -89 c 0
 117 -89 106 -87 93 -75 c 2
 83 -63 l 1
 81 -49 80 -42 79 -30 c 2
 87 -1 l 2
 107 77 120 142 137 238 c 0
 143 270 161 387 161 388 c 1
 175 370 193 372 191 370 c 0
 185 363 171 351 162 342 c 2
 156 339 l 1
 157 339 l 2
 154 335 124 338 107 334 c 1
 100 344 88 359 81 368 c 0
 74 377 69 405 86 416 c 0
324 498 m 1
 330 512 l 2
 334 517 344 523 349 524 c 0
 359 523 383 499 390 490 c 0
 406 470 424 440 434 412 c 0
 453 363 463 314 468 251 c 2
 469 227 l 1
 465 213 l 2
 464 208 461 199 458 195 c 0
 455 191 433 178 427 177 c 0
 421 177 414 179 409 181 c 2
 393 190 l 1
 387 203 384 209 381 220 c 2
 381 253 l 2
 380 339 364 409 331 477 c 1
 324 498 l 1
EndSplineSet
Comment: "Kage: aj1-00531+AAoA-Alias: uf0213"
EndChar
StartChar: uF0214
Encoding: 983572 983572 110
Width: 500
VWidth: 0
Flags: MW
LayerCount: 2
Back
Fore
SplineSet
89 21 m 1
 89 49 l 1
 90 77 l 2
 95 96 100 111 105 130 c 1
 119 153 l 2
 127 167 135 178 141 182 c 1
 140 182 146 188 155 195 c 2
 174 209 l 1
 197 213 l 2
 223 218 241 219 269 216 c 0
 280 215 305 208 315 205 c 1
 313 205 310 206 311 206 c 1
 294 197 291 181 290 184 c 0
 287 194 275 247 268 278 c 0
 264 295 263 327 299 318 c 1
 250 284 l 2
 255 286 264 297 265 300 c 1
 265 297 264 290 259 278 c 0
 256 271 253 286 235 297 c 1
 255 280 236 256 232 255 c 2
 217 251 l 1
 199 256 l 2
 183 262 155 277 144 287 c 0
 129 300 113 321 106 338 c 0
 104 343 102 351 100 356 c 0
 97 368 97 373 97 390 c 2
 101 422 l 1
 117 429 l 2
 110 423 123 430 146 406 c 0
 146 403 148 399 149 396 c 0
 160 373 175 362 205 356 c 0
 215 354 219 350 218 350 c 0
 212 345 207 336 206 343 c 0
 205 351 205 357 205 358 c 0
 209 370 221 379 227 381 c 0
 236 383 253 389 257 392 c 1
 251 387 244 390 239 412 c 0
 234 435 229 457 229 460 c 1
 235 447 259 445 263 448 c 1
 260 463 263 455 241 432 c 1
 225 429 217 430 208 434 c 0
 167 453 130 487 116 520 c 0
 113 528 104 566 109 575 c 0
 113 579 125 586 130 587 c 0
 140 586 151 576 154 571 c 0
 156 567 161 562 168 557 c 0
 178 550 194 540 204 537 c 0
 215 533 221 529 209 515 c 1
 204 530 l 1
 208 545 218 548 220 552 c 1
 219 551 213 545 211 555 c 0
 209 565 205 591 200 616 c 2
 193 658 l 1
 185 673 l 2
 180 683 175 695 174 697 c 0
 174 720 190 729 191 729 c 0
 196 729 269 724 268 724 c 1
 283 718 287 692 286 679 c 2
 284 658 l 1
 287 639 l 2
 291 615 298 577 300 571 c 2
 288 581 l 1
 274 582 l 1
 288 591 297 599 301 606 c 0
 305 611 313 617 317 620 c 2
 334 630 l 1
 350 628 356 625 368 620 c 1
 377 604 l 2
 380 598 383 589 383 585 c 0
 383 583 382 574 380 567 c 2
 376 553 l 1
 366 539 l 2
 362 535 356 527 352 523 c 0
 341 512 314 492 306 487 c 0
 300 484 308 489 313 502 c 1
 313 502 331 408 330 410 c 0
 321 418 307 418 309 421 c 0
 326 434 336 444 347 460 c 0
 354 469 358 473 365 478 c 2
 381 488 l 1
 398 486 404 484 417 478 c 1
 424 464 428 457 432 443 c 1
 430 432 l 1
 413 438 398 403 411 392 c 1
 393 368 375 351 349 332 c 0
 344 328 344 331 346 338 c 0
 346 339 349 329 352 313 c 0
 366 249 385 179 398 142 c 2
 404 122 l 2
 404 112 404 105 403 92 c 1
 396 80 392 74 382 62 c 1
 368 59 l 2
 365 59 360 59 361 59 c 2
 349 58 l 1
 332 71 l 2
 323 80 321 86 318 93 c 0
 316 99 317 98 310 105 c 0
 297 120 287 127 265 142 c 0
 256 149 231 161 221 165 c 1
 225 166 l 1
 218 159 l 1
 211 171 209 174 194 139 c 1
 184 127 l 2
 180 119 175 108 171 99 c 0
 169 89 167 78 165 68 c 0
 166 58 167 47 167 38 c 0
 170 30 173 17 175 9 c 0
 179 3 186 -5 190 -12 c 1
 198 -16 209 -24 215 -28 c 0
 224 -30 239 -31 250 -34 c 1
 266 -32 283 -30 304 -28 c 1
 315 -30 l 2
 324 -32 327 -34 321 -33 c 1
 330 -35 341 -48 344 -54 c 2
 350 -69 l 1
 348 -84 346 -91 342 -105 c 1
 332 -114 328 -118 317 -126 c 1
 277 -130 l 1
 240 -133 l 1
 219 -128 201 -123 180 -117 c 1
 163 -105 149 -94 133 -82 c 1
 122 -65 113 -51 103 -34 c 1
 98 -15 94 1 89 21 c 1
EndSplineSet
Comment: "Kage: aj1-00532+AAoA-Alias: uf0214"
EndChar
StartChar: uF0215
Encoding: 983573 983573 111
Width: 500
VWidth: 0
Flags: MW
LayerCount: 2
Back
Fore
SplineSet
96 226 m 1
 96 257 l 1
 96 286 l 1
 104 305 l 2
 109 317 112 325 122 342 c 0
 128 353 137 365 140 371 c 0
 156 394 198 453 214 477 c 0
 254 536 293 601 317 654 c 2
 329 681 l 1
 332 700 l 2
 334 711 336 720 336 724 c 0
 339 732 349 742 357 744 c 0
 365 743 432 681 434 672 c 0
 433 665 396 611 393 608 c 0
 393 608 390 601 386 594 c 0
 374 569 340 511 316 477 c 0
 283 428 256 394 201 327 c 0
 172 292 157 268 153 257 c 1
 152 261 l 1
 153 263 l 1
 156 257 157 250 157 243 c 1
 156 248 166 241 176 232 c 0
 189 221 192 218 224 193 c 0
 290 141 315 120 349 83 c 0
 364 67 371 58 386 37 c 0
 402 14 403 12 419 -18 c 2
 436 -51 l 1
 437 -63 438 -70 437 -85 c 1
 431 -95 l 2
 429 -98 431 -95 431 -93 c 1
 430 -100 427 -107 421 -116 c 2
 408 -131 l 1
 390 -134 l 1
 371 -133 l 1
 357 -120 l 1
 373 -118 370 -121 336 -82 c 1
 325 -57 324 -54 311 -32 c 0
 299 -12 294 -4 282 11 c 0
 258 42 234 66 185 113 c 0
 159 137 139 159 126 175 c 0
 115 190 112 195 106 207 c 2
 96 226 l 1
EndSplineSet
Comment: "Kage: aj1-00533+AAoA-Alias: uf0215"
EndChar
StartChar: uF0216
Encoding: 983574 983574 112
Width: 500
VWidth: 0
Flags: MW
LayerCount: 2
Back
Fore
SplineSet
86 273 m 0
 88 357 96 471 106 578 c 2
 109 607 l 1
 106 629 l 2
 104 642 103 654 103 657 c 0
 103 658 109 674 123 680 c 0
 127 680 139 675 148 670 c 0
 156 666 171 659 181 655 c 0
 191 651 196 647 191 648 c 1
 208 640 207 610 202 597 c 2
 195 575 l 1
 193 555 l 2
 184 466 176 340 174 255 c 0
 173 215 173 153 175 123 c 1
 158 132 l 1
 141 132 l 1
 147 153 156 178 163 199 c 0
 173 228 186 262 195 271 c 0
 198 272 203 273 214 272 c 1
 227 264 231 251 231 247 c 0
 229 237 223 196 221 186 c 0
 219 180 216 161 213 144 c 0
 195 44 190 15 191 -7 c 0
 191 -13 185 -6 171 0 c 1
 185 -6 190 -19 191 -22 c 0
 192 -30 193 -35 191 -47 c 2
 188 -65 l 1
 177 -78 l 2
 172 -83 162 -91 155 -92 c 0
 151 -92 138 -89 137 -89 c 0
 130 -88 118 -77 114 -71 c 2
 106 -59 l 1
 101 -34 l 2
 93 11 88 69 86 130 c 0
 84 168 85 231 86 273 c 0
193 491 m 1
 203 503 l 2
 206 505 215 508 219 509 c 0
 227 507 238 497 240 493 c 0
 244 486 254 476 264 469 c 0
 276 461 291 455 307 453 c 1
 294 446 l 1
 288 438 l 2
 287 441 292 462 307 469 c 1
 304 469 307 470 315 474 c 1
 321 472 l 1
 318 554 l 1
 318 645 l 1
 312 667 l 2
 309 680 305 693 305 697 c 0
 311 712 324 718 329 718 c 0
 339 714 404 693 402 693 c 1
 414 686 415 658 411 643 c 2
 406 624 l 1
 406 555 l 2
 406 517 401 500 386 506 c 0
 380 505 386 510 390 515 c 0
 393 518 402 526 407 529 c 2
 421 536 l 1
 436 534 443 531 456 525 c 1
 463 512 467 506 471 491 c 1
 467 473 l 2
 465 465 461 456 458 451 c 0
 454 445 445 436 437 429 c 0
 429 423 408 408 400 404 c 1
 403 409 l 1
 406 299 l 2
 406 166 406 157 401 118 c 0
 395 75 384 29 369 -7 c 0
 348 -56 316 -101 279 -130 c 0
 271 -136 272 -118 253 -104 c 1
 235 -116 234 -132 232 -128 c 1
 250 -135 256 -100 243 -89 c 1
 252 -76 262 -59 271 -40 c 0
 293 6 309 66 314 127 c 0
 317 168 318 187 318 295 c 1
 326 381 l 1
 340 377 338 375 339 377 c 2
 339 376 l 1
 334 389 337 380 310 355 c 1
 314 360 310 356 285 357 c 1
 261 368 243 382 226 403 c 0
 212 420 203 438 196 464 c 2
 193 491 l 1
EndSplineSet
Comment: "Kage: aj1-00534+AAoA-Alias: uf0216"
EndChar
StartChar: uF0217
Encoding: 983575 983575 113
Width: 500
VWidth: 0
Flags: MW
LayerCount: 2
Back
Fore
SplineSet
118 204 m 1
 140 238 142 236 139 261 c 1
 147 276 l 1
 162 279 l 1
 170 276 178 268 179 260 c 0
 179 255 175 217 173 196 c 0
 170 167 169 140 171 120 c 0
 173 96 174 80 179 65 c 0
 187 36 197 23 213 17 c 0
 215 15 221 14 225 11 c 1
 223 12 225 12 240 10 c 0
 253 8 278 10 293 14 c 0
 304 17 314 19 323 25 c 0
 333 29 337 30 346 31 c 2
 362 30 l 1
 375 18 l 2
 380 11 377 12 380 10 c 0
 383 4 381 8 383 6 c 2
 390 -3 l 1
 391 -22 l 1
 389 -38 l 1
 380 -50 l 2
 375 -57 372 -61 362 -67 c 0
 335 -81 308 -87 278 -88 c 0
 251 -89 228 -85 204 -78 c 1
 172 -54 177 -45 172 -52 c 1
 176 -42 174 -49 176 -63 c 1
 170 -60 163 -55 156 -48 c 0
 145 -38 142 -33 135 -22 c 0
 130 -12 126 -8 121 8 c 0
 102 59 102 131 118 204 c 1
151 626 m 0
 150 631 154 644 167 648 c 0
 168 648 169 648 171 648 c 0
 173 648 182 645 189 630 c 0
 193 617 203 599 212 588 c 0
 217 581 215 582 216 583 c 0
 220 583 229 580 233 577 c 1
 229 579 225 580 236 580 c 0
 255 580 281 585 299 591 c 0
 302 591 307 595 310 595 c 0
 312 596 340 594 345 590 c 0
 348 587 359 567 360 561 c 0
 360 560 360 553 359 548 c 2
 358 533 l 1
 347 521 l 1
 339 534 318 516 326 506 c 1
 315 502 290 496 275 493 c 0
 263 491 234 488 222 488 c 2
 203 492 l 1
 199 506 199 508 203 500 c 2
 209 496 l 1
 196 496 189 501 181 510 c 0
 164 529 154 558 152 604 c 0
 151 613 151 624 151 626 c 0
EndSplineSet
Comment: "Kage: aj1-00535+AAoA-Alias: uf0217"
EndChar
StartChar: uF0218
Encoding: 983576 983576 114
Width: 500
VWidth: 0
Flags: MW
LayerCount: 2
Back
Fore
SplineSet
109 552 m 1
 105 551 106 553 108 553 c 2
 125 552 l 1
 138 531 l 1
 142 517 149 506 163 494 c 0
 169 488 176 485 193 487 c 0
 203 488 190 482 185 470 c 1
 191 486 203 492 218 495 c 0
 240 499 258 503 261 505 c 1
 255 500 248 499 246 515 c 0
 240 550 233 604 229 636 c 2
 226 656 l 1
 218 677 l 2
 213 689 210 719 227 728 c 1
 226 728 226 729 227 729 c 0
 230 729 249 727 268 724 c 0
 288 721 302 718 309 717 c 1
 321 705 323 695 320 673 c 2
 317 653 l 1
 319 638 l 2
 322 613 336 516 327 525 c 1
 315 527 312 526 315 528 c 0
 331 537 347 551 355 564 c 0
 358 569 363 575 371 582 c 2
 388 593 l 1
 402 592 407 591 423 585 c 1
 431 572 435 566 440 552 c 1
 437 535 l 2
 434 533 436 528 427 507 c 0
 412 484 394 466 372 450 c 0
 362 443 343 431 339 430 c 1
 348 453 343 460 349 446 c 0
 370 327 386 253 404 195 c 2
 408 180 l 2
 408 169 409 159 408 145 c 1
 401 134 395 128 385 117 c 1
 369 114 363 115 350 116 c 1
 336 127 l 2
 334 130 340 127 346 126 c 1
 336 127 326 136 323 143 c 0
 320 150 316 157 310 166 c 0
 302 177 300 181 291 190 c 0
 281 200 274 205 258 216 c 2
 252 222 l 1
 250 220 l 1
 236 218 236 219 232 215 c 0
 226 212 220 209 220 209 c 1
 209 198 208 196 202 184 c 0
 196 172 194 170 191 159 c 0
 183 131 180 97 185 65 c 0
 187 47 192 33 196 26 c 0
 199 1 200 6 207 19 c 1
 238 2 273 -9 325 -20 c 0
 330 -21 336 -22 350 -31 c 0
 357 -37 362 -45 362 -46 c 1
 361 -44 360 -43 360 -43 c 1
 369 -53 372 -61 373 -71 c 2
 375 -89 l 1
 370 -100 367 -108 359 -120 c 1
 345 -127 340 -128 329 -131 c 1
 303 -128 l 2
 279 -123 272 -121 256 -116 c 0
 211 -103 171 -83 145 -60 c 0
 141 -56 134 -31 152 -19 c 1
 134 -31 138 -53 141 -55 c 1
 135 -52 129 -45 121 -29 c 0
 114 -14 112 -10 108 9 c 0
 104 28 103 32 101 50 c 0
 100 74 101 78 101 97 c 0
 103 119 103 121 107 143 c 0
 111 164 112 169 119 188 c 2
 127 210 l 2
 136 224 144 235 153 248 c 1
 165 258 176 265 189 275 c 1
 205 279 218 284 236 287 c 1
 258 280 l 2
 267 277 274 275 273 275 c 1
 285 274 314 264 323 260 c 0
 329 257 311 258 298 238 c 1
 291 264 278 329 266 397 c 0
 264 412 266 440 281 447 c 1
 301 430 281 407 274 405 c 0
 257 401 237 396 224 394 c 0
 218 394 219 394 216 392 c 0
 189 389 185 394 187 389 c 1
 149 397 115 426 101 462 c 0
 96 477 93 489 90 511 c 0
 89 522 94 545 109 552 c 1
EndSplineSet
Comment: "Kage: aj1-00536+AAoA-Alias: uf0218"
EndChar
StartChar: uF0219
Encoding: 983577 983577 115
Width: 500
VWidth: 0
Flags: MW
LayerCount: 2
Back
Fore
SplineSet
96 213 m 0
 95 257 100 402 109 575 c 2
 112 635 l 1
 108 658 l 2
 106 671 108 700 109 701 c 0
 112 704 133 706 168 691 c 0
 187 683 210 669 213 657 c 0
 213 653 209 641 205 627 c 2
 198 605 l 1
 192 515 l 2
 175 283 171 212 171 144 c 0
 171 83 174 55 182 27 c 0
 188 8 186 0 178 2 c 1
 189 2 199 -3 204 -8 c 0
 206 -11 208 -12 214 -13 c 0
 232 -17 253 -4 283 27 c 0
 315 60 343 103 377 168 c 0
 387 187 404 211 405 212 c 0
 410 214 429 210 428 210 c 1
 437 203 436 167 429 143 c 2
 415 98 l 1
 401 63 l 2
 389 33 388 31 371 -0 c 0
 354 -30 351 -32 338 -49 c 1
 301 -76 299 -73 304 -84 c 1
 293 -90 292 -94 268 -108 c 2
 251 -116 l 2
 237 -118 226 -119 212 -121 c 1
 200 -118 191 -117 178 -113 c 1
 164 -104 l 2
 159 -100 155 -98 138 -80 c 0
 128 -68 125 -60 121 -53 c 0
 111 -31 105 -6 101 27 c 0
 98 53 97 68 97 132 c 0
 97 165 96 202 96 213 c 0
EndSplineSet
Comment: "Kage: aj1-00537+AAoA-Alias: uf0219"
EndChar
StartChar: uF021A
Encoding: 983578 983578 116
Width: 500
VWidth: 0
Flags: MW
LayerCount: 2
Back
Fore
SplineSet
78 462 m 1
 95 468 104 465 111 462 c 0
 124 457 107 455 97 440 c 1
 99 450 111 461 118 462 c 0
 122 463 150 472 197 485 c 0
 232 495 238 496 249 501 c 1
 253 500 l 1
 249 570 l 1
 250 649 l 1
 244 672 l 2
 241 686 237 699 237 702 c 0
 243 717 258 723 257 723 c 1
 261 723 340 695 338 696 c 1
 345 690 346 663 343 649 c 2
 337 628 l 1
 338 571 l 2
 338 538 333 523 319 529 c 0
 315 529 316 530 320 531 c 0
 348 542 386 555 403 558 c 0
 411 560 417 560 428 558 c 2
 444 551 l 1
 451 539 455 534 461 521 c 1
 459 503 l 2
 458 496 453 506 437 514 c 1
 455 502 446 476 442 472 c 2
 428 462 l 1
 409 462 l 2
 396 464 397 465 384 463 c 0
 373 462 358 460 345 458 c 0
 334 456 324 455 322 455 c 1
 334 461 339 472 340 431 c 0
 341 382 341 337 341 291 c 0
 341 267 342 262 343 255 c 0
 346 238 349 201 347 193 c 1
 343 209 326 217 327 217 c 0
 341 213 350 197 349 168 c 0
 348 112 344 69 335 23 c 0
 319 -56 284 -125 241 -163 c 1
 214 -176 l 1
 199 -165 l 2
 198 -164 192 -150 196 -137 c 0
 210 -114 226 -82 235 -56 c 0
 247 -23 257 27 260 68 c 0
 261 77 268 99 281 104 c 1
 301 85 277 63 271 62 c 2
 250 59 l 1
 236 66 228 71 216 79 c 1
 207 94 l 2
 200 106 199 111 196 123 c 0
 183 169 186 242 201 291 c 0
 208 312 211 316 215 328 c 0
 217 335 222 345 227 352 c 0
 234 362 238 365 244 369 c 0
 250 373 257 378 269 379 c 1
 259 373 l 1
 251 403 l 1
 251 428 250 448 250 449 c 1
 259 434 272 430 258 423 c 0
 235 412 179 385 161 377 c 1
 155 376 l 1
 155 371 l 2
 153 367 145 353 133 349 c 1
 121 351 73 442 78 462 c 1
259 295 m 0
 253 264 254 209 263 175 c 0
 266 164 271 153 272 152 c 2
 256 156 l 1
 243 150 l 1
 247 158 248 165 249 178 c 0
 251 194 252 217 253 251 c 0
 254 281 253 290 250 301 c 0
 249 306 248 311 247 313 c 0
 248 335 245 323 264 304 c 0
 266 305 263 302 259 298 c 1
 259 300 261 305 259 295 c 0
282 74 m 1
 296 83 301 92 301 88 c 1
 285 106 262 94 262 92 c 0
 263 86 274 76 282 74 c 1
EndSplineSet
Comment: "Kage: aj1-00538+AAoA-Alias: uf021a"
EndChar
StartChar: uF021B
Encoding: 983579 983579 117
Width: 500
VWidth: 0
Flags: MW
LayerCount: 2
Back
Fore
SplineSet
69 373 m 1
 79 375 85 374 94 374 c 2
 106 372 l 1
 112 375 l 2
 123 379 157 389 168 392 c 1
 162 386 l 1
 158 445 158 517 158 586 c 1
 152 610 l 2
 146 635 149 660 166 668 c 1
 175 666 189 654 199 642 c 0
 213 626 218 619 226 612 c 0
 239 601 257 581 258 571 c 0
 257 564 251 554 247 550 c 1
 245 550 l 1
 247 502 247 446 238 406 c 1
 238 416 l 1
 259 424 299 440 296 437 c 0
 294 432 293 484 293 562 c 2
 294 636 l 1
 289 655 l 2
 286 666 283 678 283 679 c 0
 285 696 301 705 301 705 c 0
 307 705 390 673 394 660 c 0
 394 657 391 644 388 632 c 2
 383 612 l 1
 382 542 l 2
 382 502 381 464 381 457 c 1
 373 462 l 1
 367 470 l 1
 391 479 405 482 420 483 c 2
 438 483 l 1
 455 473 l 2
 462 468 461 468 455 469 c 1
 468 464 478 431 478 427 c 0
 478 423 475 414 472 407 c 1
 465 416 469 409 441 382 c 1
 451 403 412 405 415 386 c 1
 414 387 417 386 417 386 c 0
 411 387 395 384 373 378 c 1
 377 382 l 1
 380 370 l 1
 378 263 374 199 368 164 c 0
 366 154 364 148 361 140 c 2
 354 123 l 1
 343 115 336 111 323 105 c 1
 306 109 l 2
 302 111 302 111 305 111 c 1
 291 114 283 126 278 140 c 0
 271 161 250 211 246 218 c 2
 241 236 l 1
 251 251 l 2
 251 251 257 256 266 258 c 0
 276 257 284 250 286 248 c 0
 288 246 291 242 295 239 c 0
 297 237 312 224 296 223 c 1
 287 213 288 260 289 281 c 0
 290 295 298 363 312 357 c 0
 314 357 277 342 254 332 c 1
 243 331 l 1
 246 223 l 2
 246 99 247 91 250 68 c 0
 252 53 253 45 256 40 c 0
 262 22 282 21 346 33 c 2
 366 36 l 2
 376 34 383 33 396 27 c 1
 404 14 407 7 412 -6 c 1
 410 -22 408 -29 404 -42 c 1
 394 -51 389 -56 379 -63 c 1
 354 -67 l 2
 309 -74 277 -76 252 -70 c 0
 237 -66 231 -63 223 -58 c 0
 215 -53 210 -52 198 -40 c 0
 189 -30 186 -24 180 -13 c 0
 169 10 163 31 159 76 c 0
 158 83 158 128 158 204 c 1
 168 304 l 1
 184 301 l 2
 180 299 170 295 162 292 c 2
 152 288 l 1
 145 278 l 2
 139 271 137 287 139 280 c 1
 109 262 57 355 69 373 c 1
EndSplineSet
Comment: "Kage: aj1-00539+AAoA-Alias: uf021b"
EndChar
StartChar: uF021C
Encoding: 983580 983580 118
Width: 500
VWidth: 0
Flags: MW
LayerCount: 2
Back
Fore
SplineSet
139 607 m 2
 142 607 165 599 164 599 c 2
 164 599 153 595 149 585 c 1
 149 586 153 598 165 602 c 0
 169 602 218 615 235 621 c 0
 241 623 252 627 260 630 c 1
 265 624 l 1
 267 612 266 613 260 625 c 1
 267 640 l 2
 269 643 273 648 275 650 c 0
 278 654 283 660 287 662 c 0
 309 672 337 654 350 627 c 2
 354 617 l 1
 352 602 l 2
 351 590 347 583 342 578 c 1
 342 579 339 570 333 559 c 0
 286 462 229 363 176 291 c 0
 172 286 167 278 165 275 c 0
 162 270 160 266 159 264 c 1
 155 278 139 283 165 298 c 0
 223 331 276 360 298 371 c 0
 304 374 310 378 319 384 c 0
 337 397 348 403 357 407 c 2
 367 410 l 1
 380 408 l 2
 386 406 391 404 402 394 c 0
 411 384 412 379 414 375 c 2
 419 362 l 1
 418 350 l 1
 408 350 412 349 407 319 c 1
 394 307 l 1
 383 306 l 2
 377 306 386 309 393 321 c 1
 391 312 379 304 370 304 c 0
 351 304 330 292 293 260 c 1
 285 255 l 1
 281 243 l 1
 257 194 248 159 246 106 c 0
 245 72 250 38 258 18 c 0
 261 9 272 -7 277 -14 c 0
 282 -19 287 -24 292 -26 c 0
 294 -28 301 -26 308 -23 c 0
 323 -20 326 -22 328 -21 c 2
 344 -23 l 1
 354 -34 l 2
 356 -37 362 -43 365 -49 c 2
 371 -60 l 1
 370 -76 l 2
 369 -83 368 -86 364 -75 c 1
 367 -80 361 -100 357 -104 c 0
 351 -110 347 -113 335 -117 c 0
 327 -120 321 -122 309 -123 c 0
 291 -123 288 -121 284 -121 c 0
 271 -119 258 -114 248 -108 c 0
 234 -99 218 -80 208 -65 c 0
 201 -56 192 -37 192 -32 c 0
 192 -31 196 -41 206 -45 c 1
 197 -43 188 -28 186 -21 c 0
 178 3 173 43 174 77 c 0
 176 130 185 174 203 215 c 0
 209 228 212 234 221 247 c 1
 253 271 250 264 243 278 c 1
 248 286 255 300 261 307 c 0
 274 323 296 315 287 295 c 1
 273 284 248 264 229 250 c 0
 203 229 137 182 130 181 c 0
 123 182 114 192 113 195 c 0
 120 214 142 192 127 182 c 0
 124 181 118 179 115 179 c 0
 113 179 103 181 97 185 c 2
 86 192 l 1
 80 203 l 2
 77 209 76 215 74 222 c 2
 72 236 l 1
 74 249 l 2
 77 259 79 264 82 269 c 0
 88 278 93 282 102 291 c 0
 112 300 123 312 131 321 c 0
 138 329 141 334 170 392 c 0
 204 457 219 490 241 540 c 0
 259 582 269 589 266 597 c 1
 295 602 283 580 277 575 c 0
 259 561 240 546 219 535 c 0
 209 529 201 525 199 524 c 1
 202 527 202 527 197 517 c 0
 192 507 178 499 165 506 c 0
 163 510 126 583 124 588 c 0
 128 603 139 607 139 607 c 2
273 634 m 0
 277 638 295 641 303 634 c 1
 307 621 288 606 287 606 c 0
 274 607 268 627 273 634 c 0
EndSplineSet
Comment: "Kage: aj1-00540+AAoA-Alias: uf021c"
EndChar
StartChar: uF021D
Encoding: 983581 983581 119
Width: 500
VWidth: 0
Flags: MW
LayerCount: 2
Back
Fore
SplineSet
84 -86 m 1
 91 -53 l 2
 109 40 131 172 148 293 c 0
 153 327 164 414 166 431 c 1
 173 419 l 1
 179 412 l 1
 163 410 158 412 152 412 c 0
 136 416 131 420 125 424 c 0
 119 429 114 431 106 442 c 0
 98 453 96 458 93 468 c 0
 89 482 89 486 88 501 c 0
 88 511 94 531 108 537 c 1
 101 536 103 537 111 539 c 2
 125 537 l 1
 139 519 l 2
 149 500 152 497 155 497 c 0
 157 496 159 497 166 499 c 0
 171 500 178 503 176 501 c 0
 174 497 182 568 188 625 c 2
 192 659 l 1
 189 681 l 2
 188 693 185 706 185 709 c 0
 186 716 197 729 206 731 c 0
 211 730 225 724 236 719 c 0
 247 714 263 707 270 703 c 0
 277 700 278 699 274 699 c 1
 290 691 290 662 285 647 c 2
 277 623 l 1
 274 592 l 2
 272 579 261 535 246 542 c 0
 239 541 240 542 247 547 c 2
 264 557 l 1
 278 559 l 1
 295 558 l 1
 307 549 312 544 321 533 c 1
 323 517 323 510 322 496 c 1
 315 484 311 479 305 470 c 1
 284 456 l 2
 274 450 261 444 256 441 c 0
 251 439 257 458 238 474 c 1
 253 467 257 440 255 428 c 0
 244 339 236 274 226 208 c 0
 212 113 193 4 178 -70 c 2
 170 -107 l 1
 163 -120 l 2
 160 -125 157 -109 140 -99 c 1
 160 -116 142 -140 137 -141 c 2
 117 -143 l 1
 101 -132 l 2
 96 -127 88 -116 87 -108 c 1
 87 -109 86 -106 85 -100 c 2
 84 -86 l 1
230 14 m 0
 227 35 229 67 234 91 c 0
 236 101 250 154 251 155 c 0
 258 167 288 167 287 167 c 1
 294 162 298 140 297 132 c 0
 295 119 295 115 295 98 c 0
 295 55 297 33 312 23 c 0
 316 20 316 20 325 18 c 0
 352 11 348 11 355 12 c 0
 363 13 370 17 374 19 c 0
 382 23 391 23 399 23 c 2
 416 22 l 1
 427 11 431 7 439 -6 c 1
 440 -25 l 1
 421 -59 421 -53 439 -44 c 1
 441 -59 l 1
 433 -76 l 2
 430 -81 427 -66 410 -56 c 1
 430 -73 412 -97 407 -98 c 2
 393 -101 l 1
 371 -97 l 2
 362 -95 352 -93 348 -92 c 0
 341 -91 337 -88 335 -89 c 0
 317 -88 301 -85 285 -77 c 0
 259 -63 236 -23 230 14 c 0
253 334 m 0
 256 336 250 332 253 338 c 0
 263 360 281 382 307 401 c 0
 321 411 341 419 358 423 c 0
 361 423 365 424 370 424 c 0
 398 418 399 416 398 420 c 1
 406 418 417 406 420 402 c 2
 429 388 l 1
 429 372 428 365 426 351 c 1
 418 340 414 336 403 326 c 1
 385 323 l 2
 377 323 369 325 360 330 c 0
 360 331 362 330 352 329 c 0
 336 328 327 323 298 306 c 0
 291 302 279 295 273 294 c 0
 262 296 248 313 253 334 c 0
EndSplineSet
Comment: "Kage: aj1-00541+AAoA-Alias: uf021d"
EndChar
StartChar: uF021E
Encoding: 983582 983582 120
Width: 500
VWidth: 0
Flags: MW
LayerCount: 2
Back
Fore
SplineSet
84 491 m 1
 85 514 l 2
 86 524 93 547 107 552 c 1
 103 551 105 553 107 553 c 2
 123 553 l 1
 139 525 l 2
 142 516 145 511 148 505 c 0
 151 499 149 501 152 500 c 0
 155 496 154 497 164 499 c 0
 168 499 169 499 171 500 c 2
 167 496 l 1
 163 494 l 1
 166 518 173 558 180 607 c 2
 189 658 l 1
 187 679 l 2
 186 691 185 703 185 706 c 0
 185 708 192 723 205 729 c 0
 211 729 289 681 291 666 c 1
 284 650 271 616 271 615 c 0
 270 611 261 549 258 528 c 0
 256 519 255 510 255 511 c 2
 245 526 l 1
 231 529 l 1
 238 534 267 552 282 563 c 2
 297 573 l 1
 311 576 l 1
 330 577 l 1
 344 567 348 562 357 551 c 1
 359 535 358 528 357 514 c 1
 350 502 347 496 340 487 c 1
 323 476 l 2
 301 462 278 450 257 439 c 0
 246 434 234 428 229 427 c 1
 240 432 246 440 243 416 c 0
 236 357 226 264 223 216 c 0
 222 209 221 204 221 203 c 2
 209 218 l 1
 191 218 l 1
 202 231 215 243 225 251 c 0
 227 253 230 256 230 256 c 0
 233 260 244 268 253 275 c 2
 272 289 l 2
 285 294 295 298 309 303 c 2
 329 304 l 1
 350 304 l 1
 364 298 372 295 385 290 c 1
 396 280 404 273 414 263 c 2
 424 245 l 2
 435 225 436 222 441 206 c 0
 445 192 446 190 450 162 c 2
 453 137 l 2
 452 120 451 105 450 85 c 1
 447 75 l 2
 446 74 440 91 426 96 c 1
 427 96 442 90 448 75 c 0
 448 71 444 60 442 50 c 0
 435 24 426 -1 414 -24 c 0
 397 -57 370 -89 343 -108 c 0
 313 -128 284 -138 250 -140 c 0
 236 -141 230 -141 215 -139 c 0
 208 -138 184 -116 204 -97 c 1
 190 -103 184 -114 184 -110 c 2
 190 -94 l 1
 215 -86 l 2
 230 -82 238 -79 256 -68 c 0
 285 -51 303 -34 318 -13 c 0
 347 28 359 77 357 155 c 0
 357 174 357 180 354 191 c 0
 351 202 351 204 345 210 c 0
 343 214 345 213 335 218 c 0
 329 222 330 221 323 222 c 2
 315 223 l 1
 307 222 l 2
 294 219 294 220 283 213 c 2
 272 208 l 1
 270 204 l 1
 249 174 232 137 223 102 c 1
 217 112 183 102 195 81 c 1
 195 81 209 87 214 93 c 1
 213 90 211 82 197 69 c 1
 181 60 l 1
 166 62 l 1
 174 74 149 100 136 86 c 1
 131 98 128 108 129 122 c 0
 129 127 136 115 147 110 c 1
 129 119 144 332 154 419 c 0
 155 429 164 449 176 453 c 1
 196 434 170 412 163 413 c 0
 134 434 134 438 135 420 c 1
 118 426 l 1
 109 437 103 444 95 455 c 0
 90 468 88 478 84 491 c 1
EndSplineSet
Comment: "Kage: aj1-00542+AAoA-Alias: uf021e"
EndChar
StartChar: uF021F
Encoding: 983583 983583 121
Width: 500
VWidth: 0
Flags: MW
LayerCount: 2
Back
Fore
SplineSet
68 324 m 0
 80 335 81 337 90 341 c 0
 98 345 93 339 91 331 c 1
 92 338 132 393 151 416 c 0
 183 455 211 483 234 496 c 0
 238 499 243 502 251 510 c 2
 267 525 l 1
 285 531 l 2
 293 534 301 537 305 537 c 0
 306 537 315 538 324 538 c 2
 342 536 l 1
 358 529 l 2
 367 524 370 523 389 508 c 0
 401 496 403 493 414 476 c 0
 422 462 424 459 432 437 c 0
 440 413 440 408 444 390 c 0
 449 364 449 362 451 338 c 0
 453 313 453 307 452 280 c 1
 433 260 435 262 446 212 c 1
 440 177 431 148 418 115 c 0
 410 97 408 89 397 71 c 0
 374 32 347 2 315 -19 c 0
 302 -27 297 -30 281 -36 c 0
 264 -42 261 -42 247 -44 c 0
 232 -46 228 -46 213 -45 c 0
 205 -45 179 -23 199 -4 c 1
 182 -13 178 -26 178 -19 c 2
 182 -2 l 1
 195 6 l 2
 197 7 204 10 209 12 c 0
 277 41 314 80 338 151 c 0
 346 175 351 200 355 230 c 0
 357 242 359 257 361 261 c 1
 361 260 361 266 362 283 c 0
 364 348 359 391 343 426 c 0
 334 448 325 456 310 460 c 0
 306 461 304 461 303 461 c 0
 292 461 269 440 242 404 c 0
 225 381 216 368 191 327 c 2
 176 304 l 1
 177 296 l 2
 177 288 171 296 156 303 c 1
 136 287 135 270 118 278 c 1
 67 320 69 323 68 324 c 0
EndSplineSet
Comment: "Kage: aj1-00543+AAoA-Alias: uf021f"
EndChar
StartChar: uF0220
Encoding: 983584 983584 122
Width: 500
VWidth: 0
Flags: MW
LayerCount: 2
Back
Fore
SplineSet
71 519 m 1
 102 508 l 2
 93 507 86 500 85 495 c 1
 85 496 89 508 100 512 c 1
 100 512 115 517 127 521 c 0
 144 527 189 546 194 548 c 1
 193 547 191 548 196 551 c 0
 244 577 260 586 289 606 c 0
 313 623 323 629 333 634 c 0
 343 639 349 640 359 641 c 2
 376 640 l 1
 384 634 391 632 402 622 c 1
 406 611 411 605 416 591 c 1
 415 578 413 570 411 559 c 1
 403 549 l 2
 400 546 397 542 396 541 c 0
 390 537 387 537 388 537 c 1
 379 533 360 518 348 506 c 0
 313 471 291 434 271 373 c 0
 266 356 266 354 262 326 c 0
 256 286 253 251 252 212 c 0
 251 181 251 177 253 153 c 0
 255 128 255 125 259 103 c 0
 260 84 261 84 270 59 c 0
 271 47 270 48 284 29 c 2
 291 17 l 2
 296 14 305 7 309 4 c 2
 319 2 l 2
 335 -1 339 -4 347 -8 c 2
 360 -17 l 1
 365 -33 l 2
 367 -41 368 -49 368 -50 c 1
 368 -49 369 -49 370 -53 c 2
 371 -65 l 1
 367 -75 365 -82 358 -95 c 1
 348 -100 342 -102 331 -107 c 1
 304 -101 l 2
 293 -98 278 -95 273 -91 c 0
 272 -90 265 -83 255 -75 c 2
 236 -58 l 1
 226 -41 219 -25 210 -10 c 1
 205 9 198 26 193 46 c 0
 191 66 188 86 186 106 c 2
 186 142 l 2
 186 176 186 179 188 210 c 1
 207 268 206 250 196 279 c 1
 200 308 202 316 208 344 c 0
 214 371 217 380 222 394 c 0
 226 406 228 412 230 422 c 0
 236 451 249 486 263 513 c 0
 270 528 278 539 288 553 c 0
 291 557 299 565 291 552 c 1
 308 537 289 527 281 522 c 0
 263 511 226 488 212 479 c 0
 181 459 160 446 139 436 c 2
 131 433 l 1
 130 428 l 2
 127 422 123 430 95 423 c 1
 101 410 58 506 71 519 c 1
EndSplineSet
Comment: "Kage: aj1-00544+AAoA-Alias: uf0220"
EndChar
StartChar: uF0221
Encoding: 983585 983585 123
Width: 500
VWidth: 0
Flags: MW
LayerCount: 2
Back
Fore
SplineSet
87 64 m 1
 90 87 l 2
 92 106 93 108 93 114 c 1
 99 108 98 110 99 153 c 1
 106 181 l 2
 114 199 122 213 130 230 c 2
 146 253 l 2
 161 274 166 278 181 293 c 0
 190 303 203 315 207 319 c 0
 218 328 208 314 218 292 c 1
 203 297 185 310 174 322 c 0
 166 334 167 351 175 359 c 0
 182 363 170 353 167 338 c 1
 161 366 164 370 157 370 c 1
 154 392 153 412 152 455 c 0
 151 495 152 564 154 618 c 2
 155 638 l 1
 150 661 l 2
 148 675 150 703 165 710 c 1
 165 710 164 710 169 710 c 0
 180 706 226 686 233 684 c 0
 239 682 241 680 236 681 c 1
 252 673 252 643 248 630 c 2
 242 611 l 1
 241 583 l 2
 239 513 240 436 242 407 c 0
 243 387 247 364 252 352 c 0
 255 345 254 342 244 345 c 0
 238 344 236 344 240 347 c 0
 260 364 304 394 327 412 c 2
 336 418 l 1
 344 429 355 443 383 465 c 1
 418 416 l 1
 428 394 428 386 435 378 c 1
 429 352 366 323 362 322 c 0
 360 321 329 302 301 283 c 0
 254 251 225 227 200 199 c 0
 186 184 186 183 176 167 c 2
 166 150 l 2
 162 139 158 128 154 116 c 2
 153 99 l 1
 130 52 129 94 157 55 c 1
 160 36 l 1
 168 26 l 2
 169 19 166 21 182 9 c 0
 198 -6 196 -4 199 -1 c 0
 210 -5 210 -5 222 -6 c 0
 234 -7 236 -7 252 -6 c 0
 280 -3 312 3 352 18 c 2
 374 26 l 1
 387 25 393 23 406 20 c 1
 418 3 l 2
 422 -4 425 -12 425 -17 c 1
 424 -13 424 -12 426 -16 c 2
 431 -28 l 1
 429 -46 l 2
 428 -51 420 -69 407 -75 c 1
 413 -73 415 -73 410 -77 c 2
 399 -85 l 1
 376 -91 l 2
 320 -103 286 -109 253 -109 c 0
 231 -109 224 -106 209 -104 c 2
 186 -100 l 1
 173 -93 161 -87 146 -79 c 1
 135 -68 125 -58 114 -46 c 1
 106 -28 100 -14 93 3 c 1
 91 24 89 43 87 64 c 1
EndSplineSet
Comment: "Kage: aj1-00545+AAoA-Alias: uf0221"
EndChar
StartChar: uF0222
Encoding: 983586 983586 124
Width: 500
VWidth: 0
Flags: MW
LayerCount: 2
Back
Fore
SplineSet
81 81 m 1
 87 107 l 2
 108 191 129 295 146 391 c 0
 149 408 151 421 151 420 c 1
 157 435 191 422 170 401 c 0
 168 401 161 400 155 401 c 0
 143 402 137 406 130 410 c 0
 115 422 113 426 110 430 c 0
 106 437 102 442 98 456 c 0
 96 466 94 470 94 484 c 0
 94 490 94 498 94 500 c 0
 94 502 97 514 110 523 c 1
 104 517 116 527 145 501 c 1
 150 491 154 485 157 483 c 0
 162 478 156 481 152 483 c 1
 154 483 153 483 156 485 c 0
 160 487 168 492 167 491 c 0
 163 485 176 565 187 642 c 2
 188 656 l 1
 186 677 l 2
 184 690 184 703 184 705 c 2
 194 725 l 1
 225 719 l 2
 232 715 248 707 259 701 c 2
 291 679 l 1
 281 639 l 2
 272 615 271 615 271 610 c 0
 270 605 267 583 264 561 c 0
 261 539 253 535 238 542 c 0
 237 542 232 541 229 540 c 1
 235 544 243 545 248 546 c 2
 266 547 l 1
 282 536 l 2
 288 531 294 519 295 512 c 1
 295 513 296 507 296 501 c 2
 296 486 l 1
 289 474 286 468 279 458 c 1
 256 442 l 2
 245 436 244 451 239 459 c 1
 245 442 236 388 232 367 c 0
 218 284 190 155 171 76 c 2
 165 54 l 1
 158 42 l 1
 146 59 118 34 124 22 c 1
 109 23 l 1
 95 34 l 2
 95 37 89 41 81 70 c 1
 81 81 l 1
343 -22 m 1
 344 -24 348 -25 347 -25 c 1
 349 -28 348 -56 343 -67 c 2
 334 -87 l 2
 325 -98 318 -106 308 -117 c 1
 295 -125 286 -127 275 -133 c 1
 263 -133 254 -134 240 -133 c 1
 228 -126 221 -121 210 -114 c 1
 200 -99 l 1
 191 -67 193 -65 186 -68 c 1
 180 -51 l 2
 179 -36 179 -23 178 -9 c 2
 181 14 l 2
 184 31 186 42 189 55 c 0
 196 80 201 94 216 100 c 1
 208 98 202 92 202 94 c 0
 206 105 210 110 221 120 c 2
 234 131 l 1
 246 135 253 138 265 141 c 1
 280 140 l 2
 286 139 297 138 301 136 c 2
 284 133 l 1
 275 121 l 2
 275 123 275 137 274 154 c 0
 271 234 271 278 275 320 c 0
 277 341 277 344 282 365 c 2
 289 387 l 1
 301 401 l 2
 306 408 319 418 326 419 c 0
 334 417 342 411 344 408 c 2
 350 397 l 1
 349 379 l 2
 344 339 344 294 350 213 c 0
 352 184 354 107 340 112 c 1
 346 111 358 103 364 97 c 0
 378 85 404 56 418 35 c 0
 424 27 427 21 427 21 c 1
 430 16 434 5 435 -1 c 2
 438 -17 l 1
 432 -33 l 1
 411 -57 402 -55 405 -58 c 2
 386 -63 l 1
 370 -54 l 2
 360 -47 356 -43 348 -29 c 0
 344 -22 338 -12 334 -6 c 1
 348 -1 l 1
 362 10 l 1
 362 5 360 -9 358 -17 c 2
 353 -39 l 1
 346 -46 l 2
 346 -46 347 -27 343 -22 c 1
236 11 m 2
 236 -4 l 1
 239 -17 l 2
 243 -33 242 -33 245 -37 c 0
 249 -45 248 -45 250 -46 c 0
 261 -58 259 -56 254 -50 c 1
 257 -53 258 -49 264 -28 c 1
 281 -39 307 -15 299 -5 c 1
 287 -4 272 -16 271 -14 c 0
 271 -7 273 3 274 8 c 0
 276 17 278 44 277 58 c 1
 280 56 l 1
 279 53 l 1
 274 56 268 59 266 60 c 0
 257 64 254 63 242 53 c 1
 239 52 l 1
 238 43 l 2
 235 34 236 33 236 11 c 2
300 528 m 1
 302 543 l 2
 304 548 315 559 323 561 c 0
 329 560 340 554 347 551 c 0
 367 541 385 525 403 500 c 0
 414 484 430 452 441 422 c 2
 445 408 l 1
 445 396 l 2
 445 390 444 385 444 386 c 1
 444 381 441 372 433 362 c 2
 418 348 l 1
 402 347 395 347 381 350 c 1
 369 363 l 2
 364 370 361 375 358 388 c 0
 353 411 344 441 337 458 c 0
 329 481 318 503 310 512 c 2
 300 528 l 1
EndSplineSet
Comment: "Kage: aj1-00546+AAoA-Alias: uf0222"
EndChar
StartChar: uF0223
Encoding: 983587 983587 125
Width: 500
VWidth: 0
Flags: MW
LayerCount: 2
Back
Fore
SplineSet
89 346 m 0
 92 410 99 495 108 583 c 2
 112 623 l 1
 109 646 l 2
 107 660 105 673 105 675 c 0
 112 689 128 688 139 684 c 0
 145 680 160 674 173 668 c 0
 187 661 202 651 204 642 c 0
 204 639 200 625 195 612 c 2
 187 593 l 1
 185 565 l 1
 170 406 162 247 164 152 c 1
 152 148 l 1
 138 145 l 1
 142 160 163 253 174 261 c 1
 187 258 l 2
 196 253 195 193 191 152 c 0
 177 15 175 -21 179 -50 c 0
 179 -55 181 -59 179 -74 c 2
 174 -90 l 1
 168 -96 163 -102 151 -110 c 1
 135 -110 l 2
 129 -109 113 -91 128 -78 c 1
 116 -85 112 -95 110 -91 c 2
 103 -79 l 1
 99 -51 l 2
 85 44 81 190 89 346 c 0
203 147 m 2
 205 176 l 2
 207 207 210 211 215 230 c 0
 218 242 220 254 221 259 c 0
 223 267 232 277 240 279 c 1
 235 278 240 279 251 277 c 1
 259 271 l 1
 261 236 l 2
 261 221 262 195 262 179 c 0
 263 152 263 150 266 132 c 0
 270 104 273 90 281 77 c 0
 284 71 286 70 293 63 c 0
 299 57 299 57 303 55 c 0
 316 49 327 52 351 62 c 2
 367 68 l 2
 375 68 382 68 396 67 c 1
 408 54 l 1
 416 31 412 27 416 35 c 1
 416 34 416 36 416 36 c 2
 422 27 l 1
 422 9 l 2
 421 2 416 9 405 14 c 1
 417 7 416 -15 410 -21 c 2
 400 -30 l 1
 379 -36 l 2
 370 -36 369 -38 341 -44 c 1
 321 -45 l 2
 308 -43 298 -39 287 -37 c 0
 274 -30 265 -23 255 -17 c 1
 246 -6 239 4 231 14 c 2
 222 33 l 2
 215 49 214 52 209 73 c 2
 205 94 l 2
 204 112 204 129 203 147 c 2
216 546 m 1
 223 555 240 575 226 583 c 1
 230 585 235 585 235 585 c 2
 241 584 251 574 256 566 c 0
 269 544 269 541 274 544 c 0
 281 546 287 547 303 558 c 0
 328 575 341 584 355 588 c 2
 370 590 l 1
 383 584 l 2
 387 582 393 580 396 577 c 0
 399 573 401 566 403 561 c 2
 407 546 l 1
 403 531 l 2
 401 526 400 518 396 513 c 0
 393 510 387 508 383 506 c 0
 378 503 371 500 364 499 c 0
 361 499 355 496 343 490 c 0
 308 474 287 470 266 476 c 0
 248 484 246 488 241 491 c 0
 234 497 230 500 224 515 c 0
 218 530 218 533 216 546 c 1
EndSplineSet
Comment: "Kage: aj1-00547+AAoA-Alias: uf0223"
EndChar
